<?xml version="1.0" encoding="UTF-8" standalone="no"?>
<!-- Created with Inkscape (http://www.inkscape.org/) -->

<svg
   width="210mm"
   height="297mm"
   viewBox="0 0 210 297"
   version="1.1"
   id="svg1"
   xml:space="preserve"
   inkscape:version="1.3.2 (091e20e, 2023-11-25, custom)"
   sodipodi:docname="fridge.svg"
   xmlns:inkscape="http://www.inkscape.org/namespaces/inkscape"
   xmlns:sodipodi="http://sodipodi.sourceforge.net/DTD/sodipodi-0.dtd"
   xmlns="http://www.w3.org/2000/svg"
   xmlns:svg="http://www.w3.org/2000/svg"><sodipodi:namedview
     id="namedview1"
     pagecolor="#ffffff"
     bordercolor="#000000"
     borderopacity="0.25"
     inkscape:showpageshadow="2"
     inkscape:pageopacity="0.0"
     inkscape:pagecheckerboard="0"
     inkscape:deskcolor="#d1d1d1"
     inkscape:document-units="mm"
     inkscape:zoom="0.54488788"
     inkscape:cx="338.60177"
     inkscape:cy="367.96561"
     inkscape:window-width="1920"
     inkscape:window-height="1121"
     inkscape:window-x="-9"
     inkscape:window-y="-9"
     inkscape:window-maximized="1"
     inkscape:current-layer="layer1" /><defs
     id="defs1" /><g
     inkscape:label="Layer 1"
     inkscape:groupmode="layer"
     id="layer1"><g
       id="g34" /><path
       id="text34"
       style="font-size:15.6208px;line-height:0.6;font-family:'Margin DEMO';-inkscape-font-specification:'Margin DEMO, Normal';text-align:end;letter-spacing:2.7821px;word-spacing:0px;text-anchor:end;stroke-width:3.68997;stroke-linecap:round;stroke-linejoin:bevel"
       transform="matrix(0.77327554,0.03452589,0.10506202,1.297891,0,0)"
       d="m 79.645488,28.96186 c -0.04686,-0.999731 -1.030973,-1.124697 -2.015083,-1.124697 h -4.67062 c -0.98411,0 -1.983841,0.124966 -2.030704,1.124697 -0.04686,0.96849 1.343389,1.608943 1.671426,0.656074 0.249933,-0.718557 0.687315,-1.030973 0.937248,-1.030973 0.656074,0 0.749798,4.49879 0.234312,5.529763 -0.124966,0.249933 -0.374899,0.562349 -0.374899,0.843523 0,0.609212 0.874765,0.718557 1.827633,0.718557 h 0.124967 c 0.952869,0 1.827633,-0.109345 1.827633,-0.718557 0,-0.281174 -0.234312,-0.609211 -0.374899,-0.843523 -0.562349,-0.968489 -0.453003,-5.529763 0.249933,-5.529763 0.234312,0 0.687315,0.312416 0.921627,1.030973 0.328037,0.952869 1.718288,0.312416 1.671426,-0.656074 z m 12.187437,-1.124697 h -2.15567 c -0.952869,0 -1.827634,0.124966 -1.827634,0.718556 0,0.249933 0.171829,0.57797 0.312416,0.76542 0.437383,0.624832 0.624832,4.123891 0.06248,4.795585 -0.171829,0.218691 -0.3749,0.562349 -0.3749,0.843523 0,0.609212 0.874765,0.718557 1.827634,0.718557 h 0.140587 c 0.952869,0 1.827634,-0.109345 1.827634,-0.718557 0,-0.281174 -0.203071,-0.624832 -0.39052,-0.843523 -0.171829,-0.218691 -0.265554,-0.640453 -0.312416,-1.327768 h 0.890385 c 1.702668,0 3.10854,-1.140318 3.10854,-2.468086 0,-1.327768 -1.405872,-2.483707 -3.10854,-2.483707 z m 23.965495,0 c -0.78104,0 -1.5777,0.234312 -1.67142,0.515486 -0.0312,0.124966 0.0312,0.234312 0.0937,0.374899 0.43739,0.843523 -0.95286,2.34312 -1.14031,4.951794 -1.17156,-1.140319 -1.62457,-3.811475 -1.46836,-4.358203 0.0156,-0.03124 0.0312,-0.0781 0.0312,-0.140588 0.0469,-0.187449 0.0469,-0.421761 -0.0312,-0.624832 -0.12497,-0.312416 -0.43738,-0.499865 -0.85914,-0.59359 -0.3749,-0.09372 -0.81229,-0.124966 -1.24967,-0.124966 h -0.12496 c -0.96849,0 -1.90574,0.124966 -1.67143,0.718556 0.0937,0.249933 0.40614,0.562349 0.60921,0.76542 0.20307,0.20307 0.35928,0.656073 0.53111,1.234043 0.0781,0.312416 0.20307,0.859144 -0.0156,1.874496 -0.0781,0.374899 -0.20307,0.78104 -0.28118,1.249664 -1.18718,-1.140319 -1.64018,-3.811475 -1.46835,-4.358203 0.0469,-0.18745 0.0937,-0.515487 0,-0.76542 -0.23431,-0.59359 -1.15594,-0.718556 -2.12443,-0.718556 h -0.12497 c -0.95287,0 -1.90573,0.124966 -1.67142,0.718556 0.10934,0.249933 0.40614,0.562349 0.60921,0.76542 0.906,0.859144 0.8279,6.357665 4.18637,6.357665 1.29653,0 1.65581,-0.921627 1.82764,-2.077566 0.5311,1.155939 1.32776,2.077566 2.7024,2.077566 1.12469,0 1.53083,-1.093456 1.68704,-2.389982 0.28118,-2.249395 1.65581,-3.983304 2.57743,-4.561274 0.18745,-0.124966 0.31242,-0.249933 0.39052,-0.374899 0.15621,-0.281174 -0.49986,-0.515486 -1.34339,-0.515486 z M 111.56078,8.0899274 c -6.09861,2.7173306 5.65428,2.0188286 0,0 z m 61.62696,-1.3984871 c -8.00583,3.1805932 6.93117,1.4042791 0,0 z m 9.87867,-0.055348 c -6.02638,2.3970835 11.01554,2.300331 9.22579,6.3901709 -3.4268,28.379173 -7.49872,56.892905 -11.29041,85.327476 -1.28636,2.401651 -0.0978,5.728261 3.21025,2.305131 3.85412,-28.1919 7.49842,-56.392279 11.1949,-84.570715 1.50593,-4.769188 -3.47092,-10.0686409 -12.34053,-9.4520629 z M 68.550944,10.888795 c -8.606846,-0.107316 -16.729915,4.510753 -17.321725,9.625871 -1.864687,9.806564 -3.271771,19.615949 -5.214548,29.426974 -3.142136,19.695162 -5.225347,39.383906 -7.106211,59.0403 -2.175676,2.72924 4.794277,9.76015 3.918508,3.75105 -1.531373,-5.08166 0.382143,-10.62893 0.454027,-15.904046 1.435194,-13.867683 3.620581,-27.759154 5.144962,-41.629788 6.63287,1.146875 14.687097,0.239084 22.074275,0.359767 4.177994,-0.02002 20.412391,-0.317585 14.433047,-4.03981 -7.938159,-0.627477 -16.09621,-0.819251 -24.119246,-1.286807 -6.352036,-0.01895 -14.532908,1.068487 -10.498549,-4.434442 1.723655,-8.922366 2.48486,-17.880216 4.83012,-26.778532 -0.45486,-2.887711 5.968165,0.149617 3.715117,-2.913674 -3.749211,-2.306209 17.01289,-3.06258 9.690223,-5.216863 z m 77.081716,10.031581 c -8.89499,-0.782892 -5.75372,5.053747 -6.99859,8.432601 -3.79298,28.056008 -7.62995,56.129283 -11.41498,84.174333 -1.07819,5.32572 -11.73026,7.05495 -18.92024,6.29995 -12.413253,-0.3345 -24.706559,-1.04713 -36.993864,-1.75622 -4.72324,-0.83225 -10.513118,-0.31116 -16.03007,-0.94624 -3.140332,-1.11079 -14.978442,-1.52487 -7.369776,1.40336 8.198332,1.2555 17.383384,0.70836 25.88668,1.61802 13.585704,0.62826 27.09201,1.73599 40.86191,1.67589 7.0855,-0.065 11.95166,-3.62269 15.05972,-7.08224 0.60586,-3.72535 1.8041,-7.48425 3.01881,-11.31742 2.79156,-19.687813 5.12899,-39.49787 8.19042,-59.109253 2.91562,-3.903322 2.26986,-8.360505 3.27535,-12.487871 0.49782,-3.635466 0.90003,-7.268753 1.43467,-10.904911 z m 33.82062,88.562994 c -8.24425,1.77404 -16.61057,2.61046 -24.74991,5.06171 -7.24723,1.1701 -17.85846,5.27929 -23.10762,4.36806 2.77927,-5.89465 -4.31682,2.84644 -7.15105,3.61433 5.65617,3.79418 10.34614,-3.0864 17.65312,-3.02598 11.09768,-2.55091 22.27042,-5.00852 33.27243,-7.72272 1.40064,-0.73871 2.78882,-1.48924 4.08303,-2.2954 z M 135.58689,10.090975 c -4.16698,1.844319 -10.98302,-1.3941788 -13.20634,1.685532 3.12995,1.017313 14.12449,-0.567 10.82749,3.224814 -1.54159,2.258899 6.41651,6.461227 4.04626,1.529191 -4.80774,-4.771503 5.9481,0.216301 3.07157,3.072185 10.16749,0.31039 20.69626,-1.390752 30.99486,-1.906417 5.75176,-0.810563 11.19933,-0.604138 16.87303,-1.593419 0.47833,-4.041273 -11.88844,0.121914 -16.67151,-0.618789 -8.47911,0.561791 -16.99769,1.341223 -25.44616,2.011124 -1.70315,-2.289193 -2.83494,-4.506022 3.2892,-3.86376 4.58774,0.444247 13.9835,-1.920165 4.86093,-2.483279 -6.02593,-1.008927 -14.10905,3.5055 -17.5142,-0.751451 l -0.48752,-0.244005 -0.63749,-0.06172 z M 97.172386,8.9580334 C 96.309148,10.576676 86.127798,9.1370524 90.8456,11.2347 94.921199,12.069385 108.40369,9.7671838 98.289289,9.0009429 Z M 80.718348,9.9392208 c -12.17647,1.3437422 5.187454,3.5611422 0,0 z" /></g></svg>
