999
"DXF R12 Output" (www.mydxf.blogspot.com)
 0 
SECTION
 2 
HEADER
 9 
$ACADVER
 1 
AC1009
 9 
$EXTMIN
 10 
 0 
 20 
 0 
 9 
$EXTMAX
 10 
 8.5 
 20 
 11 
 0 
ENDSEC
 0 
SECTION
 2 
ENTITIES
0
LINE
8
plate
10
136.134922
20
1090.552340
11
135.058790
21
1090.336150
0
LINE
8
plate
10
135.058790
20
1090.336150
11
134.181866
21
1089.745871
0
LINE
8
plate
10
134.181866
20
1089.745871
11
133.591590
21
1088.868945
0
LINE
8
plate
10
133.591590
20
1088.868945
11
133.375400
21
1087.792810
0
LINE
8
plate
10
133.375400
20
1087.792810
11
133.375400
21
1045.686860
0
LINE
8
plate
10
133.375400
20
1045.686860
11
133.591590
21
1044.610727
0
LINE
8
plate
10
133.591590
20
1044.610727
11
134.181866
21
1043.733804
0
LINE
8
plate
10
134.181866
20
1043.733804
11
135.058790
21
1043.143529
0
LINE
8
plate
10
135.058790
20
1043.143529
11
136.134922
21
1042.927340
0
LINE
8
plate
10
136.134922
20
1042.927340
11
698.940880
21
1042.927340
0
LINE
8
plate
10
698.940880
20
1042.927340
11
700.017018
21
1043.143529
0
LINE
8
plate
10
700.017018
20
1043.143529
11
700.893940
21
1043.733804
0
LINE
8
plate
10
700.893940
20
1043.733804
11
701.484213
21
1044.610727
0
LINE
8
plate
10
701.484213
20
1044.610727
11
701.700400
21
1045.686860
0
LINE
8
plate
10
701.700400
20
1045.686860
11
701.700400
21
1087.792810
0
LINE
8
plate
10
701.700400
20
1087.792810
11
701.484213
21
1088.868945
0
LINE
8
plate
10
701.484213
20
1088.868945
11
700.893940
21
1089.745871
0
LINE
8
plate
10
700.893940
20
1089.745871
11
700.017017
21
1090.336150
0
LINE
8
plate
10
700.017017
20
1090.336150
11
698.940880
21
1090.552340
0
LINE
8
plate
10
698.940880
20
1090.552340
11
136.134922
21
1090.552340
0
LINE
8
plate
10
662.594260
20
1085.877170
11
663.025265
21
1085.839895
0
LINE
8
plate
10
663.025265
20
1085.839895
11
663.308839
21
1085.666430
0
LINE
8
plate
10
663.308839
20
1085.666430
11
663.534770
21
1084.943380
0
LINE
8
plate
10
663.534770
20
1084.943380
11
633.582590
21
1080.660430
0
LINE
8
plate
10
633.582590
20
1080.660430
11
633.348500
21
1080.578230
0
LINE
8
plate
10
633.348500
20
1080.578230
11
634.113310
21
1074.818370
0
LINE
8
plate
10
634.113310
20
1074.818370
11
634.077478
21
1074.333803
0
LINE
8
plate
10
634.077478
20
1074.333803
11
633.915626
21
1074.054352
0
LINE
8
plate
10
633.915626
20
1074.054352
11
633.167630
21
1073.885100
0
LINE
8
plate
10
633.167630
20
1073.885100
11
632.226600
21
1080.976650
0
LINE
8
plate
10
632.226600
20
1080.976650
11
632.227600
21
1081.380760
0
LINE
8
plate
10
632.227600
20
1081.380760
11
632.642040
21
1081.593670
0
LINE
8
plate
10
632.642040
20
1081.593670
11
647.606719
21
1083.809894
0
LINE
8
plate
10
647.606719
20
1083.809894
11
662.594220
21
1085.877130
0
LINE
8
plate
10
662.594220
20
1085.877130
11
662.594260
21
1085.877170
0
LINE
8
plate
10
664.214830
20
1084.209050
11
666.096370
21
1070.454860
0
LINE
8
plate
10
666.096370
20
1070.454860
11
665.914096
21
1069.843786
0
LINE
8
plate
10
665.914096
20
1069.843786
11
665.609798
21
1069.615572
0
LINE
8
plate
10
665.609798
20
1069.615572
11
665.157930
21
1069.517960
0
LINE
8
plate
10
665.157930
20
1069.517960
11
663.167870
21
1084.064360
0
LINE
8
plate
10
663.167870
20
1084.064360
11
664.214830
21
1084.209050
0
LINE
8
plate
10
664.214830
20
1084.209050
11
664.214830
21
1084.209050
0
LINE
8
plate
10
562.491840
20
1079.458960
11
591.253910
21
1076.769720
0
LINE
8
plate
10
591.253910
20
1076.769720
11
591.634349
21
1076.660284
0
LINE
8
plate
10
591.634349
20
1076.660284
11
591.880265
21
1076.436748
0
LINE
8
plate
10
591.880265
20
1076.436748
11
591.987798
21
1076.097414
0
LINE
8
plate
10
591.987798
20
1076.097414
11
591.953090
21
1075.640590
0
LINE
8
plate
10
591.953090
20
1075.640590
11
562.394170
21
1078.404240
0
LINE
8
plate
10
562.394170
20
1078.404240
11
562.491870
21
1079.458960
0
LINE
8
plate
10
562.491870
20
1079.458960
11
562.491840
21
1079.458960
0
LINE
8
plate
10
658.213130
20
1079.307540
11
658.469960
21
1077.512820
0
LINE
8
plate
10
658.469960
20
1077.512820
11
659.745850
21
1077.695240
0
LINE
8
plate
10
659.745850
20
1077.695240
11
659.805250
21
1077.278210
0
LINE
8
plate
10
659.805250
20
1077.278210
11
658.529360
21
1077.095790
0
LINE
8
plate
10
658.529360
20
1077.095790
11
659.035790
21
1073.553890
0
LINE
8
plate
10
659.035790
20
1073.553890
11
659.286940
21
1072.859360
0
LINE
8
plate
10
659.286940
20
1072.859360
11
659.707070
21
1072.731200
0
LINE
8
plate
10
659.707070
20
1072.731200
11
660.071900
21
1072.904830
0
LINE
8
plate
10
660.071900
20
1072.904830
11
660.306000
21
1073.309460
0
LINE
8
plate
10
660.306000
20
1073.309460
11
660.538540
21
1073.343060
0
LINE
8
plate
10
660.538540
20
1073.343060
11
660.359983
21
1072.794004
0
LINE
8
plate
10
660.359983
20
1072.794004
11
660.074490
21
1072.375680
0
LINE
8
plate
10
660.074490
20
1072.375680
11
659.329310
21
1071.971050
0
LINE
8
plate
10
659.329310
20
1071.971050
11
658.771210
21
1072.043350
0
LINE
8
plate
10
658.771210
20
1072.043350
11
658.321100
21
1072.423170
0
LINE
8
plate
10
658.321100
20
1072.423170
11
658.070470
21
1073.282040
0
LINE
8
plate
10
658.070470
20
1073.282040
11
657.545440
21
1076.954680
0
LINE
8
plate
10
657.545440
20
1076.954680
11
656.680890
21
1076.831170
0
LINE
8
plate
10
656.680890
20
1076.831170
11
656.652990
21
1077.028060
0
LINE
8
plate
10
656.652990
20
1077.028060
11
657.257600
21
1077.564460
0
LINE
8
plate
10
657.257600
20
1077.564460
11
657.765580
21
1078.398000
0
LINE
8
plate
10
657.765580
20
1078.398000
11
658.028620
21
1079.281150
0
LINE
8
plate
10
658.028620
20
1079.281150
11
658.213130
21
1079.307540
0
LINE
8
plate
10
678.002100
20
1077.865260
11
679.713437
21
1077.695941
0
LINE
8
plate
10
679.713437
20
1077.695941
11
681.343405
21
1077.200633
0
LINE
8
plate
10
681.343405
20
1077.200633
11
682.846202
21
1076.398308
0
LINE
8
plate
10
682.846202
20
1076.398308
11
684.176026
21
1075.307936
0
LINE
8
plate
10
684.176026
20
1075.307936
11
685.266398
21
1073.978112
0
LINE
8
plate
10
685.266398
20
1073.978112
11
686.068723
21
1072.475315
0
LINE
8
plate
10
686.068723
20
1072.475315
11
686.564031
21
1070.845347
0
LINE
8
plate
10
686.564031
20
1070.845347
11
686.733350
21
1069.134010
0
LINE
8
plate
10
686.733350
20
1069.134010
11
686.564031
21
1067.422673
0
LINE
8
plate
10
686.564031
20
1067.422673
11
686.068723
21
1065.792705
0
LINE
8
plate
10
686.068723
20
1065.792705
11
685.266398
21
1064.289908
0
LINE
8
plate
10
685.266398
20
1064.289908
11
684.176026
21
1062.960084
0
LINE
8
plate
10
684.176026
20
1062.960084
11
682.846202
21
1061.869712
0
LINE
8
plate
10
682.846202
20
1061.869712
11
681.343405
21
1061.067387
0
LINE
8
plate
10
681.343405
20
1061.067387
11
679.713437
21
1060.572079
0
LINE
8
plate
10
679.713437
20
1060.572079
11
678.002100
21
1060.402760
0
LINE
8
plate
10
678.002100
20
1060.402760
11
676.290763
21
1060.572079
0
LINE
8
plate
10
676.290763
20
1060.572079
11
674.660795
21
1061.067387
0
LINE
8
plate
10
674.660795
20
1061.067387
11
673.157998
21
1061.869712
0
LINE
8
plate
10
673.157998
20
1061.869712
11
671.828174
21
1062.960084
0
LINE
8
plate
10
671.828174
20
1062.960084
11
670.737802
21
1064.289908
0
LINE
8
plate
10
670.737802
20
1064.289908
11
669.935477
21
1065.792705
0
LINE
8
plate
10
669.935477
20
1065.792705
11
669.440169
21
1067.422673
0
LINE
8
plate
10
669.440169
20
1067.422673
11
669.270850
21
1069.134010
0
LINE
8
plate
10
669.270850
20
1069.134010
11
669.440169
21
1070.845347
0
LINE
8
plate
10
669.440169
20
1070.845347
11
669.935477
21
1072.475315
0
LINE
8
plate
10
669.935477
20
1072.475315
11
670.737802
21
1073.978112
0
LINE
8
plate
10
670.737802
20
1073.978112
11
671.828174
21
1075.307936
0
LINE
8
plate
10
671.828174
20
1075.307936
11
673.157998
21
1076.398308
0
LINE
8
plate
10
673.157998
20
1076.398308
11
674.660795
21
1077.200633
0
LINE
8
plate
10
674.660795
20
1077.200633
11
676.290763
21
1077.695941
0
LINE
8
plate
10
676.290763
20
1077.695941
11
678.002100
21
1077.865260
0
LINE
8
plate
10
678.002100
20
1077.865260
11
678.002100
21
1077.865260
0
LINE
8
plate
10
562.375570
20
1077.665270
11
562.867010
21
1077.588270
0
LINE
8
plate
10
562.867010
20
1077.588270
11
561.586990
21
1063.737950
0
LINE
8
plate
10
561.586990
20
1063.737950
11
561.491312
21
1063.294984
0
LINE
8
plate
10
561.491312
20
1063.294984
11
561.266641
21
1063.056201
0
LINE
8
plate
10
561.266641
20
1063.056201
11
560.458890
21
1063.039290
0
LINE
8
plate
10
560.458890
20
1063.039290
11
561.738920
21
1076.889090
0
LINE
8
plate
10
561.738920
20
1076.889090
11
561.887970
21
1077.450321
0
LINE
8
plate
10
561.887970
20
1077.450321
11
562.084534
21
1077.618457
0
LINE
8
plate
10
562.084534
20
1077.618457
11
562.375570
21
1077.665270
0
LINE
8
plate
10
562.375570
20
1077.665270
11
562.375570
21
1077.665270
0
LINE
8
plate
10
654.369440
20
1077.075640
11
654.369950
21
1077.075120
0
LINE
8
plate
10
654.369950
20
1077.075120
11
654.477960
21
1077.074120
0
LINE
8
plate
10
654.477960
20
1077.074120
11
655.087513
21
1076.957735
0
LINE
8
plate
10
655.087513
20
1076.957735
11
655.629310
21
1076.657090
0
LINE
8
plate
10
655.629310
20
1076.657090
11
656.172982
21
1076.015212
0
LINE
8
plate
10
656.172982
20
1076.015212
11
656.450960
21
1075.125400
0
LINE
8
plate
10
656.450960
20
1075.125400
11
653.300770
21
1074.674790
0
LINE
8
plate
10
653.300770
20
1074.674790
11
653.242870
21
1075.019470
0
LINE
8
plate
10
653.242870
20
1075.019470
11
655.155420
21
1075.292840
0
LINE
8
plate
10
655.155420
20
1075.292840
11
654.924420
21
1076.014760
0
LINE
8
plate
10
654.924420
20
1076.014760
11
654.402490
21
1076.475190
0
LINE
8
plate
10
654.402490
20
1076.475190
11
653.921900
21
1076.588880
0
LINE
8
plate
10
653.921900
20
1076.588880
11
653.761190
21
1076.577980
0
LINE
8
plate
10
653.761190
20
1076.577980
11
653.305472
21
1076.413896
0
LINE
8
plate
10
653.305472
20
1076.413896
11
652.928160
21
1076.063280
0
LINE
8
plate
10
652.928160
20
1076.063280
11
652.689670
21
1075.572625
0
LINE
8
plate
10
652.689670
20
1075.572625
11
652.626890
21
1074.957920
0
LINE
8
plate
10
652.626890
20
1074.957920
11
652.689390
21
1074.499550
0
LINE
8
plate
10
652.689390
20
1074.499550
11
652.991729
21
1073.488921
0
LINE
8
plate
10
652.991729
20
1073.488921
11
653.538950
21
1072.762190
0
LINE
8
plate
10
653.538950
20
1072.762190
11
654.261591
21
1072.336095
0
LINE
8
plate
10
654.261591
20
1072.336095
11
655.039110
21
1072.270750
0
LINE
8
plate
10
655.039110
20
1072.270750
11
655.529492
21
1072.415487
0
LINE
8
plate
10
655.529492
20
1072.415487
11
655.927430
21
1072.696050
0
LINE
8
plate
10
655.927430
20
1072.696050
11
656.236634
21
1073.150879
0
LINE
8
plate
10
656.236634
20
1073.150879
11
656.450400
21
1073.805020
0
LINE
8
plate
10
656.450400
20
1073.805020
11
656.652450
21
1073.712520
0
LINE
8
plate
10
656.652450
20
1073.712520
11
656.519571
21
1072.896435
0
LINE
8
plate
10
656.519571
20
1072.896435
11
656.138270
21
1072.117790
0
LINE
8
plate
10
656.138270
20
1072.117790
11
655.531491
21
1071.519876
0
LINE
8
plate
10
655.531491
20
1071.519876
11
654.724920
21
1071.234120
0
LINE
8
plate
10
654.724920
20
1071.234120
11
653.784020
21
1071.294261
0
LINE
8
plate
10
653.784020
20
1071.294261
11
652.928650
21
1071.756050
0
LINE
8
plate
10
652.928650
20
1071.756050
11
652.276655
21
1072.581525
0
LINE
8
plate
10
652.276655
20
1072.581525
11
651.935940
21
1073.719240
0
LINE
8
plate
10
651.935940
20
1073.719240
11
651.936427
21
1074.990989
0
LINE
8
plate
10
651.936427
20
1074.990989
11
652.339020
21
1076.003860
0
LINE
8
plate
10
652.339020
20
1076.003860
11
653.067177
21
1076.710323
0
LINE
8
plate
10
653.067177
20
1076.710323
11
654.033490
21
1077.049270
0
LINE
8
plate
10
654.033490
20
1077.049270
11
654.369390
21
1077.075670
0
LINE
8
plate
10
654.369390
20
1077.075670
11
654.369440
21
1077.075640
0
LINE
8
plate
10
648.440080
20
1076.211610
11
648.440600
21
1076.211610
0
LINE
8
plate
10
648.440600
20
1076.211610
11
649.346110
21
1076.037436
0
LINE
8
plate
10
649.346110
20
1076.037436
11
650.132490
21
1075.523280
0
LINE
8
plate
10
650.132490
20
1075.523280
11
650.734596
21
1074.727220
0
LINE
8
plate
10
650.734596
20
1074.727220
11
651.034760
21
1073.766280
0
LINE
8
plate
10
651.034760
20
1073.766280
11
651.052306
21
1073.015676
0
LINE
8
plate
10
651.052306
20
1073.015676
11
650.895230
21
1072.230970
0
LINE
8
plate
10
650.895230
20
1072.230970
11
650.570644
21
1071.512273
0
LINE
8
plate
10
650.570644
20
1071.512273
11
650.085460
21
1070.959220
0
LINE
8
plate
10
650.085460
20
1070.959220
11
649.672570
21
1070.677580
0
LINE
8
plate
10
649.672570
20
1070.677580
11
649.513400
21
1071.064120
0
LINE
8
plate
10
649.513400
20
1071.064120
11
649.850330
21
1071.454790
0
LINE
8
plate
10
649.850330
20
1071.454790
11
650.039314
21
1072.143523
0
LINE
8
plate
10
650.039314
20
1072.143523
11
649.991410
21
1073.148230
0
LINE
8
plate
10
649.991410
20
1073.148230
11
649.648779
21
1074.425836
0
LINE
8
plate
10
649.648779
20
1074.425836
11
649.037460
21
1075.348610
0
LINE
8
plate
10
649.037460
20
1075.348610
11
648.580254
21
1075.673935
0
LINE
8
plate
10
648.580254
20
1075.673935
11
648.068530
21
1075.780110
0
LINE
8
plate
10
648.068530
20
1075.780110
11
647.973430
21
1075.974930
0
LINE
8
plate
10
647.973430
20
1075.974930
11
647.893830
21
1076.157350
0
LINE
8
plate
10
647.893830
20
1076.157350
11
647.893320
21
1076.160350
0
LINE
8
plate
10
647.893320
20
1076.160350
11
648.006490
21
1076.180550
0
LINE
8
plate
10
648.006490
20
1076.180550
11
648.310860
21
1076.208950
0
LINE
8
plate
10
648.310860
20
1076.208950
11
648.440050
21
1076.211950
0
LINE
8
plate
10
648.440050
20
1076.211950
11
648.440080
21
1076.211610
0
LINE
8
plate
10
647.171940
20
1075.904650
11
647.172460
21
1075.904650
0
LINE
8
plate
10
647.172460
20
1075.904650
11
647.209660
21
1075.785280
0
LINE
8
plate
10
647.209660
20
1075.785280
11
647.284060
21
1075.559970
0
LINE
8
plate
10
647.284060
20
1075.559970
11
647.301660
21
1075.511370
0
LINE
8
plate
10
647.301660
20
1075.511370
11
647.266560
21
1075.484470
0
LINE
8
plate
10
647.266560
20
1075.484470
11
646.847470
21
1074.755310
0
LINE
8
plate
10
646.847470
20
1074.755310
11
646.823670
21
1073.516630
0
LINE
8
plate
10
646.823670
20
1073.516630
11
647.100296
21
1072.423033
0
LINE
8
plate
10
647.100296
20
1072.423033
11
647.589000
21
1071.527090
0
LINE
8
plate
10
647.589000
20
1071.527090
11
648.195511
21
1070.977226
0
LINE
8
plate
10
648.195511
20
1070.977226
11
648.879880
21
1070.832040
0
LINE
8
plate
10
648.879880
20
1070.832040
11
648.947080
21
1070.667190
0
LINE
8
plate
10
648.947080
20
1070.667190
11
649.046280
21
1070.436200
0
LINE
8
plate
10
649.046280
20
1070.436200
11
648.769290
21
1070.381400
0
LINE
8
plate
10
648.769290
20
1070.381400
11
647.626416
21
1070.468976
0
LINE
8
plate
10
647.626416
20
1070.468976
11
646.666580
21
1071.084710
0
LINE
8
plate
10
646.666580
20
1071.084710
11
646.080294
21
1071.898324
0
LINE
8
plate
10
646.080294
20
1071.898324
11
645.786530
21
1072.857220
0
LINE
8
plate
10
645.786530
20
1072.857220
11
645.771977
21
1073.618768
0
LINE
8
plate
10
645.771977
20
1073.618768
11
645.943110
21
1074.400790
0
LINE
8
plate
10
645.943110
20
1074.400790
11
646.284314
21
1075.109682
0
LINE
8
plate
10
646.284314
20
1075.109682
11
646.769930
21
1075.638440
0
LINE
8
plate
10
646.769930
20
1075.638440
11
647.171970
21
1075.904580
0
LINE
8
plate
10
647.171970
20
1075.904580
11
647.171940
21
1075.904650
0
LINE
8
plate
10
154.012900
20
1075.598210
11
155.292644
21
1075.469200
0
LINE
8
plate
10
155.292644
20
1075.469200
11
156.484603
21
1075.099194
0
LINE
8
plate
10
156.484603
20
1075.099194
11
157.563242
21
1074.513728
0
LINE
8
plate
10
157.563242
20
1074.513728
11
158.503025
21
1073.738335
0
LINE
8
plate
10
158.503025
20
1073.738335
11
159.278418
21
1072.798552
0
LINE
8
plate
10
159.278418
20
1072.798552
11
159.863884
21
1071.719913
0
LINE
8
plate
10
159.863884
20
1071.719913
11
160.233890
21
1070.527954
0
LINE
8
plate
10
160.233890
20
1070.527954
11
160.362900
21
1069.248210
0
LINE
8
plate
10
160.362900
20
1069.248210
11
160.233890
21
1067.968466
0
LINE
8
plate
10
160.233890
20
1067.968466
11
159.863884
21
1066.776507
0
LINE
8
plate
10
159.863884
20
1066.776507
11
159.278418
21
1065.697868
0
LINE
8
plate
10
159.278418
20
1065.697868
11
158.503025
21
1064.758085
0
LINE
8
plate
10
158.503025
20
1064.758085
11
157.563242
21
1063.982692
0
LINE
8
plate
10
157.563242
20
1063.982692
11
156.484603
21
1063.397226
0
LINE
8
plate
10
156.484603
20
1063.397226
11
155.292644
21
1063.027220
0
LINE
8
plate
10
155.292644
20
1063.027220
11
154.012900
21
1062.898210
0
LINE
8
plate
10
154.012900
20
1062.898210
11
152.733156
21
1063.027220
0
LINE
8
plate
10
152.733156
20
1063.027220
11
151.541197
21
1063.397226
0
LINE
8
plate
10
151.541197
20
1063.397226
11
150.462558
21
1063.982692
0
LINE
8
plate
10
150.462558
20
1063.982692
11
149.522775
21
1064.758085
0
LINE
8
plate
10
149.522775
20
1064.758085
11
148.747382
21
1065.697868
0
LINE
8
plate
10
148.747382
20
1065.697868
11
148.161916
21
1066.776507
0
LINE
8
plate
10
148.161916
20
1066.776507
11
147.791910
21
1067.968466
0
LINE
8
plate
10
147.791910
20
1067.968466
11
147.662900
21
1069.248210
0
LINE
8
plate
10
147.662900
20
1069.248210
11
147.791910
21
1070.527954
0
LINE
8
plate
10
147.791910
20
1070.527954
11
148.161916
21
1071.719913
0
LINE
8
plate
10
148.161916
20
1071.719913
11
148.747382
21
1072.798552
0
LINE
8
plate
10
148.747382
20
1072.798552
11
149.522775
21
1073.738335
0
LINE
8
plate
10
149.522775
20
1073.738335
11
150.462558
21
1074.513728
0
LINE
8
plate
10
150.462558
20
1074.513728
11
151.541197
21
1075.099194
0
LINE
8
plate
10
151.541197
20
1075.099194
11
152.733156
21
1075.469200
0
LINE
8
plate
10
152.733156
20
1075.469200
11
154.012900
21
1075.598210
0
LINE
8
plate
10
154.012900
20
1075.598210
11
154.012900
21
1075.598210
0
LINE
8
plate
10
176.237900
20
1075.598210
11
177.517644
21
1075.469200
0
LINE
8
plate
10
177.517644
20
1075.469200
11
178.709603
21
1075.099194
0
LINE
8
plate
10
178.709603
20
1075.099194
11
179.788242
21
1074.513728
0
LINE
8
plate
10
179.788242
20
1074.513728
11
180.728025
21
1073.738335
0
LINE
8
plate
10
180.728025
20
1073.738335
11
181.503418
21
1072.798552
0
LINE
8
plate
10
181.503418
20
1072.798552
11
182.088884
21
1071.719913
0
LINE
8
plate
10
182.088884
20
1071.719913
11
182.458890
21
1070.527954
0
LINE
8
plate
10
182.458890
20
1070.527954
11
182.587900
21
1069.248210
0
LINE
8
plate
10
182.587900
20
1069.248210
11
182.458890
21
1067.968466
0
LINE
8
plate
10
182.458890
20
1067.968466
11
182.088884
21
1066.776507
0
LINE
8
plate
10
182.088884
20
1066.776507
11
181.503418
21
1065.697868
0
LINE
8
plate
10
181.503418
20
1065.697868
11
180.728025
21
1064.758085
0
LINE
8
plate
10
180.728025
20
1064.758085
11
179.788242
21
1063.982692
0
LINE
8
plate
10
179.788242
20
1063.982692
11
178.709603
21
1063.397226
0
LINE
8
plate
10
178.709603
20
1063.397226
11
177.517644
21
1063.027220
0
LINE
8
plate
10
177.517644
20
1063.027220
11
176.237900
21
1062.898210
0
LINE
8
plate
10
176.237900
20
1062.898210
11
174.958156
21
1063.027220
0
LINE
8
plate
10
174.958156
20
1063.027220
11
173.766197
21
1063.397226
0
LINE
8
plate
10
173.766197
20
1063.397226
11
172.687558
21
1063.982692
0
LINE
8
plate
10
172.687558
20
1063.982692
11
171.747775
21
1064.758085
0
LINE
8
plate
10
171.747775
20
1064.758085
11
170.972382
21
1065.697868
0
LINE
8
plate
10
170.972382
20
1065.697868
11
170.386916
21
1066.776507
0
LINE
8
plate
10
170.386916
20
1066.776507
11
170.016910
21
1067.968466
0
LINE
8
plate
10
170.016910
20
1067.968466
11
169.887900
21
1069.248210
0
LINE
8
plate
10
169.887900
20
1069.248210
11
170.016910
21
1070.527954
0
LINE
8
plate
10
170.016910
20
1070.527954
11
170.386916
21
1071.719913
0
LINE
8
plate
10
170.386916
20
1071.719913
11
170.972382
21
1072.798552
0
LINE
8
plate
10
170.972382
20
1072.798552
11
171.747775
21
1073.738335
0
LINE
8
plate
10
171.747775
20
1073.738335
11
172.687558
21
1074.513728
0
LINE
8
plate
10
172.687558
20
1074.513728
11
173.766197
21
1075.099194
0
LINE
8
plate
10
173.766197
20
1075.099194
11
174.958156
21
1075.469200
0
LINE
8
plate
10
174.958156
20
1075.469200
11
176.237900
21
1075.598210
0
LINE
8
plate
10
176.237900
20
1075.598210
11
176.237900
21
1075.598210
0
LINE
8
plate
10
315.937900
20
1075.598210
11
317.217647
21
1075.469200
0
LINE
8
plate
10
317.217647
20
1075.469200
11
318.409607
21
1075.099194
0
LINE
8
plate
10
318.409607
20
1075.099194
11
319.488246
21
1074.513728
0
LINE
8
plate
10
319.488246
20
1074.513728
11
320.428029
21
1073.738335
0
LINE
8
plate
10
320.428029
20
1073.738335
11
321.203420
21
1072.798552
0
LINE
8
plate
10
321.203420
20
1072.798552
11
321.788886
21
1071.719913
0
LINE
8
plate
10
321.788886
20
1071.719913
11
322.158891
21
1070.527954
0
LINE
8
plate
10
322.158891
20
1070.527954
11
322.287900
21
1069.248210
0
LINE
8
plate
10
322.287900
20
1069.248210
11
322.158891
21
1067.968466
0
LINE
8
plate
10
322.158891
20
1067.968466
11
321.788886
21
1066.776507
0
LINE
8
plate
10
321.788886
20
1066.776507
11
321.203420
21
1065.697868
0
LINE
8
plate
10
321.203420
20
1065.697868
11
320.428029
21
1064.758085
0
LINE
8
plate
10
320.428029
20
1064.758085
11
319.488246
21
1063.982692
0
LINE
8
plate
10
319.488246
20
1063.982692
11
318.409607
21
1063.397226
0
LINE
8
plate
10
318.409607
20
1063.397226
11
317.217647
21
1063.027220
0
LINE
8
plate
10
317.217647
20
1063.027220
11
315.937900
21
1062.898210
0
LINE
8
plate
10
315.937900
20
1062.898210
11
314.658153
21
1063.027220
0
LINE
8
plate
10
314.658153
20
1063.027220
11
313.466193
21
1063.397226
0
LINE
8
plate
10
313.466193
20
1063.397226
11
312.387554
21
1063.982692
0
LINE
8
plate
10
312.387554
20
1063.982692
11
311.447771
21
1064.758085
0
LINE
8
plate
10
311.447771
20
1064.758085
11
310.672380
21
1065.697868
0
LINE
8
plate
10
310.672380
20
1065.697868
11
310.086914
21
1066.776507
0
LINE
8
plate
10
310.086914
20
1066.776507
11
309.716909
21
1067.968466
0
LINE
8
plate
10
309.716909
20
1067.968466
11
309.587900
21
1069.248210
0
LINE
8
plate
10
309.587900
20
1069.248210
11
309.716909
21
1070.527954
0
LINE
8
plate
10
309.716909
20
1070.527954
11
310.086914
21
1071.719913
0
LINE
8
plate
10
310.086914
20
1071.719913
11
310.672380
21
1072.798552
0
LINE
8
plate
10
310.672380
20
1072.798552
11
311.447771
21
1073.738335
0
LINE
8
plate
10
311.447771
20
1073.738335
11
312.387554
21
1074.513728
0
LINE
8
plate
10
312.387554
20
1074.513728
11
313.466193
21
1075.099194
0
LINE
8
plate
10
313.466193
20
1075.099194
11
314.658153
21
1075.469200
0
LINE
8
plate
10
314.658153
20
1075.469200
11
315.937900
21
1075.598210
0
LINE
8
plate
10
315.937900
20
1075.598210
11
315.937900
21
1075.598210
0
LINE
8
plate
10
338.162900
20
1075.598210
11
339.442647
21
1075.469200
0
LINE
8
plate
10
339.442647
20
1075.469200
11
340.634607
21
1075.099194
0
LINE
8
plate
10
340.634607
20
1075.099194
11
341.713246
21
1074.513728
0
LINE
8
plate
10
341.713246
20
1074.513728
11
342.653029
21
1073.738335
0
LINE
8
plate
10
342.653029
20
1073.738335
11
343.428420
21
1072.798552
0
LINE
8
plate
10
343.428420
20
1072.798552
11
344.013886
21
1071.719913
0
LINE
8
plate
10
344.013886
20
1071.719913
11
344.383891
21
1070.527954
0
LINE
8
plate
10
344.383891
20
1070.527954
11
344.512900
21
1069.248210
0
LINE
8
plate
10
344.512900
20
1069.248210
11
344.383891
21
1067.968466
0
LINE
8
plate
10
344.383891
20
1067.968466
11
344.013886
21
1066.776507
0
LINE
8
plate
10
344.013886
20
1066.776507
11
343.428420
21
1065.697868
0
LINE
8
plate
10
343.428420
20
1065.697868
11
342.653029
21
1064.758085
0
LINE
8
plate
10
342.653029
20
1064.758085
11
341.713246
21
1063.982692
0
LINE
8
plate
10
341.713246
20
1063.982692
11
340.634607
21
1063.397226
0
LINE
8
plate
10
340.634607
20
1063.397226
11
339.442647
21
1063.027220
0
LINE
8
plate
10
339.442647
20
1063.027220
11
338.162900
21
1062.898210
0
LINE
8
plate
10
338.162900
20
1062.898210
11
336.883153
21
1063.027220
0
LINE
8
plate
10
336.883153
20
1063.027220
11
335.691193
21
1063.397226
0
LINE
8
plate
10
335.691193
20
1063.397226
11
334.612554
21
1063.982692
0
LINE
8
plate
10
334.612554
20
1063.982692
11
333.672771
21
1064.758085
0
LINE
8
plate
10
333.672771
20
1064.758085
11
332.897380
21
1065.697868
0
LINE
8
plate
10
332.897380
20
1065.697868
11
332.311914
21
1066.776507
0
LINE
8
plate
10
332.311914
20
1066.776507
11
331.941909
21
1067.968466
0
LINE
8
plate
10
331.941909
20
1067.968466
11
331.812900
21
1069.248210
0
LINE
8
plate
10
331.812900
20
1069.248210
11
331.941909
21
1070.527954
0
LINE
8
plate
10
331.941909
20
1070.527954
11
332.311914
21
1071.719913
0
LINE
8
plate
10
332.311914
20
1071.719913
11
332.897380
21
1072.798552
0
LINE
8
plate
10
332.897380
20
1072.798552
11
333.672771
21
1073.738335
0
LINE
8
plate
10
333.672771
20
1073.738335
11
334.612554
21
1074.513728
0
LINE
8
plate
10
334.612554
20
1074.513728
11
335.691193
21
1075.099194
0
LINE
8
plate
10
335.691193
20
1075.099194
11
336.883153
21
1075.469200
0
LINE
8
plate
10
336.883153
20
1075.469200
11
338.162900
21
1075.598210
0
LINE
8
plate
10
338.162900
20
1075.598210
11
338.162900
21
1075.598210
0
LINE
8
plate
10
642.693150
20
1075.410620
11
642.693660
21
1075.410620
0
LINE
8
plate
10
642.693660
20
1075.410620
11
642.694180
21
1075.410620
0
LINE
8
plate
10
642.694180
20
1075.410620
11
643.358952
21
1075.307970
0
LINE
8
plate
10
643.358952
20
1075.307970
11
643.954050
21
1074.943990
0
LINE
8
plate
10
643.954050
20
1074.943990
11
644.589129
21
1074.109870
0
LINE
8
plate
10
644.589129
20
1074.109870
11
644.921440
21
1072.989070
0
LINE
8
plate
10
644.921440
20
1072.989070
11
644.903157
21
1071.669294
0
LINE
8
plate
10
644.903157
20
1071.669294
11
644.444460
21
1070.535990
0
LINE
8
plate
10
644.444460
20
1070.535990
11
643.771472
21
1069.860111
0
LINE
8
plate
10
643.771472
20
1069.860111
11
642.871430
21
1069.538120
0
LINE
8
plate
10
642.871430
20
1069.538120
11
642.386190
21
1069.515420
0
LINE
8
plate
10
642.386190
20
1069.515420
11
642.388190
21
1069.616700
0
LINE
8
plate
10
642.388190
20
1069.616700
11
642.381190
21
1069.889040
0
LINE
8
plate
10
642.381190
20
1069.889040
11
642.802870
21
1069.893040
0
LINE
8
plate
10
642.802870
20
1069.893040
11
643.325730
21
1070.086676
0
LINE
8
plate
10
643.325730
20
1070.086676
11
643.702040
21
1070.496620
0
LINE
8
plate
10
643.702040
20
1070.496620
11
643.959609
21
1071.280290
0
LINE
8
plate
10
643.959609
20
1071.280290
11
643.940270
21
1072.276870
0
LINE
8
plate
10
643.940270
20
1072.276870
11
643.644599
21
1073.364794
0
LINE
8
plate
10
643.644599
20
1073.364794
11
643.116030
21
1074.124300
0
LINE
8
plate
10
643.116030
20
1074.124300
11
642.648903
21
1074.413374
0
LINE
8
plate
10
642.648903
20
1074.413374
11
642.143480
21
1074.459680
0
LINE
8
plate
10
642.143480
20
1074.459680
11
641.597260
21
1074.235410
0
LINE
8
plate
10
641.597260
20
1074.235410
11
641.572460
21
1074.213710
0
LINE
8
plate
10
641.572460
20
1074.213710
11
641.558460
21
1074.263810
0
LINE
8
plate
10
641.558460
20
1074.263810
11
641.500060
21
1074.473610
0
LINE
8
plate
10
641.500060
20
1074.473610
11
641.439060
21
1074.658610
0
LINE
8
plate
10
641.439060
20
1074.658610
11
641.411160
21
1074.722710
0
LINE
8
plate
10
641.411160
20
1074.722710
11
641.632340
21
1074.970760
0
LINE
8
plate
10
641.632340
20
1074.970760
11
642.490690
21
1075.391410
0
LINE
8
plate
10
642.490690
20
1075.391410
11
642.693260
21
1075.410510
0
LINE
8
plate
10
642.693260
20
1075.410510
11
642.693150
21
1075.410620
0
LINE
8
plate
10
640.748050
20
1075.118140
11
641.008500
21
1073.291370
0
LINE
8
plate
10
641.008500
20
1073.291370
11
641.271530
21
1071.451180
0
LINE
8
plate
10
641.271530
20
1071.451180
11
641.599160
21
1069.166560
0
LINE
8
plate
10
641.599160
20
1069.166560
11
641.741780
21
1068.171270
0
LINE
8
plate
10
641.741780
20
1068.171270
11
641.908700
21
1067.471570
0
LINE
8
plate
10
641.908700
20
1067.471570
11
642.182070
21
1067.261250
0
LINE
8
plate
10
642.182070
20
1067.261250
11
642.815100
21
1067.260250
0
LINE
8
plate
10
642.815100
20
1067.260250
11
642.846600
21
1067.039590
0
LINE
8
plate
10
642.846600
20
1067.039590
11
639.984760
21
1066.630320
0
LINE
8
plate
10
639.984760
20
1066.630320
11
639.953260
21
1066.850970
0
LINE
8
plate
10
639.953260
20
1066.850970
11
640.102090
21
1066.872170
0
LINE
8
plate
10
640.102090
20
1066.872170
11
640.644690
21
1067.077850
0
LINE
8
plate
10
640.644690
20
1067.077850
11
640.786800
21
1067.317110
0
LINE
8
plate
10
640.786800
20
1067.317110
11
640.747000
21
1068.065900
0
LINE
8
plate
10
640.747000
20
1068.065900
11
640.008030
21
1073.229410
0
LINE
8
plate
10
640.008030
20
1073.229410
11
639.863850
21
1073.896030
0
LINE
8
plate
10
639.863850
20
1073.896030
11
639.678330
21
1074.088790
0
LINE
8
plate
10
639.678330
20
1074.088790
11
639.387910
21
1074.120290
0
LINE
8
plate
10
639.387910
20
1074.120290
11
639.036000
21
1073.984890
0
LINE
8
plate
10
639.036000
20
1073.984890
11
638.937300
21
1074.165240
0
LINE
8
plate
10
638.937300
20
1074.165240
11
640.521700
21
1075.085600
0
LINE
8
plate
10
640.521700
20
1075.085600
11
640.748050
21
1075.118140
0
LINE
8
plate
10
631.100060
20
1074.352290
11
631.598354
21
1074.253957
0
LINE
8
plate
10
631.598354
20
1074.253957
11
631.850041
21
1074.043885
0
LINE
8
plate
10
631.850041
20
1074.043885
11
631.900010
21
1073.294990
0
LINE
8
plate
10
631.900010
20
1073.294990
11
594.409270
21
1073.235590
0
LINE
8
plate
10
594.409270
20
1073.235590
11
593.994745
21
1073.296857
0
LINE
8
plate
10
593.994745
20
1073.296857
11
593.732207
21
1073.497202
0
LINE
8
plate
10
593.732207
20
1073.497202
11
593.609320
21
1074.292890
0
LINE
8
plate
10
593.609320
20
1074.292890
11
631.100060
21
1074.352290
0
LINE
8
plate
10
207.987900
20
1074.010710
11
208.947708
21
1073.913953
0
LINE
8
plate
10
208.947708
20
1073.913953
11
209.841677
21
1073.636448
0
LINE
8
plate
10
209.841677
20
1073.636448
11
210.650656
21
1073.197348
0
LINE
8
plate
10
210.650656
20
1073.197348
11
211.355494
21
1072.615804
0
LINE
8
plate
10
211.355494
20
1072.615804
11
211.937038
21
1071.910966
0
LINE
8
plate
10
211.937038
20
1071.910966
11
212.376138
21
1071.101987
0
LINE
8
plate
10
212.376138
20
1071.101987
11
212.653643
21
1070.208018
0
LINE
8
plate
10
212.653643
20
1070.208018
11
212.750400
21
1069.248210
0
LINE
8
plate
10
212.750400
20
1069.248210
11
212.653643
21
1068.288402
0
LINE
8
plate
10
212.653643
20
1068.288402
11
212.376138
21
1067.394433
0
LINE
8
plate
10
212.376138
20
1067.394433
11
211.937038
21
1066.585454
0
LINE
8
plate
10
211.937038
20
1066.585454
11
211.355494
21
1065.880616
0
LINE
8
plate
10
211.355494
20
1065.880616
11
210.650656
21
1065.299072
0
LINE
8
plate
10
210.650656
20
1065.299072
11
209.841677
21
1064.859972
0
LINE
8
plate
10
209.841677
20
1064.859972
11
208.947708
21
1064.582467
0
LINE
8
plate
10
208.947708
20
1064.582467
11
207.987900
21
1064.485710
0
LINE
8
plate
10
207.987900
20
1064.485710
11
207.028092
21
1064.582467
0
LINE
8
plate
10
207.028092
20
1064.582467
11
206.134123
21
1064.859972
0
LINE
8
plate
10
206.134123
20
1064.859972
11
205.325144
21
1065.299072
0
LINE
8
plate
10
205.325144
20
1065.299072
11
204.620306
21
1065.880616
0
LINE
8
plate
10
204.620306
20
1065.880616
11
204.038762
21
1066.585454
0
LINE
8
plate
10
204.038762
20
1066.585454
11
203.599662
21
1067.394433
0
LINE
8
plate
10
203.599662
20
1067.394433
11
203.322157
21
1068.288402
0
LINE
8
plate
10
203.322157
20
1068.288402
11
203.225400
21
1069.248210
0
LINE
8
plate
10
203.225400
20
1069.248210
11
203.322157
21
1070.208018
0
LINE
8
plate
10
203.322157
20
1070.208018
11
203.599662
21
1071.101987
0
LINE
8
plate
10
203.599662
20
1071.101987
11
204.038762
21
1071.910966
0
LINE
8
plate
10
204.038762
20
1071.910966
11
204.620306
21
1072.615804
0
LINE
8
plate
10
204.620306
20
1072.615804
11
205.325144
21
1073.197348
0
LINE
8
plate
10
205.325144
20
1073.197348
11
206.134123
21
1073.636448
0
LINE
8
plate
10
206.134123
20
1073.636448
11
207.028092
21
1073.913953
0
LINE
8
plate
10
207.028092
20
1073.913953
11
207.987900
21
1074.010710
0
LINE
8
plate
10
207.987900
20
1074.010710
11
207.987900
21
1074.010710
0
LINE
8
plate
10
242.912900
20
1074.010710
11
243.872711
21
1073.913953
0
LINE
8
plate
10
243.872711
20
1073.913953
11
244.766682
21
1073.636448
0
LINE
8
plate
10
244.766682
20
1073.636448
11
245.575661
21
1073.197348
0
LINE
8
plate
10
245.575661
20
1073.197348
11
246.280497
21
1072.615804
0
LINE
8
plate
10
246.280497
20
1072.615804
11
246.862041
21
1071.910966
0
LINE
8
plate
10
246.862041
20
1071.910966
11
247.301140
21
1071.101987
0
LINE
8
plate
10
247.301140
20
1071.101987
11
247.578643
21
1070.208018
0
LINE
8
plate
10
247.578643
20
1070.208018
11
247.675400
21
1069.248210
0
LINE
8
plate
10
247.675400
20
1069.248210
11
247.578643
21
1068.288402
0
LINE
8
plate
10
247.578643
20
1068.288402
11
247.301140
21
1067.394433
0
LINE
8
plate
10
247.301140
20
1067.394433
11
246.862041
21
1066.585454
0
LINE
8
plate
10
246.862041
20
1066.585454
11
246.280497
21
1065.880616
0
LINE
8
plate
10
246.280497
20
1065.880616
11
245.575661
21
1065.299072
0
LINE
8
plate
10
245.575661
20
1065.299072
11
244.766682
21
1064.859972
0
LINE
8
plate
10
244.766682
20
1064.859972
11
243.872711
21
1064.582467
0
LINE
8
plate
10
243.872711
20
1064.582467
11
242.912900
21
1064.485710
0
LINE
8
plate
10
242.912900
20
1064.485710
11
241.953089
21
1064.582467
0
LINE
8
plate
10
241.953089
20
1064.582467
11
241.059118
21
1064.859972
0
LINE
8
plate
10
241.059118
20
1064.859972
11
240.250139
21
1065.299072
0
LINE
8
plate
10
240.250139
20
1065.299072
11
239.545302
21
1065.880616
0
LINE
8
plate
10
239.545302
20
1065.880616
11
238.963759
21
1066.585454
0
LINE
8
plate
10
238.963759
20
1066.585454
11
238.524660
21
1067.394433
0
LINE
8
plate
10
238.524660
20
1067.394433
11
238.247157
21
1068.288402
0
LINE
8
plate
10
238.247157
20
1068.288402
11
238.150400
21
1069.248210
0
LINE
8
plate
10
238.150400
20
1069.248210
11
238.247157
21
1070.208018
0
LINE
8
plate
10
238.247157
20
1070.208018
11
238.524660
21
1071.101987
0
LINE
8
plate
10
238.524660
20
1071.101987
11
238.963759
21
1071.910966
0
LINE
8
plate
10
238.963759
20
1071.910966
11
239.545302
21
1072.615804
0
LINE
8
plate
10
239.545302
20
1072.615804
11
240.250139
21
1073.197348
0
LINE
8
plate
10
240.250139
20
1073.197348
11
241.059118
21
1073.636448
0
LINE
8
plate
10
241.059118
20
1073.636448
11
241.953089
21
1073.913953
0
LINE
8
plate
10
241.953089
20
1073.913953
11
242.912900
21
1074.010710
0
LINE
8
plate
10
242.912900
20
1074.010710
11
242.912900
21
1074.010710
0
LINE
8
plate
10
277.837900
20
1074.010710
11
278.797711
21
1073.913953
0
LINE
8
plate
10
278.797711
20
1073.913953
11
279.691682
21
1073.636448
0
LINE
8
plate
10
279.691682
20
1073.636448
11
280.500661
21
1073.197348
0
LINE
8
plate
10
280.500661
20
1073.197348
11
281.205497
21
1072.615804
0
LINE
8
plate
10
281.205497
20
1072.615804
11
281.787041
21
1071.910966
0
LINE
8
plate
10
281.787041
20
1071.910966
11
282.226140
21
1071.101987
0
LINE
8
plate
10
282.226140
20
1071.101987
11
282.503643
21
1070.208018
0
LINE
8
plate
10
282.503643
20
1070.208018
11
282.600400
21
1069.248210
0
LINE
8
plate
10
282.600400
20
1069.248210
11
282.503643
21
1068.288402
0
LINE
8
plate
10
282.503643
20
1068.288402
11
282.226140
21
1067.394433
0
LINE
8
plate
10
282.226140
20
1067.394433
11
281.787041
21
1066.585454
0
LINE
8
plate
10
281.787041
20
1066.585454
11
281.205497
21
1065.880616
0
LINE
8
plate
10
281.205497
20
1065.880616
11
280.500661
21
1065.299072
0
LINE
8
plate
10
280.500661
20
1065.299072
11
279.691682
21
1064.859972
0
LINE
8
plate
10
279.691682
20
1064.859972
11
278.797711
21
1064.582467
0
LINE
8
plate
10
278.797711
20
1064.582467
11
277.837900
21
1064.485710
0
LINE
8
plate
10
277.837900
20
1064.485710
11
276.878089
21
1064.582467
0
LINE
8
plate
10
276.878089
20
1064.582467
11
275.984118
21
1064.859972
0
LINE
8
plate
10
275.984118
20
1064.859972
11
275.175139
21
1065.299072
0
LINE
8
plate
10
275.175139
20
1065.299072
11
274.470302
21
1065.880616
0
LINE
8
plate
10
274.470302
20
1065.880616
11
273.888759
21
1066.585454
0
LINE
8
plate
10
273.888759
20
1066.585454
11
273.449660
21
1067.394433
0
LINE
8
plate
10
273.449660
20
1067.394433
11
273.172157
21
1068.288402
0
LINE
8
plate
10
273.172157
20
1068.288402
11
273.075400
21
1069.248210
0
LINE
8
plate
10
273.075400
20
1069.248210
11
273.172157
21
1070.208018
0
LINE
8
plate
10
273.172157
20
1070.208018
11
273.449660
21
1071.101987
0
LINE
8
plate
10
273.449660
20
1071.101987
11
273.888759
21
1071.910966
0
LINE
8
plate
10
273.888759
20
1071.910966
11
274.470302
21
1072.615804
0
LINE
8
plate
10
274.470302
20
1072.615804
11
275.175139
21
1073.197348
0
LINE
8
plate
10
275.175139
20
1073.197348
11
275.984118
21
1073.636448
0
LINE
8
plate
10
275.984118
20
1073.636448
11
276.878089
21
1073.913953
0
LINE
8
plate
10
276.878089
20
1073.913953
11
277.837900
21
1074.010710
0
LINE
8
plate
10
277.837900
20
1074.010710
11
277.837900
21
1074.010710
0
LINE
8
plate
10
369.912900
20
1074.010710
11
370.872711
21
1073.913953
0
LINE
8
plate
10
370.872711
20
1073.913953
11
371.766682
21
1073.636448
0
LINE
8
plate
10
371.766682
20
1073.636448
11
372.575661
21
1073.197348
0
LINE
8
plate
10
372.575661
20
1073.197348
11
373.280497
21
1072.615804
0
LINE
8
plate
10
373.280497
20
1072.615804
11
373.862041
21
1071.910966
0
LINE
8
plate
10
373.862041
20
1071.910966
11
374.301140
21
1071.101987
0
LINE
8
plate
10
374.301140
20
1071.101987
11
374.578643
21
1070.208018
0
LINE
8
plate
10
374.578643
20
1070.208018
11
374.675400
21
1069.248210
0
LINE
8
plate
10
374.675400
20
1069.248210
11
374.578643
21
1068.288402
0
LINE
8
plate
10
374.578643
20
1068.288402
11
374.301140
21
1067.394433
0
LINE
8
plate
10
374.301140
20
1067.394433
11
373.862041
21
1066.585454
0
LINE
8
plate
10
373.862041
20
1066.585454
11
373.280497
21
1065.880616
0
LINE
8
plate
10
373.280497
20
1065.880616
11
372.575661
21
1065.299072
0
LINE
8
plate
10
372.575661
20
1065.299072
11
371.766682
21
1064.859972
0
LINE
8
plate
10
371.766682
20
1064.859972
11
370.872711
21
1064.582467
0
LINE
8
plate
10
370.872711
20
1064.582467
11
369.912900
21
1064.485710
0
LINE
8
plate
10
369.912900
20
1064.485710
11
368.953089
21
1064.582467
0
LINE
8
plate
10
368.953089
20
1064.582467
11
368.059118
21
1064.859972
0
LINE
8
plate
10
368.059118
20
1064.859972
11
367.250139
21
1065.299072
0
LINE
8
plate
10
367.250139
20
1065.299072
11
366.545302
21
1065.880616
0
LINE
8
plate
10
366.545302
20
1065.880616
11
365.963759
21
1066.585454
0
LINE
8
plate
10
365.963759
20
1066.585454
11
365.524660
21
1067.394433
0
LINE
8
plate
10
365.524660
20
1067.394433
11
365.247157
21
1068.288402
0
LINE
8
plate
10
365.247157
20
1068.288402
11
365.150400
21
1069.248210
0
LINE
8
plate
10
365.150400
20
1069.248210
11
365.247157
21
1070.208018
0
LINE
8
plate
10
365.247157
20
1070.208018
11
365.524660
21
1071.101987
0
LINE
8
plate
10
365.524660
20
1071.101987
11
365.963759
21
1071.910966
0
LINE
8
plate
10
365.963759
20
1071.910966
11
366.545302
21
1072.615804
0
LINE
8
plate
10
366.545302
20
1072.615804
11
367.250139
21
1073.197348
0
LINE
8
plate
10
367.250139
20
1073.197348
11
368.059118
21
1073.636448
0
LINE
8
plate
10
368.059118
20
1073.636448
11
368.953089
21
1073.913953
0
LINE
8
plate
10
368.953089
20
1073.913953
11
369.912900
21
1074.010710
0
LINE
8
plate
10
369.912900
20
1074.010710
11
369.912900
21
1074.010710
0
LINE
8
plate
10
404.837900
20
1074.010710
11
405.797711
21
1073.913953
0
LINE
8
plate
10
405.797711
20
1073.913953
11
406.691682
21
1073.636448
0
LINE
8
plate
10
406.691682
20
1073.636448
11
407.500661
21
1073.197348
0
LINE
8
plate
10
407.500661
20
1073.197348
11
408.205497
21
1072.615804
0
LINE
8
plate
10
408.205497
20
1072.615804
11
408.787041
21
1071.910966
0
LINE
8
plate
10
408.787041
20
1071.910966
11
409.226140
21
1071.101987
0
LINE
8
plate
10
409.226140
20
1071.101987
11
409.503643
21
1070.208018
0
LINE
8
plate
10
409.503643
20
1070.208018
11
409.600400
21
1069.248210
0
LINE
8
plate
10
409.600400
20
1069.248210
11
409.503643
21
1068.288402
0
LINE
8
plate
10
409.503643
20
1068.288402
11
409.226140
21
1067.394433
0
LINE
8
plate
10
409.226140
20
1067.394433
11
408.787041
21
1066.585454
0
LINE
8
plate
10
408.787041
20
1066.585454
11
408.205497
21
1065.880616
0
LINE
8
plate
10
408.205497
20
1065.880616
11
407.500661
21
1065.299072
0
LINE
8
plate
10
407.500661
20
1065.299072
11
406.691682
21
1064.859972
0
LINE
8
plate
10
406.691682
20
1064.859972
11
405.797711
21
1064.582467
0
LINE
8
plate
10
405.797711
20
1064.582467
11
404.837900
21
1064.485710
0
LINE
8
plate
10
404.837900
20
1064.485710
11
403.878089
21
1064.582467
0
LINE
8
plate
10
403.878089
20
1064.582467
11
402.984118
21
1064.859972
0
LINE
8
plate
10
402.984118
20
1064.859972
11
402.175139
21
1065.299072
0
LINE
8
plate
10
402.175139
20
1065.299072
11
401.470302
21
1065.880616
0
LINE
8
plate
10
401.470302
20
1065.880616
11
400.888759
21
1066.585454
0
LINE
8
plate
10
400.888759
20
1066.585454
11
400.449660
21
1067.394433
0
LINE
8
plate
10
400.449660
20
1067.394433
11
400.172157
21
1068.288402
0
LINE
8
plate
10
400.172157
20
1068.288402
11
400.075400
21
1069.248210
0
LINE
8
plate
10
400.075400
20
1069.248210
11
400.172157
21
1070.208018
0
LINE
8
plate
10
400.172157
20
1070.208018
11
400.449660
21
1071.101987
0
LINE
8
plate
10
400.449660
20
1071.101987
11
400.888759
21
1071.910966
0
LINE
8
plate
10
400.888759
20
1071.910966
11
401.470302
21
1072.615804
0
LINE
8
plate
10
401.470302
20
1072.615804
11
402.175139
21
1073.197348
0
LINE
8
plate
10
402.175139
20
1073.197348
11
402.984118
21
1073.636448
0
LINE
8
plate
10
402.984118
20
1073.636448
11
403.878089
21
1073.913953
0
LINE
8
plate
10
403.878089
20
1073.913953
11
404.837900
21
1074.010710
0
LINE
8
plate
10
404.837900
20
1074.010710
11
404.837900
21
1074.010710
0
LINE
8
plate
10
439.762900
20
1074.010710
11
440.722711
21
1073.913953
0
LINE
8
plate
10
440.722711
20
1073.913953
11
441.616682
21
1073.636448
0
LINE
8
plate
10
441.616682
20
1073.636448
11
442.425661
21
1073.197348
0
LINE
8
plate
10
442.425661
20
1073.197348
11
443.130497
21
1072.615804
0
LINE
8
plate
10
443.130497
20
1072.615804
11
443.712041
21
1071.910966
0
LINE
8
plate
10
443.712041
20
1071.910966
11
444.151140
21
1071.101987
0
LINE
8
plate
10
444.151140
20
1071.101987
11
444.428643
21
1070.208018
0
LINE
8
plate
10
444.428643
20
1070.208018
11
444.525400
21
1069.248210
0
LINE
8
plate
10
444.525400
20
1069.248210
11
444.428643
21
1068.288402
0
LINE
8
plate
10
444.428643
20
1068.288402
11
444.151140
21
1067.394433
0
LINE
8
plate
10
444.151140
20
1067.394433
11
443.712041
21
1066.585454
0
LINE
8
plate
10
443.712041
20
1066.585454
11
443.130497
21
1065.880616
0
LINE
8
plate
10
443.130497
20
1065.880616
11
442.425661
21
1065.299072
0
LINE
8
plate
10
442.425661
20
1065.299072
11
441.616682
21
1064.859972
0
LINE
8
plate
10
441.616682
20
1064.859972
11
440.722711
21
1064.582467
0
LINE
8
plate
10
440.722711
20
1064.582467
11
439.762900
21
1064.485710
0
LINE
8
plate
10
439.762900
20
1064.485710
11
438.803089
21
1064.582467
0
LINE
8
plate
10
438.803089
20
1064.582467
11
437.909118
21
1064.859972
0
LINE
8
plate
10
437.909118
20
1064.859972
11
437.100139
21
1065.299072
0
LINE
8
plate
10
437.100139
20
1065.299072
11
436.395302
21
1065.880616
0
LINE
8
plate
10
436.395302
20
1065.880616
11
435.813759
21
1066.585454
0
LINE
8
plate
10
435.813759
20
1066.585454
11
435.374660
21
1067.394433
0
LINE
8
plate
10
435.374660
20
1067.394433
11
435.097157
21
1068.288402
0
LINE
8
plate
10
435.097157
20
1068.288402
11
435.000400
21
1069.248210
0
LINE
8
plate
10
435.000400
20
1069.248210
11
435.097157
21
1070.208018
0
LINE
8
plate
10
435.097157
20
1070.208018
11
435.374660
21
1071.101987
0
LINE
8
plate
10
435.374660
20
1071.101987
11
435.813759
21
1071.910966
0
LINE
8
plate
10
435.813759
20
1071.910966
11
436.395302
21
1072.615804
0
LINE
8
plate
10
436.395302
20
1072.615804
11
437.100139
21
1073.197348
0
LINE
8
plate
10
437.100139
20
1073.197348
11
437.909118
21
1073.636448
0
LINE
8
plate
10
437.909118
20
1073.636448
11
438.803089
21
1073.913953
0
LINE
8
plate
10
438.803089
20
1073.913953
11
439.762900
21
1074.010710
0
LINE
8
plate
10
439.762900
20
1074.010710
11
439.762900
21
1074.010710
0
LINE
8
plate
10
474.687900
20
1074.010710
11
475.647711
21
1073.913953
0
LINE
8
plate
10
475.647711
20
1073.913953
11
476.541682
21
1073.636448
0
LINE
8
plate
10
476.541682
20
1073.636448
11
477.350661
21
1073.197348
0
LINE
8
plate
10
477.350661
20
1073.197348
11
478.055497
21
1072.615804
0
LINE
8
plate
10
478.055497
20
1072.615804
11
478.637041
21
1071.910966
0
LINE
8
plate
10
478.637041
20
1071.910966
11
479.076140
21
1071.101987
0
LINE
8
plate
10
479.076140
20
1071.101987
11
479.353643
21
1070.208018
0
LINE
8
plate
10
479.353643
20
1070.208018
11
479.450400
21
1069.248210
0
LINE
8
plate
10
479.450400
20
1069.248210
11
479.353643
21
1068.288402
0
LINE
8
plate
10
479.353643
20
1068.288402
11
479.076140
21
1067.394433
0
LINE
8
plate
10
479.076140
20
1067.394433
11
478.637041
21
1066.585454
0
LINE
8
plate
10
478.637041
20
1066.585454
11
478.055497
21
1065.880616
0
LINE
8
plate
10
478.055497
20
1065.880616
11
477.350661
21
1065.299072
0
LINE
8
plate
10
477.350661
20
1065.299072
11
476.541682
21
1064.859972
0
LINE
8
plate
10
476.541682
20
1064.859972
11
475.647711
21
1064.582467
0
LINE
8
plate
10
475.647711
20
1064.582467
11
474.687900
21
1064.485710
0
LINE
8
plate
10
474.687900
20
1064.485710
11
473.728089
21
1064.582467
0
LINE
8
plate
10
473.728089
20
1064.582467
11
472.834118
21
1064.859972
0
LINE
8
plate
10
472.834118
20
1064.859972
11
472.025139
21
1065.299072
0
LINE
8
plate
10
472.025139
20
1065.299072
11
471.320302
21
1065.880616
0
LINE
8
plate
10
471.320302
20
1065.880616
11
470.738759
21
1066.585454
0
LINE
8
plate
10
470.738759
20
1066.585454
11
470.299660
21
1067.394433
0
LINE
8
plate
10
470.299660
20
1067.394433
11
470.022157
21
1068.288402
0
LINE
8
plate
10
470.022157
20
1068.288402
11
469.925400
21
1069.248210
0
LINE
8
plate
10
469.925400
20
1069.248210
11
470.022157
21
1070.208018
0
LINE
8
plate
10
470.022157
20
1070.208018
11
470.299660
21
1071.101987
0
LINE
8
plate
10
470.299660
20
1071.101987
11
470.738759
21
1071.910966
0
LINE
8
plate
10
470.738759
20
1071.910966
11
471.320302
21
1072.615804
0
LINE
8
plate
10
471.320302
20
1072.615804
11
472.025139
21
1073.197348
0
LINE
8
plate
10
472.025139
20
1073.197348
11
472.834118
21
1073.636448
0
LINE
8
plate
10
472.834118
20
1073.636448
11
473.728089
21
1073.913953
0
LINE
8
plate
10
473.728089
20
1073.913953
11
474.687900
21
1074.010710
0
LINE
8
plate
10
474.687900
20
1074.010710
11
474.687900
21
1074.010710
0
LINE
8
plate
10
509.612900
20
1074.010710
11
510.572711
21
1073.913953
0
LINE
8
plate
10
510.572711
20
1073.913953
11
511.466682
21
1073.636448
0
LINE
8
plate
10
511.466682
20
1073.636448
11
512.275661
21
1073.197348
0
LINE
8
plate
10
512.275661
20
1073.197348
11
512.980497
21
1072.615804
0
LINE
8
plate
10
512.980497
20
1072.615804
11
513.562041
21
1071.910966
0
LINE
8
plate
10
513.562041
20
1071.910966
11
514.001140
21
1071.101987
0
LINE
8
plate
10
514.001140
20
1071.101987
11
514.278643
21
1070.208018
0
LINE
8
plate
10
514.278643
20
1070.208018
11
514.375400
21
1069.248210
0
LINE
8
plate
10
514.375400
20
1069.248210
11
514.278643
21
1068.288402
0
LINE
8
plate
10
514.278643
20
1068.288402
11
514.001140
21
1067.394433
0
LINE
8
plate
10
514.001140
20
1067.394433
11
513.562041
21
1066.585454
0
LINE
8
plate
10
513.562041
20
1066.585454
11
512.980497
21
1065.880616
0
LINE
8
plate
10
512.980497
20
1065.880616
11
512.275661
21
1065.299072
0
LINE
8
plate
10
512.275661
20
1065.299072
11
511.466682
21
1064.859972
0
LINE
8
plate
10
511.466682
20
1064.859972
11
510.572711
21
1064.582467
0
LINE
8
plate
10
510.572711
20
1064.582467
11
509.612900
21
1064.485710
0
LINE
8
plate
10
509.612900
20
1064.485710
11
508.653089
21
1064.582467
0
LINE
8
plate
10
508.653089
20
1064.582467
11
507.759118
21
1064.859972
0
LINE
8
plate
10
507.759118
20
1064.859972
11
506.950139
21
1065.299072
0
LINE
8
plate
10
506.950139
20
1065.299072
11
506.245302
21
1065.880616
0
LINE
8
plate
10
506.245302
20
1065.880616
11
505.663759
21
1066.585454
0
LINE
8
plate
10
505.663759
20
1066.585454
11
505.224660
21
1067.394433
0
LINE
8
plate
10
505.224660
20
1067.394433
11
504.947157
21
1068.288402
0
LINE
8
plate
10
504.947157
20
1068.288402
11
504.850400
21
1069.248210
0
LINE
8
plate
10
504.850400
20
1069.248210
11
504.947157
21
1070.208018
0
LINE
8
plate
10
504.947157
20
1070.208018
11
505.224660
21
1071.101987
0
LINE
8
plate
10
505.224660
20
1071.101987
11
505.663759
21
1071.910966
0
LINE
8
plate
10
505.663759
20
1071.910966
11
506.245302
21
1072.615804
0
LINE
8
plate
10
506.245302
20
1072.615804
11
506.950139
21
1073.197348
0
LINE
8
plate
10
506.950139
20
1073.197348
11
507.759118
21
1073.636448
0
LINE
8
plate
10
507.759118
20
1073.636448
11
508.653089
21
1073.913953
0
LINE
8
plate
10
508.653089
20
1073.913953
11
509.612900
21
1074.010710
0
LINE
8
plate
10
509.612900
20
1074.010710
11
509.612900
21
1074.010710
0
LINE
8
plate
10
544.537900
20
1074.010710
11
545.497711
21
1073.913953
0
LINE
8
plate
10
545.497711
20
1073.913953
11
546.391682
21
1073.636448
0
LINE
8
plate
10
546.391682
20
1073.636448
11
547.200661
21
1073.197348
0
LINE
8
plate
10
547.200661
20
1073.197348
11
547.905497
21
1072.615804
0
LINE
8
plate
10
547.905497
20
1072.615804
11
548.487041
21
1071.910966
0
LINE
8
plate
10
548.487041
20
1071.910966
11
548.926140
21
1071.101987
0
LINE
8
plate
10
548.926140
20
1071.101987
11
549.203643
21
1070.208018
0
LINE
8
plate
10
549.203643
20
1070.208018
11
549.300400
21
1069.248210
0
LINE
8
plate
10
549.300400
20
1069.248210
11
549.203643
21
1068.288402
0
LINE
8
plate
10
549.203643
20
1068.288402
11
548.926140
21
1067.394433
0
LINE
8
plate
10
548.926140
20
1067.394433
11
548.487041
21
1066.585454
0
LINE
8
plate
10
548.487041
20
1066.585454
11
547.905497
21
1065.880616
0
LINE
8
plate
10
547.905497
20
1065.880616
11
547.200661
21
1065.299072
0
LINE
8
plate
10
547.200661
20
1065.299072
11
546.391682
21
1064.859972
0
LINE
8
plate
10
546.391682
20
1064.859972
11
545.497711
21
1064.582467
0
LINE
8
plate
10
545.497711
20
1064.582467
11
544.537900
21
1064.485710
0
LINE
8
plate
10
544.537900
20
1064.485710
11
543.578089
21
1064.582467
0
LINE
8
plate
10
543.578089
20
1064.582467
11
542.684118
21
1064.859972
0
LINE
8
plate
10
542.684118
20
1064.859972
11
541.875139
21
1065.299072
0
LINE
8
plate
10
541.875139
20
1065.299072
11
541.170302
21
1065.880616
0
LINE
8
plate
10
541.170302
20
1065.880616
11
540.588759
21
1066.585454
0
LINE
8
plate
10
540.588759
20
1066.585454
11
540.149660
21
1067.394433
0
LINE
8
plate
10
540.149660
20
1067.394433
11
539.872157
21
1068.288402
0
LINE
8
plate
10
539.872157
20
1068.288402
11
539.775400
21
1069.248210
0
LINE
8
plate
10
539.775400
20
1069.248210
11
539.872157
21
1070.208018
0
LINE
8
plate
10
539.872157
20
1070.208018
11
540.149660
21
1071.101987
0
LINE
8
plate
10
540.149660
20
1071.101987
11
540.588759
21
1071.910966
0
LINE
8
plate
10
540.588759
20
1071.910966
11
541.170302
21
1072.615804
0
LINE
8
plate
10
541.170302
20
1072.615804
11
541.875139
21
1073.197348
0
LINE
8
plate
10
541.875139
20
1073.197348
11
542.684118
21
1073.636448
0
LINE
8
plate
10
542.684118
20
1073.636448
11
543.578089
21
1073.913953
0
LINE
8
plate
10
543.578089
20
1073.913953
11
544.537900
21
1074.010710
0
LINE
8
plate
10
544.537900
20
1074.010710
11
544.537900
21
1074.010710
0
LINE
8
plate
10
591.862140
20
1073.893400
11
591.863140
21
1073.893400
0
LINE
8
plate
10
591.863140
20
1073.893400
11
592.359230
21
1073.861400
0
LINE
8
plate
10
592.359230
20
1073.861400
11
592.368230
21
1057.385920
0
LINE
8
plate
10
592.368230
20
1057.385920
11
592.302783
21
1056.958652
0
LINE
8
plate
10
592.302783
20
1056.958652
11
592.102510
21
1056.697518
0
LINE
8
plate
10
592.102510
20
1056.697518
11
591.309900
21
1056.585970
0
LINE
8
plate
10
591.309900
20
1056.585970
11
591.305900
21
1062.991780
0
LINE
8
plate
10
591.305900
20
1062.991780
11
590.978780
21
1059.620410
0
LINE
8
plate
10
590.978780
20
1059.620410
11
590.851319
21
1058.762875
0
LINE
8
plate
10
590.851319
20
1058.762875
11
590.633070
21
1058.382250
0
LINE
8
plate
10
590.633070
20
1058.382250
11
590.325080
21
1058.347650
0
LINE
8
plate
10
590.325080
20
1058.347650
11
560.776180
21
1061.111300
0
LINE
8
plate
10
560.776180
20
1061.111300
11
560.873880
21
1062.166020
0
LINE
8
plate
10
560.873880
20
1062.166020
11
589.626130
21
1059.477290
0
LINE
8
plate
10
589.626130
20
1059.477290
11
589.902600
21
1059.505690
0
LINE
8
plate
10
589.902600
20
1059.505690
11
591.224480
21
1073.116230
0
LINE
8
plate
10
591.224480
20
1073.116230
11
591.390539
21
1073.735535
0
LINE
8
plate
10
591.390539
20
1073.735535
11
591.822900
21
1073.886210
0
LINE
8
plate
10
591.822900
20
1073.886210
11
591.862200
21
1073.893210
0
LINE
8
plate
10
591.862200
20
1073.893210
11
591.862140
21
1073.893400
0
LINE
8
plate
10
577.214460
20
1073.460360
11
577.623730
21
1073.240730
0
LINE
8
plate
10
577.623730
20
1073.240730
11
577.763780
21
1072.798380
0
LINE
8
plate
10
577.763780
20
1072.798380
11
577.543120
21
1072.383420
0
LINE
8
plate
10
577.543120
20
1072.383420
11
577.100770
21
1072.243380
0
LINE
8
plate
10
577.100770
20
1072.243380
11
576.685810
21
1072.463520
0
LINE
8
plate
10
576.685810
20
1072.463520
11
576.546280
21
1072.912070
0
LINE
8
plate
10
576.546280
20
1072.912070
11
576.759700
21
1073.321860
0
LINE
8
plate
10
576.759700
20
1073.321860
11
577.214460
21
1073.460360
0
LINE
8
plate
10
577.214460
20
1073.460360
11
577.214460
21
1073.460360
0
LINE
8
plate
10
586.767880
20
1072.567390
11
587.176640
21
1072.347250
0
LINE
8
plate
10
587.176640
20
1072.347250
11
587.316680
21
1071.904900
0
LINE
8
plate
10
587.316680
20
1071.904900
11
587.096540
21
1071.489930
0
LINE
8
plate
10
587.096540
20
1071.489930
11
586.654190
21
1071.349890
0
LINE
8
plate
10
586.654190
20
1071.349890
11
586.239230
21
1071.570030
0
LINE
8
plate
10
586.239230
20
1071.570030
11
586.099700
21
1072.018580
0
LINE
8
plate
10
586.099700
20
1072.018580
11
586.313130
21
1072.428380
0
LINE
8
plate
10
586.313130
20
1072.428380
11
586.767880
21
1072.567390
0
LINE
8
plate
10
586.767880
20
1072.567390
11
586.767880
21
1072.567390
0
LINE
8
plate
10
634.017190
20
1072.016000
11
634.261336
21
1071.978410
0
LINE
8
plate
10
634.261336
20
1071.978410
11
634.426470
21
1071.830480
0
LINE
8
plate
10
634.426470
20
1071.830480
11
635.621230
21
1064.658830
0
LINE
8
plate
10
635.621230
20
1064.658830
11
635.681730
21
1064.497600
0
LINE
8
plate
10
635.681730
20
1064.497600
11
665.051510
21
1068.699410
0
LINE
8
plate
10
665.051510
20
1068.699410
11
665.667820
21
1068.524819
0
LINE
8
plate
10
665.667820
20
1068.524819
11
665.894354
21
1068.218792
0
LINE
8
plate
10
665.894354
20
1068.218792
11
665.992020
21
1067.765610
0
LINE
8
plate
10
665.992020
20
1067.765610
11
635.725140
21
1063.608240
0
LINE
8
plate
10
635.725140
20
1063.608240
11
634.991034
21
1063.532385
0
LINE
8
plate
10
634.991034
20
1063.532385
11
634.708660
21
1063.697640
0
LINE
8
plate
10
634.708660
20
1063.697640
11
634.353130
21
1065.851000
0
LINE
8
plate
10
634.353130
20
1065.851000
11
634.281830
21
1057.304240
0
LINE
8
plate
10
634.281830
20
1057.304240
11
634.189117
21
1056.883079
0
LINE
8
plate
10
634.189117
20
1056.883079
11
633.989267
21
1056.622780
0
LINE
8
plate
10
633.989267
20
1056.622780
11
633.216780
21
1056.512040
0
LINE
8
plate
10
633.216780
20
1056.512040
11
633.338740
21
1071.196410
0
LINE
8
plate
10
633.338740
20
1071.196410
11
633.506691
21
1071.875260
0
LINE
8
plate
10
633.506691
20
1071.875260
11
634.017250
21
1072.016000
0
LINE
8
plate
10
634.017250
20
1072.016000
11
634.017190
21
1072.016000
0
LINE
8
plate
10
567.368030
20
1071.483730
11
567.625890
21
1071.459430
0
LINE
8
plate
10
567.625890
20
1071.459430
11
567.516860
21
1070.290000
0
LINE
8
plate
10
567.516860
20
1070.290000
11
568.289420
21
1070.913730
0
LINE
8
plate
10
568.289420
20
1070.913730
11
568.903850
21
1071.212940
0
LINE
8
plate
10
568.903850
20
1071.212940
11
569.533270
21
1071.281140
0
LINE
8
plate
10
569.533270
20
1071.281140
11
570.006214
21
1071.161259
0
LINE
8
plate
10
570.006214
20
1071.161259
11
570.393170
21
1070.898210
0
LINE
8
plate
10
570.393170
20
1070.898210
11
570.669202
21
1070.501821
0
LINE
8
plate
10
570.669202
20
1070.501821
11
570.809680
21
1069.981990
0
LINE
8
plate
10
570.809680
20
1069.981990
11
571.940880
21
1070.825870
0
LINE
8
plate
10
571.940880
20
1070.825870
11
572.837980
21
1070.972110
0
LINE
8
plate
10
572.837980
20
1070.972110
11
573.590390
21
1070.671870
0
LINE
8
plate
10
573.590390
20
1070.671870
11
574.061680
21
1069.890010
0
LINE
8
plate
10
574.061680
20
1069.890010
11
574.091680
21
1068.786200
0
LINE
8
plate
10
574.091680
20
1068.786200
11
573.870500
21
1066.423030
0
LINE
8
plate
10
573.870500
20
1066.423030
11
573.882400
21
1065.708350
0
LINE
8
plate
10
573.882400
20
1065.708350
11
574.082900
21
1065.459270
0
LINE
8
plate
10
574.082900
20
1065.459270
11
574.368160
21
1065.352300
0
LINE
8
plate
10
574.368160
20
1065.352300
11
574.347960
21
1065.136290
0
LINE
8
plate
10
574.347960
20
1065.136290
11
571.871100
21
1065.357980
0
LINE
8
plate
10
571.871100
20
1065.357980
11
571.891300
21
1065.573990
0
LINE
8
plate
10
571.891300
20
1065.573990
11
572.005500
21
1065.563090
0
LINE
8
plate
10
572.005500
20
1065.563090
11
572.569810
21
1065.649390
0
LINE
8
plate
10
572.569810
20
1065.649390
11
572.796670
21
1065.936710
0
LINE
8
plate
10
572.796670
20
1065.936710
11
572.875270
21
1066.516010
0
LINE
8
plate
10
572.875270
20
1066.516010
11
573.095930
21
1068.879170
0
LINE
8
plate
10
573.095930
20
1068.879170
11
573.022530
21
1069.841900
0
LINE
8
plate
10
573.022530
20
1069.841900
11
572.745145
21
1070.158126
0
LINE
8
plate
10
572.745145
20
1070.158126
11
572.308880
21
1070.295620
0
LINE
8
plate
10
572.308880
20
1070.295620
11
571.652080
21
1070.193820
0
LINE
8
plate
10
571.652080
20
1070.193820
11
570.823700
21
1069.678600
0
LINE
8
plate
10
570.823700
20
1069.678600
11
570.805100
21
1069.613500
0
LINE
8
plate
10
570.805100
20
1069.613500
11
570.793200
21
1069.354600
0
LINE
8
plate
10
570.793200
20
1069.354600
11
570.548260
21
1066.733580
0
LINE
8
plate
10
570.548260
20
1066.733580
11
570.542260
21
1066.026640
0
LINE
8
plate
10
570.542260
20
1066.026640
11
570.760330
21
1065.770330
0
LINE
8
plate
10
570.760330
20
1065.770330
11
571.217150
21
1065.636490
0
LINE
8
plate
10
571.217150
20
1065.636490
11
571.196950
21
1065.420480
0
LINE
8
plate
10
571.196950
20
1065.420480
11
568.548530
21
1065.668520
0
LINE
8
plate
10
568.548530
20
1065.668520
11
568.569230
21
1065.884530
0
LINE
8
plate
10
568.569230
20
1065.884530
11
569.202780
21
1065.934130
0
LINE
8
plate
10
569.202780
20
1065.934130
11
569.473050
21
1066.235410
0
LINE
8
plate
10
569.473050
20
1066.235410
11
569.558850
21
1066.826580
0
LINE
8
plate
10
569.558850
20
1066.826580
11
569.780030
21
1069.189230
0
LINE
8
plate
10
569.780030
20
1069.189230
11
569.672540
21
1070.173150
0
LINE
8
plate
10
569.672540
20
1070.173150
11
569.383108
21
1070.490541
0
LINE
8
plate
10
569.383108
20
1070.490541
11
568.970780
21
1070.625840
0
LINE
8
plate
10
568.970780
20
1070.625840
11
568.312420
21
1070.512150
0
LINE
8
plate
10
568.312420
20
1070.512150
11
567.489730
21
1069.990220
0
LINE
8
plate
10
567.489730
20
1069.990220
11
567.214290
21
1067.045690
0
LINE
8
plate
10
567.214290
20
1067.045690
11
567.220290
21
1066.337210
0
LINE
8
plate
10
567.220290
20
1066.337210
11
567.419250
21
1066.070560
0
LINE
8
plate
10
567.419250
20
1066.070560
11
567.900870
21
1065.942400
0
LINE
8
plate
10
567.900870
20
1065.942400
11
567.880670
21
1065.726390
0
LINE
8
plate
10
567.880670
20
1065.726390
11
565.274630
21
1065.974960
0
LINE
8
plate
10
565.274630
20
1065.974960
11
565.294830
21
1066.190450
0
LINE
8
plate
10
565.294830
20
1066.190450
11
565.830200
21
1066.219350
0
LINE
8
plate
10
565.830200
20
1066.219350
11
566.081860
21
1066.455510
0
LINE
8
plate
10
566.081860
20
1066.455510
11
566.224490
21
1067.138150
0
LINE
8
plate
10
566.224490
20
1067.138150
11
566.420860
21
1069.237250
0
LINE
8
plate
10
566.420860
20
1069.237250
11
566.476160
21
1070.411340
0
LINE
8
plate
10
566.476160
20
1070.411340
11
566.369710
21
1070.694010
0
LINE
8
plate
10
566.369710
20
1070.694010
11
566.130970
21
1070.794780
0
LINE
8
plate
10
566.130970
20
1070.794780
11
565.720650
21
1070.742580
0
LINE
8
plate
10
565.720650
20
1070.742580
11
565.650850
21
1070.966860
0
LINE
8
plate
10
565.650850
20
1070.966860
11
567.368030
21
1071.483730
0
LINE
8
plate
10
577.179320
20
1070.565960
11
577.443380
21
1070.541660
0
LINE
8
plate
10
577.443380
20
1070.541660
11
577.031010
21
1066.127460
0
LINE
8
plate
10
577.031010
20
1066.127460
11
577.038010
21
1065.431380
0
LINE
8
plate
10
577.038010
20
1065.431380
11
577.236450
21
1065.158530
0
LINE
8
plate
10
577.236450
20
1065.158530
11
577.537210
21
1065.059330
0
LINE
8
plate
10
577.537210
20
1065.059330
11
577.517010
21
1064.843320
0
LINE
8
plate
10
577.517010
20
1064.843320
11
575.079440
21
1065.057780
0
LINE
8
plate
10
575.079440
20
1065.057780
11
575.099640
21
1065.273780
0
LINE
8
plate
10
575.099640
20
1065.273780
11
575.646890
21
1065.301180
0
LINE
8
plate
10
575.646890
20
1065.301180
11
575.886670
21
1065.538900
0
LINE
8
plate
10
575.886670
20
1065.538900
11
576.034980
21
1066.220510
0
LINE
8
plate
10
576.034980
20
1066.220510
11
576.232900
21
1068.337690
0
LINE
8
plate
10
576.232900
20
1068.337690
11
576.287700
21
1069.499890
0
LINE
8
plate
10
576.287700
20
1069.499890
11
576.180210
21
1069.776360
0
LINE
8
plate
10
576.180210
20
1069.776360
11
575.941470
21
1069.877130
0
LINE
8
plate
10
575.941470
20
1069.877130
11
575.525470
21
1069.825430
0
LINE
8
plate
10
575.525470
20
1069.825430
11
575.461370
21
1070.049190
0
LINE
8
plate
10
575.461370
20
1070.049190
11
577.179320
21
1070.565960
0
LINE
8
plate
10
580.303670
20
1070.273990
11
580.561540
21
1070.249690
0
LINE
8
plate
10
580.561540
20
1070.249690
11
580.453540
21
1069.086450
0
LINE
8
plate
10
580.453540
20
1069.086450
11
581.478106
21
1069.870784
0
LINE
8
plate
10
581.478106
20
1069.870784
11
582.403290
21
1070.077610
0
LINE
8
plate
10
582.403290
20
1070.077610
11
583.155700
21
1069.777370
0
LINE
8
plate
10
583.155700
20
1069.777370
11
583.602180
21
1068.991370
0
LINE
8
plate
10
583.602180
20
1068.991370
11
583.630580
21
1067.875670
0
LINE
8
plate
10
583.630580
20
1067.875670
11
583.411470
21
1065.530600
0
LINE
8
plate
10
583.411470
20
1065.530600
11
583.429570
21
1064.815390
0
LINE
8
plate
10
583.429570
20
1064.815390
11
583.617670
21
1064.561660
0
LINE
8
plate
10
583.617670
20
1064.561660
11
583.979930
21
1064.444360
0
LINE
8
plate
10
583.979930
20
1064.444360
11
583.959230
21
1064.228350
0
LINE
8
plate
10
583.959230
20
1064.228350
11
581.418300
21
1064.465030
0
LINE
8
plate
10
581.418300
20
1064.465030
11
581.439000
21
1064.681040
0
LINE
8
plate
10
581.439000
20
1064.681040
11
581.552680
21
1064.670140
0
LINE
8
plate
10
581.552680
20
1064.670140
11
582.097350
21
1064.734240
0
LINE
8
plate
10
582.097350
20
1064.734240
11
582.345400
21
1065.061860
0
LINE
8
plate
10
582.345400
20
1065.061860
11
582.422400
21
1065.623070
0
LINE
8
plate
10
582.422400
20
1065.623070
11
582.632720
21
1067.872030
0
LINE
8
plate
10
582.632720
20
1067.872030
11
582.536120
21
1068.976350
0
LINE
8
plate
10
582.536120
20
1068.976350
11
582.300743
21
1069.256781
0
LINE
8
plate
10
582.300743
20
1069.256781
11
581.914450
21
1069.378910
0
LINE
8
plate
10
581.914450
20
1069.378910
11
581.184190
21
1069.250724
0
LINE
8
plate
10
581.184190
20
1069.250724
11
580.420480
21
1068.732440
0
LINE
8
plate
10
580.420480
20
1068.732440
11
580.149700
21
1065.835980
0
LINE
8
plate
10
580.149700
20
1065.835980
11
580.150210
21
1065.139900
0
LINE
8
plate
10
580.150210
20
1065.139900
11
580.354340
21
1064.860840
0
LINE
8
plate
10
580.354340
20
1064.860840
11
580.748110
21
1064.755940
0
LINE
8
plate
10
580.748110
20
1064.755940
11
580.727410
21
1064.539930
0
LINE
8
plate
10
580.727410
20
1064.539930
11
578.209730
21
1064.764720
0
LINE
8
plate
10
578.209730
20
1064.764720
11
578.229930
21
1064.980730
0
LINE
8
plate
10
578.229930
20
1064.980730
11
578.349820
21
1064.969830
0
LINE
8
plate
10
578.349820
20
1064.969830
11
578.933240
21
1065.126930
0
LINE
8
plate
10
578.933240
20
1065.126930
11
579.159590
21
1065.928430
0
LINE
8
plate
10
579.159590
20
1065.928430
11
579.350270
21
1067.967580
0
LINE
8
plate
10
579.350270
20
1067.967580
11
579.414870
21
1069.177330
0
LINE
8
plate
10
579.414870
20
1069.177330
11
579.304280
21
1069.483770
0
LINE
8
plate
10
579.304280
20
1069.483770
11
579.066050
21
1069.585050
0
LINE
8
plate
10
579.066050
20
1069.585050
11
578.655740
21
1069.532350
0
LINE
8
plate
10
578.655740
20
1069.532350
11
578.585940
21
1069.757150
0
LINE
8
plate
10
578.585940
20
1069.757150
11
580.303670
21
1070.273990
0
LINE
8
plate
10
608.606860
20
1069.825950
11
609.034740
21
1069.645090
0
LINE
8
plate
10
609.034740
20
1069.645090
11
609.215090
21
1069.217200
0
LINE
8
plate
10
609.215090
20
1069.217200
11
609.034740
21
1068.783640
0
LINE
8
plate
10
609.034740
20
1068.783640
11
608.606860
21
1068.603290
0
LINE
8
plate
10
608.606860
20
1068.603290
11
608.173290
21
1068.783640
0
LINE
8
plate
10
608.173290
20
1068.783640
11
607.992420
21
1069.217200
0
LINE
8
plate
10
607.992420
20
1069.217200
11
608.167090
21
1069.645090
0
LINE
8
plate
10
608.167090
20
1069.645090
11
608.606860
21
1069.825950
0
LINE
8
plate
10
608.606860
20
1069.825950
11
608.606860
21
1069.825950
0
LINE
8
plate
10
614.845750
20
1069.805250
11
615.114990
21
1069.805250
0
LINE
8
plate
10
615.114990
20
1069.805250
11
615.114990
21
1063.426310
0
LINE
8
plate
10
615.114990
20
1063.426310
11
615.157390
21
1062.239820
0
LINE
8
plate
10
615.157390
20
1062.239820
11
615.301570
21
1061.944750
0
LINE
8
plate
10
615.301570
20
1061.944750
11
615.536700
21
1061.860550
0
LINE
8
plate
10
615.536700
20
1061.860550
11
615.970260
21
1061.962870
0
LINE
8
plate
10
615.970260
20
1061.962870
11
616.036360
21
1061.752030
0
LINE
8
plate
10
616.036360
20
1061.752030
11
614.398210
21
1061.071450
0
LINE
8
plate
10
614.398210
20
1061.071450
11
614.121230
21
1061.071450
0
LINE
8
plate
10
614.121230
20
1061.071450
11
614.121230
21
1061.424400
0
LINE
8
plate
10
614.121230
20
1061.424400
11
614.121740
21
1064.660380
0
LINE
8
plate
10
614.121740
20
1064.660380
11
614.122260
21
1067.480360
0
LINE
8
plate
10
614.122260
20
1067.480360
11
614.074160
21
1068.642570
0
LINE
8
plate
10
614.074160
20
1068.642570
11
613.935150
21
1068.937640
0
LINE
8
plate
10
613.935150
20
1068.937640
11
613.694340
21
1069.016240
0
LINE
8
plate
10
613.694340
20
1069.016240
11
613.278860
21
1068.919640
0
LINE
8
plate
10
613.278860
20
1068.919640
11
613.200860
21
1069.130480
0
LINE
8
plate
10
613.200860
20
1069.130480
11
614.845750
21
1069.805250
0
LINE
8
plate
10
601.535970
20
1069.775250
11
602.142664
21
1069.673008
0
LINE
8
plate
10
602.142664
20
1069.673008
11
602.698170
21
1069.365970
0
LINE
8
plate
10
602.698170
20
1069.365970
11
602.960177
21
1069.078423
0
LINE
8
plate
10
602.960177
20
1069.078423
11
603.047510
21
1068.757740
0
LINE
8
plate
10
603.047510
20
1068.757740
11
602.890930
21
1068.414090
0
LINE
8
plate
10
602.890930
20
1068.414090
11
602.554000
21
1068.257520
0
LINE
8
plate
10
602.554000
20
1068.257520
11
602.258920
21
1068.354120
0
LINE
8
plate
10
602.258920
20
1068.354120
11
601.885300
21
1068.781480
0
LINE
8
plate
10
601.885300
20
1068.781480
11
601.475510
21
1069.227450
0
LINE
8
plate
10
601.475510
20
1069.227450
11
601.060030
21
1069.341650
0
LINE
8
plate
10
601.060030
20
1069.341650
11
600.590290
21
1069.191270
0
LINE
8
plate
10
600.590290
20
1069.191270
11
600.313310
21
1068.733420
0
LINE
8
plate
10
600.313310
20
1068.733420
11
600.229110
21
1067.137140
0
LINE
8
plate
10
600.229110
20
1067.137140
11
600.229110
21
1066.739740
0
LINE
8
plate
10
600.229110
20
1066.739740
11
601.650210
21
1066.739740
0
LINE
8
plate
10
601.650210
20
1066.739740
11
601.650210
21
1066.306180
0
LINE
8
plate
10
601.650210
20
1066.306180
11
600.229110
21
1066.306180
0
LINE
8
plate
10
600.229110
20
1066.306180
11
600.229110
21
1062.680040
0
LINE
8
plate
10
600.229110
20
1062.680040
11
600.397580
21
1061.704390
0
LINE
8
plate
10
600.397580
20
1061.704390
11
600.658100
21
1061.505585
0
LINE
8
plate
10
600.658100
20
1061.505585
11
600.993920
21
1061.439290
0
LINE
8
plate
10
600.993920
20
1061.439290
11
601.493630
21
1061.439290
0
LINE
8
plate
10
601.493630
20
1061.439290
11
601.493630
21
1061.222250
0
LINE
8
plate
10
601.493630
20
1061.222250
11
598.199260
21
1061.222250
0
LINE
8
plate
10
598.199260
20
1061.222250
11
598.199260
21
1061.439290
0
LINE
8
plate
10
598.199260
20
1061.439290
11
598.446280
21
1061.439290
0
LINE
8
plate
10
598.446280
20
1061.439290
11
598.885530
21
1061.559700
0
LINE
8
plate
10
598.885530
20
1061.559700
11
599.156830
21
1061.884740
0
LINE
8
plate
10
599.156830
20
1061.884740
11
599.234830
21
1062.680040
0
LINE
8
plate
10
599.234830
20
1062.680040
11
599.234830
21
1066.306180
0
LINE
8
plate
10
599.234830
20
1066.306180
11
598.163060
21
1066.306180
0
LINE
8
plate
10
598.163060
20
1066.306180
11
598.163060
21
1066.739740
0
LINE
8
plate
10
598.163060
20
1066.739740
11
599.234830
21
1066.739740
0
LINE
8
plate
10
599.234830
20
1066.739740
11
599.234830
21
1067.100960
0
LINE
8
plate
10
599.234830
20
1067.100960
11
599.301117
21
1067.862869
0
LINE
8
plate
10
599.301117
20
1067.862869
11
599.499930
21
1068.498290
0
LINE
8
plate
10
599.499930
20
1068.498290
11
599.834250
21
1069.014959
0
LINE
8
plate
10
599.834250
20
1069.014959
11
600.307110
21
1069.420200
0
LINE
8
plate
10
600.307110
20
1069.420200
11
600.888418
21
1069.686551
0
LINE
8
plate
10
600.888418
20
1069.686551
11
601.535980
21
1069.775220
0
LINE
8
plate
10
601.535980
20
1069.775220
11
601.535970
21
1069.775250
0
LINE
8
plate
10
586.732740
20
1069.672420
11
586.996810
21
1069.648120
0
LINE
8
plate
10
586.996810
20
1069.648120
11
586.584430
21
1065.233910
0
LINE
8
plate
10
586.584430
20
1065.233910
11
586.591430
21
1064.537830
0
LINE
8
plate
10
586.591430
20
1064.537830
11
586.789860
21
1064.264980
0
LINE
8
plate
10
586.789860
20
1064.264980
11
587.321610
21
1064.130620
0
LINE
8
plate
10
587.321610
20
1064.130620
11
587.301410
21
1063.914610
0
LINE
8
plate
10
587.301410
20
1063.914610
11
584.632840
21
1064.164210
0
LINE
8
plate
10
584.632840
20
1064.164210
11
584.653040
21
1064.380220
0
LINE
8
plate
10
584.653040
20
1064.380220
11
585.199780
21
1064.407620
0
LINE
8
plate
10
585.199780
20
1064.407620
11
585.440070
21
1064.645330
0
LINE
8
plate
10
585.440070
20
1064.645330
11
585.588390
21
1065.327460
0
LINE
8
plate
10
585.588390
20
1065.327460
11
585.786310
21
1067.444130
0
LINE
8
plate
10
585.786310
20
1067.444130
11
585.840610
21
1068.606850
0
LINE
8
plate
10
585.840610
20
1068.606850
11
585.733640
21
1068.882800
0
LINE
8
plate
10
585.733640
20
1068.882800
11
585.494890
21
1068.984080
0
LINE
8
plate
10
585.494890
20
1068.984080
11
585.078900
21
1068.931880
0
LINE
8
plate
10
585.078900
20
1068.931880
11
585.014800
21
1069.155640
0
LINE
8
plate
10
585.014800
20
1069.155640
11
586.732740
21
1069.672420
0
LINE
8
plate
10
608.841980
20
1066.940800
11
609.107080
21
1066.940800
0
LINE
8
plate
10
609.107080
20
1066.940800
11
609.107080
21
1062.507480
0
LINE
8
plate
10
609.107080
20
1062.507480
11
609.178880
21
1061.815010
0
LINE
8
plate
10
609.178880
20
1061.815010
11
609.402130
21
1061.561800
0
LINE
8
plate
10
609.402130
20
1061.561800
11
609.944210
21
1061.477600
0
LINE
8
plate
10
609.944210
20
1061.477600
11
609.944210
21
1061.260560
0
LINE
8
plate
10
609.944210
20
1061.260560
11
607.263760
21
1061.260560
0
LINE
8
plate
10
607.263760
20
1061.260560
11
607.263760
21
1061.477600
0
LINE
8
plate
10
607.263760
20
1061.477600
11
607.805840
21
1061.555600
0
LINE
8
plate
10
607.805840
20
1061.555600
11
608.022880
21
1061.815010
0
LINE
8
plate
10
608.022880
20
1061.815010
11
608.106580
21
1062.507480
0
LINE
8
plate
10
608.106580
20
1062.507480
11
608.106580
21
1064.633450
0
LINE
8
plate
10
608.106580
20
1064.633450
11
608.052280
21
1065.796160
0
LINE
8
plate
10
608.052280
20
1065.796160
11
607.919470
21
1066.061260
0
LINE
8
plate
10
607.919470
20
1066.061260
11
607.672970
21
1066.139260
0
LINE
8
plate
10
607.672970
20
1066.139260
11
607.263180
21
1066.049360
0
LINE
8
plate
10
607.263180
20
1066.049360
11
607.178980
21
1066.265890
0
LINE
8
plate
10
607.178980
20
1066.265890
11
608.841980
21
1066.940800
0
LINE
8
plate
10
612.916670
20
1066.925800
11
612.917190
21
1066.925800
0
LINE
8
plate
10
612.917190
20
1066.925800
11
613.357990
21
1066.875700
0
LINE
8
plate
10
613.357990
20
1066.875700
11
613.355990
21
1066.705680
0
LINE
8
plate
10
613.355990
20
1066.705680
11
613.348990
21
1066.543420
0
LINE
8
plate
10
613.348990
20
1066.543420
11
613.339990
21
1066.421980
0
LINE
8
plate
10
613.339990
20
1066.421980
11
612.845960
21
1066.552720
0
LINE
8
plate
10
612.845960
20
1066.552720
11
612.344511
21
1066.433711
0
LINE
8
plate
10
612.344511
20
1066.433711
11
611.900280
21
1066.076780
0
LINE
8
plate
10
611.900280
20
1066.076780
11
611.489119
21
1065.305634
0
LINE
8
plate
10
611.489119
20
1065.305634
11
611.352000
21
1064.245370
0
LINE
8
plate
10
611.352000
20
1064.245370
11
611.484590
21
1063.170288
0
LINE
8
plate
10
611.484590
20
1063.170288
11
611.882200
21
1062.378300
0
LINE
8
plate
10
611.882200
20
1062.378300
11
612.442233
21
1061.894976
0
LINE
8
plate
10
612.442233
20
1061.894976
11
613.062490
21
1061.733890
0
LINE
8
plate
10
613.062490
20
1061.733890
11
613.474350
21
1061.814990
0
LINE
8
plate
10
613.474350
20
1061.814990
11
613.496050
21
1061.564880
0
LINE
8
plate
10
613.496050
20
1061.564880
11
613.510550
21
1061.426900
0
LINE
8
plate
10
613.510550
20
1061.426900
11
613.523450
21
1061.360200
0
LINE
8
plate
10
613.523450
20
1061.360200
11
613.332250
21
1061.252200
0
LINE
8
plate
10
613.332250
20
1061.252200
11
612.500770
21
1061.071330
0
LINE
8
plate
10
612.500770
20
1061.071330
11
611.654716
21
1061.259567
0
LINE
8
plate
10
611.654716
20
1061.259567
11
610.923090
21
1061.824260
0
LINE
8
plate
10
610.923090
20
1061.824260
11
610.416996
21
1062.690157
0
LINE
8
plate
10
610.416996
20
1062.690157
11
610.248200
21
1063.769880
0
LINE
8
plate
10
610.248200
20
1063.769880
11
610.434836
21
1064.905249
0
LINE
8
plate
10
610.434836
20
1064.905249
11
610.994920
21
1065.938220
0
LINE
8
plate
10
610.994920
20
1065.938220
11
611.848929
21
1066.678939
0
LINE
8
plate
10
611.848929
20
1066.678939
11
612.916770
21
1066.925760
0
LINE
8
plate
10
612.916770
20
1066.925760
11
612.916670
21
1066.925800
0
LINE
8
plate
10
625.180000
20
1066.925800
11
625.180520
21
1066.925800
0
LINE
8
plate
10
625.180520
20
1066.925800
11
625.181040
21
1066.925800
0
LINE
8
plate
10
625.181040
20
1066.925800
11
625.181550
21
1066.925800
0
LINE
8
plate
10
625.181550
20
1066.925800
11
626.025726
21
1066.771997
0
LINE
8
plate
10
626.025726
20
1066.771997
11
626.704460
21
1066.311370
0
LINE
8
plate
10
626.704460
20
1066.311370
11
627.151453
21
1065.599297
0
LINE
8
plate
10
627.151453
20
1065.599297
11
627.300290
21
1064.679430
0
LINE
8
plate
10
627.300290
20
1064.679430
11
624.156290
21
1064.679430
0
LINE
8
plate
10
624.156290
20
1064.679430
11
624.158290
21
1064.795180
0
LINE
8
plate
10
624.158290
20
1064.795180
11
624.152290
21
1064.989480
0
LINE
8
plate
10
624.152290
20
1064.989480
11
624.150290
21
1065.028780
0
LINE
8
plate
10
624.150290
20
1065.028780
11
626.041650
21
1065.028780
0
LINE
8
plate
10
626.041650
20
1065.028780
11
625.915560
21
1065.775510
0
LINE
8
plate
10
625.915560
20
1065.775510
11
625.463390
21
1066.305710
0
LINE
8
plate
10
625.463390
20
1066.305710
11
624.843270
21
1066.498460
0
LINE
8
plate
10
624.843270
20
1066.498460
11
624.368859
21
1066.400484
0
LINE
8
plate
10
624.368859
20
1066.400484
11
623.945650
21
1066.106750
0
LINE
8
plate
10
623.945650
20
1066.106750
11
623.655485
21
1065.651853
0
LINE
8
plate
10
623.655485
20
1065.651853
11
623.497620
21
1065.105260
0
LINE
8
plate
10
623.497620
20
1065.105260
11
623.490620
21
1064.510990
0
LINE
8
plate
10
623.490620
20
1064.510990
11
623.656156
21
1063.516773
0
LINE
8
plate
10
623.656156
20
1063.516773
11
624.084890
21
1062.751920
0
LINE
8
plate
10
624.084890
20
1062.751920
11
624.739894
21
1062.227910
0
LINE
8
plate
10
624.739894
20
1062.227910
11
625.500310
21
1062.053250
0
LINE
8
plate
10
625.500310
20
1062.053250
11
626.006449
21
1062.126998
0
LINE
8
plate
10
626.006449
20
1062.126998
11
626.440310
21
1062.348330
0
LINE
8
plate
10
626.440310
20
1062.348330
11
626.810630
21
1062.754776
0
LINE
8
plate
10
626.810630
20
1062.754776
11
627.114680
21
1063.372040
0
LINE
8
plate
10
627.114680
20
1063.372040
11
627.301240
21
1063.251630
0
LINE
8
plate
10
627.301240
20
1063.251630
11
627.054296
21
1062.462566
0
LINE
8
plate
10
627.054296
20
1062.462566
11
626.566400
21
1061.745780
0
LINE
8
plate
10
626.566400
20
1061.745780
11
625.881483
21
1061.239941
0
LINE
8
plate
10
625.881483
20
1061.239941
11
625.042980
21
1061.071400
0
LINE
8
plate
10
625.042980
20
1061.071400
11
624.119801
21
1061.264166
0
LINE
8
plate
10
624.119801
20
1061.264166
11
623.338170
21
1061.842410
0
LINE
8
plate
10
623.338170
20
1061.842410
11
622.809556
21
1062.751960
0
LINE
8
plate
10
622.809556
20
1062.751960
11
622.633300
21
1063.926530
0
LINE
8
plate
10
622.633300
20
1063.926530
11
622.814086
21
1065.185385
0
LINE
8
plate
10
622.814086
20
1065.185385
11
623.356260
21
1066.131040
0
LINE
8
plate
10
623.356260
20
1066.131040
11
624.176583
21
1066.727009
0
LINE
8
plate
10
624.176583
20
1066.727009
11
625.180430
21
1066.925830
0
LINE
8
plate
10
625.180430
20
1066.925830
11
625.180000
21
1066.925800
0
LINE
8
plate
10
604.052100
20
1066.919800
11
604.304790
21
1066.919800
0
LINE
8
plate
10
604.304790
20
1066.919800
11
604.304790
21
1065.678530
0
LINE
8
plate
10
604.304790
20
1065.678530
11
605.006566
21
1066.609361
0
LINE
8
plate
10
605.006566
20
1066.609361
11
605.726410
21
1066.919800
0
LINE
8
plate
10
605.726410
20
1066.919800
11
606.274180
21
1066.714640
0
LINE
8
plate
10
606.274180
20
1066.714640
11
606.491220
21
1066.251110
0
LINE
8
plate
10
606.491220
20
1066.251110
11
606.334640
21
1065.853710
0
LINE
8
plate
10
606.334640
20
1065.853710
11
605.961020
21
1065.690930
0
LINE
8
plate
10
605.961020
20
1065.690930
11
605.485600
21
1065.895570
0
LINE
8
plate
10
605.485600
20
1065.895570
11
605.100090
21
1066.106410
0
LINE
8
plate
10
605.100090
20
1066.106410
11
604.864970
21
1065.986010
0
LINE
8
plate
10
604.864970
20
1065.986010
11
604.304790
21
1065.172620
0
LINE
8
plate
10
604.304790
20
1065.172620
11
604.304790
21
1062.528850
0
LINE
8
plate
10
604.304790
20
1062.528850
11
604.419000
21
1061.835870
0
LINE
8
plate
10
604.419000
20
1061.835870
11
604.696500
21
1061.565090
0
LINE
8
plate
10
604.696500
20
1061.565090
11
605.268560
21
1061.456570
0
LINE
8
plate
10
605.268560
20
1061.456570
11
605.268560
21
1061.239530
0
LINE
8
plate
10
605.268560
20
1061.239530
11
602.443410
21
1061.239530
0
LINE
8
plate
10
602.443410
20
1061.239530
11
602.443410
21
1061.456570
0
LINE
8
plate
10
602.443410
20
1061.456570
11
603.070240
21
1061.588860
0
LINE
8
plate
10
603.070240
20
1061.588860
11
603.281080
21
1061.896330
0
LINE
8
plate
10
603.281080
20
1061.896330
11
603.311080
21
1062.480280
0
LINE
8
plate
10
603.311080
20
1062.480280
11
603.311080
21
1064.618670
0
LINE
8
plate
10
603.311080
20
1064.618670
11
603.268680
21
1065.763300
0
LINE
8
plate
10
603.268680
20
1065.763300
11
603.124500
21
1066.034080
0
LINE
8
plate
10
603.124500
20
1066.034080
11
602.865090
21
1066.118280
0
LINE
8
plate
10
602.865090
20
1066.118280
11
602.443410
21
1066.028380
0
LINE
8
plate
10
602.443410
20
1066.028380
11
602.382910
21
1066.244910
0
LINE
8
plate
10
602.382910
20
1066.244910
11
604.052100
21
1066.919800
0
LINE
8
plate
10
619.122490
20
1066.916800
11
619.800112
21
1066.809471
0
LINE
8
plate
10
619.800112
20
1066.809471
11
620.385980
21
1066.534390
0
LINE
8
plate
10
620.385980
20
1066.534390
11
621.554390
21
1066.534390
0
LINE
8
plate
10
621.554390
20
1066.534390
11
621.855660
21
1066.516290
0
LINE
8
plate
10
621.855660
20
1066.516290
11
621.915060
21
1066.467690
0
LINE
8
plate
10
621.915060
20
1066.467690
11
621.951760
21
1066.274940
0
LINE
8
plate
10
621.951760
20
1066.274940
11
621.921260
21
1066.058420
0
LINE
8
plate
10
621.921260
20
1066.058420
11
621.855660
21
1066.010320
0
LINE
8
plate
10
621.855660
20
1066.010320
11
621.554390
21
1065.992220
0
LINE
8
plate
10
621.554390
20
1065.992220
11
620.837630
21
1065.992220
0
LINE
8
plate
10
620.837630
20
1065.992220
11
621.090421
21
1065.498219
0
LINE
8
plate
10
621.090421
20
1065.498219
11
621.174560
21
1064.883760
0
LINE
8
plate
10
621.174560
20
1064.883760
11
621.027060
21
1064.168396
0
LINE
8
plate
10
621.027060
20
1064.168396
11
620.584420
21
1063.564460
0
LINE
8
plate
10
620.584420
20
1063.564460
11
620.060820
21
1063.220735
0
LINE
8
plate
10
620.060820
20
1063.220735
11
619.413950
21
1063.044590
0
LINE
8
plate
10
619.413950
20
1063.044590
11
619.409950
21
1063.075590
0
LINE
8
plate
10
619.409950
20
1063.075590
11
619.402950
21
1063.160390
0
LINE
8
plate
10
619.402950
20
1063.160390
11
619.405950
21
1063.365030
0
LINE
8
plate
10
619.405950
20
1063.365030
11
619.826080
21
1063.654940
0
LINE
8
plate
10
619.826080
20
1063.654940
11
620.047407
21
1064.096301
0
LINE
8
plate
10
620.047407
20
1064.096301
11
620.121150
21
1064.733420
0
LINE
8
plate
10
620.121150
20
1064.733420
11
620.017311
21
1065.587146
0
LINE
8
plate
10
620.017311
20
1065.587146
11
619.705670
21
1066.233070
0
LINE
8
plate
10
619.705670
20
1066.233070
11
619.134650
21
1066.607730
0
LINE
8
plate
10
619.134650
20
1066.607730
11
619.131650
21
1066.694530
0
LINE
8
plate
10
619.131650
20
1066.694530
11
619.127650
21
1066.817520
0
LINE
8
plate
10
619.127650
20
1066.817520
11
619.122650
21
1066.916720
0
LINE
8
plate
10
619.122650
20
1066.916720
11
619.122490
21
1066.916800
0
LINE
8
plate
10
618.400060
20
1066.850100
11
618.400570
21
1066.850100
0
LINE
8
plate
10
618.400570
20
1066.850100
11
618.402570
21
1066.850100
0
LINE
8
plate
10
618.402570
20
1066.850100
11
618.428370
21
1066.653730
0
LINE
8
plate
10
618.428370
20
1066.653730
11
618.450570
21
1066.509550
0
LINE
8
plate
10
618.450570
20
1066.509550
11
618.171520
21
1066.274940
0
LINE
8
plate
10
618.171520
20
1066.274940
11
617.945862
21
1065.824879
0
LINE
8
plate
10
617.945862
20
1065.824879
11
617.870760
21
1065.185090
0
LINE
8
plate
10
617.870760
20
1065.185090
11
617.973006
21
1064.340234
0
LINE
8
plate
10
617.973006
20
1064.340234
11
618.280040
21
1063.709210
0
LINE
8
plate
10
618.280040
20
1063.709210
11
618.686220
21
1063.389330
0
LINE
8
plate
10
618.686220
20
1063.389330
11
618.688220
21
1063.295330
0
LINE
8
plate
10
618.688220
20
1063.295330
11
618.694220
21
1063.130480
0
LINE
8
plate
10
618.694220
20
1063.130480
11
618.701220
21
1063.034880
0
LINE
8
plate
10
618.701220
20
1063.034880
11
618.164310
21
1063.137200
0
LINE
8
plate
10
618.164310
20
1063.137200
11
617.802570
21
1062.733610
0
LINE
8
plate
10
617.802570
20
1062.733610
11
617.712170
21
1062.444220
0
LINE
8
plate
10
617.712170
20
1062.444220
11
617.808770
21
1062.245780
0
LINE
8
plate
10
617.808770
20
1062.245780
11
618.200480
21
1062.107290
0
LINE
8
plate
10
618.200480
20
1062.107290
11
619.043320
21
1062.064890
0
LINE
8
plate
10
619.043320
20
1062.064890
11
620.651490
21
1061.980690
0
LINE
8
plate
10
620.651490
20
1061.980690
11
621.154421
21
1061.837701
0
LINE
8
plate
10
621.154421
20
1061.837701
11
621.542910
21
1061.565210
0
LINE
8
plate
10
621.542910
20
1061.565210
11
621.795957
21
1061.188625
0
LINE
8
plate
10
621.795957
20
1061.188625
11
621.880360
21
1060.733740
0
LINE
8
plate
10
621.880360
20
1060.733740
11
621.720870
21
1060.074192
0
LINE
8
plate
10
621.720870
20
1060.074192
11
621.242150
21
1059.456810
0
LINE
8
plate
10
621.242150
20
1059.456810
11
620.159436
21
1058.797201
0
LINE
8
plate
10
620.159436
20
1058.797201
11
618.790620
21
1058.577280
0
LINE
8
plate
10
618.790620
20
1058.577280
11
617.718417
21
1058.708274
0
LINE
8
plate
10
617.718417
20
1058.708274
11
616.826920
21
1059.101280
0
LINE
8
plate
10
616.826920
20
1059.101280
11
616.488160
21
1059.408672
0
LINE
8
plate
10
616.488160
20
1059.408672
11
616.375270
21
1059.728110
0
LINE
8
plate
10
616.375270
20
1059.728110
11
616.440870
21
1060.016990
0
LINE
8
plate
10
616.440870
20
1060.016990
11
616.862550
21
1060.637620
0
LINE
8
plate
10
616.862550
20
1060.637620
11
617.041350
21
1060.831410
0
LINE
8
plate
10
617.041350
20
1060.831410
11
617.116250
21
1060.789510
0
LINE
8
plate
10
617.116250
20
1060.789510
11
617.232000
21
1060.728510
0
LINE
8
plate
10
617.232000
20
1060.728510
11
617.366880
21
1060.648410
0
LINE
8
plate
10
617.366880
20
1060.648410
11
617.370880
21
1060.645410
0
LINE
8
plate
10
617.370880
20
1060.645410
11
617.236520
21
1060.179280
0
LINE
8
plate
10
617.236520
20
1060.179280
11
617.323849
21
1059.908258
0
LINE
8
plate
10
617.323849
20
1059.908258
11
617.585860
21
1059.673370
0
LINE
8
plate
10
617.585860
20
1059.673370
11
618.322072
21
1059.393200
0
LINE
8
plate
10
618.322072
20
1059.393200
11
619.326320
21
1059.299750
0
LINE
8
plate
10
619.326320
20
1059.299750
11
620.267530
21
1059.396134
0
LINE
8
plate
10
620.267530
20
1059.396134
11
620.922600
21
1059.685260
0
LINE
8
plate
10
620.922600
20
1059.685260
11
621.311002
21
1060.078397
0
LINE
8
plate
10
621.311002
20
1060.078397
11
621.440400
21
1060.498640
0
LINE
8
plate
10
621.440400
20
1060.498640
11
621.363716
21
1060.766546
0
LINE
8
plate
10
621.363716
20
1060.766546
11
621.133440
21
1060.944100
0
LINE
8
plate
10
621.133440
20
1060.944100
11
619.892690
21
1061.100670
0
LINE
8
plate
10
619.892690
20
1061.100670
11
617.926400
21
1061.225220
0
LINE
8
plate
10
617.926400
20
1061.225220
11
617.444087
21
1061.351819
0
LINE
8
plate
10
617.444087
20
1061.351819
11
617.030850
21
1061.618990
0
LINE
8
plate
10
617.030850
20
1061.618990
11
616.904760
21
1061.955920
0
LINE
8
plate
10
616.904760
20
1061.955920
11
617.073230
21
1062.449950
0
LINE
8
plate
10
617.073230
20
1062.449950
11
617.868530
21
1063.250930
0
LINE
8
plate
10
617.868530
20
1063.250930
11
617.091310
21
1063.937710
0
LINE
8
plate
10
617.091310
20
1063.937710
11
616.820530
21
1064.919560
0
LINE
8
plate
10
616.820530
20
1064.919560
11
616.973892
21
1065.681391
0
LINE
8
plate
10
616.973892
20
1065.681391
11
617.434440
21
1066.328780
0
LINE
8
plate
10
617.434440
20
1066.328780
11
618.400280
21
1066.849680
0
LINE
8
plate
10
618.400280
20
1066.849680
11
618.400060
21
1066.850100
0
LINE
8
plate
10
631.223050
20
1057.147850
11
631.639868
21
1057.052897
0
LINE
8
plate
10
631.639868
20
1057.052897
11
631.891548
21
1056.818148
0
LINE
8
plate
10
631.891548
20
1056.818148
11
632.023510
21
1056.089520
0
LINE
8
plate
10
632.023510
20
1056.089520
11
594.370000
21
1056.068820
0
LINE
8
plate
10
594.370000
20
1056.068820
11
593.979395
21
1056.146505
0
LINE
8
plate
10
593.979395
20
1056.146505
11
593.714200
21
1056.345230
0
LINE
8
plate
10
593.714200
20
1056.345230
11
593.576917
21
1056.670203
0
LINE
8
plate
10
593.576917
20
1056.670203
11
593.570050
21
1057.126630
0
LINE
8
plate
10
593.570050
20
1057.126630
11
631.223050
21
1057.147830
0
LINE
8
plate
10
631.223050
20
1057.147830
11
631.223050
21
1057.147850
 0 
ENDSEC
 0 
EOF