<?xml version="1.0" encoding="UTF-8" standalone="no"?>
<!-- Created with Inkscape (http://www.inkscape.org/) -->

<svg
   width="210mm"
   height="297mm"
   viewBox="0 0 210 297"
   version="1.1"
   id="svg1"
   inkscape:version="1.3.2 (091e20e, 2023-11-25, custom)"
   sodipodi:docname="logo_dxf_v2.svg"
   xmlns:inkscape="http://www.inkscape.org/namespaces/inkscape"
   xmlns:sodipodi="http://sodipodi.sourceforge.net/DTD/sodipodi-0.dtd"
   xmlns="http://www.w3.org/2000/svg"
   xmlns:svg="http://www.w3.org/2000/svg">
  <sodipodi:namedview
     id="namedview1"
     pagecolor="#ffffff"
     bordercolor="#000000"
     borderopacity="0.25"
     inkscape:showpageshadow="2"
     inkscape:pageopacity="0.0"
     inkscape:pagecheckerboard="0"
     inkscape:deskcolor="#d1d1d1"
     inkscape:document-units="mm"
     inkscape:zoom="2"
     inkscape:cx="256"
     inkscape:cy="152.25"
     inkscape:window-width="1920"
     inkscape:window-height="1121"
     inkscape:window-x="-9"
     inkscape:window-y="-9"
     inkscape:window-maximized="1"
     inkscape:current-layer="layer6" />
  <defs
     id="defs1" />
  <g
     inkscape:label="Layer 1"
     inkscape:groupmode="layer"
     id="layer1">
    <g
       inkscape:groupmode="layer"
       id="layer6"
       inkscape:label="negative_3 outline"
       transform="translate(-2.9139757,-98.894693)">
      <path
         id="path430"
         style="fill:#070707;fill-opacity:1;fill-rule:nonzero;stroke:none;stroke-width:1.347;stroke-dasharray:none;stroke-opacity:1"
         d="m 30.745293,107.31762 c -2.15681,-0.19175 -3.400494,1.79943 -4.900608,2.72696 -2.300169,0.89067 -5.148741,1.71767 -6.215509,4.18215 -3.767959,0.67157 -4.737453,6.50864 -1.370459,8.33334 1.45382,0.38672 5.114353,0.26693 5.341098,0.97166 -4.056331,2.00404 -6.885688,6.81612 -6.007156,11.33924 0.98444,2.80645 2.439849,5.50496 2.553976,8.5463 -0.03461,2.05495 1.136564,3.8101 1.672902,5.66233 0.918902,2.23725 1.853539,4.8656 0.275663,7.06256 -1.395414,1.59757 -2.886291,3.10432 -3.021963,5.36499 -0.02841,1.96993 1.16644,4.04488 3.348403,4.05285 2.089358,-0.0899 4.699017,0.0571 6.060723,-1.79165 1.716644,-2.42204 4.346262,-1.3241 5.906716,0.69466 1.835406,1.81944 3.982966,3.49695 6.636306,3.80078 2.52615,0.0988 4.86688,-2.78175 3.71647,-5.18734 0.0962,-2.55035 -2.32846,-4.26823 -2.56274,-6.62706 -0.11841,-2.63032 2.23523,-4.45874 2.73697,-6.93095 1.37674,-2.79001 1.71191,-6.00108 3.29462,-8.72161 1.51681,-2.23785 1.82784,-5.02833 0.88665,-7.49805 -0.53907,-3.05918 -2.97186,-5.18706 -4.93583,-7.39733 -1.01437,-0.72485 -2.93466,-1.68212 -1.23273,-2.80749 1.65426,-1.58356 1.44656,-4.19556 0.9823,-6.26115 -0.56522,-2.43816 -2.21312,-4.41828 -3.67717,-6.32787 -0.96783,-2.58628 -4.07096,-2.86543 -6.434254,-3.01498 -1.018442,-0.045 -2.042405,-0.0434 -3.054378,-0.17234 z m 1.168404,1.74511 c 2.524421,0.03 5.986288,-0.003 7.162558,2.72018 0.20381,1.78969 -2.52306,-1.05468 -3.626716,-0.17668 -2.466785,-0.30714 -6.999991,2.38344 -7.957518,-0.97468 0.845209,-1.43137 2.959018,-1.40435 4.421676,-1.56882 z m -5.737117,2.59777 c 2.304595,1.43939 -1.952713,1.64027 -2.544773,2.47807 0.09546,0.79978 0.895228,3.88739 -0.456021,3.38492 0.620538,-0.95814 0.140018,-3.37762 -1.264521,-2.59266 0.448953,0.40012 1.04185,3.98739 -0.111679,2.81768 1.281403,-1.97997 -2.680884,-1.82132 -0.579534,-3.3804 1.358806,-1.33505 3.162572,-2.13915 4.956528,-2.70761 z m 13.485485,0.92914 c 0.0542,0.0206 0.0637,0.0468 0.10099,0.0888 1.78683,2.01607 3.16396,4.94832 2.81248,7.66839 -0.0893,0.69134 -0.29033,1.36897 -0.62464,2.01437 -0.0585,0.11294 -0.12861,0.19468 -0.24079,0.22995 0.084,-1.84969 1.01001,-4.75153 -0.66162,-6.71869 -0.51828,-1.01682 -1.09073,-2.02781 -1.3589,-3.14575 -0.0138,-0.0575 -0.0288,-0.079 -0.0275,-0.13708 z m -12.98239,1.27097 c 0.02915,0.036 -0.101579,0.72581 0.0422,1.07227 0.517634,1.24731 1.769743,3.69148 1.523983,5.80796 0.549617,3.73318 -3.73257,4.54267 -5.978562,6.37481 -2.443464,1.75499 4.24815,0.58473 1.720786,2.14326 -3.334628,-1.20813 -5.833895,3.87289 -3.697274,6.32557 1.624976,3.44338 1.654616,7.35421 2.936597,10.90749 -2.102948,-1.12488 -1.451598,-4.25812 -2.043401,-6.25286 -0.328602,-2.80125 -3.039922,-5.09901 -2.223471,-8.01457 0.696924,-3.19042 2.695609,-6.33634 5.880007,-7.48771 2.286247,-0.38997 2.47275,-3.10907 0.553617,-3.52387 -0.03099,-0.007 -0.05839,-0.0107 -0.08428,-0.0338 0.01848,-0.0202 0.03158,-0.026 0.04965,-0.0289 3.293699,-0.51201 -0.341028,-3.6812 0.929486,-5.75262 0.125994,-0.71551 0.113662,-1.21455 0.390667,-1.53712 z m 10.47246,0.0478 c 2.63892,1.26906 4.3308,4.94051 3.96349,7.86029 0.36569,0.90359 -1.20836,4.13299 -2.02304,2.55819 0.75466,-1.27553 0.19497,-4.13358 -0.19479,-4.5191 -1.50043,2.4167 0.0196,-1.87399 -0.61388,-2.81701 -0.37264,-3.86013 -4.584616,-1.6464 -5.99369,0.34522 -0.711358,0.76119 -2.880706,3.92657 -3.384723,2.67294 1.540163,-2.00151 3.270137,-4.06107 5.497158,-5.35811 0.844493,-0.45194 1.789925,-0.72108 2.749475,-0.74242 z m -6.485907,0.81907 c -0.104827,0.25169 2.304694,-0.07 0.744155,0.74959 -0.732604,1.6275 -2.425947,-0.6856 -0.744155,-0.74959 z m -10.511503,1.1467 c 0.779983,0.38371 -3.144307,2.31832 -1.743593,4.08109 0.400023,0.53478 2.36109,1.01767 0.620599,1.32366 -2.188328,-0.93332 -1.52864,-5.55027 1.122994,-5.40475 z m 1.103292,4.82968 c 0.950023,0.16461 4.077142,0.35352 1.490712,0.6722 -0.531547,0.26316 -3.689958,-0.46217 -1.490712,-0.6722 z m 18.669148,4.44417 c 0.62455,1.3458 0.22456,2.75941 0.22553,4.1712 1.39032,-0.42417 1.53669,3.47521 3.89821,3.30843 0.69857,0.94007 2.59767,1.26235 2.14774,-0.6754 -0.90397,-0.44981 -1.18529,-2.61934 0.0194,-1.10095 0.78251,1.6713 1.70473,3.65403 1.78769,5.38286 -1.49763,0.1938 -2.28961,-2.27422 -3.08423,-1.00227 0.086,-2.94551 -3.47491,-2.56415 -4.93586,-4.37703 -0.74443,-1.64242 -3.22109,-4.36718 -4.133768,-1.76592 -1.114722,-0.67066 -0.596113,-0.91266 -0.605461,-1.47249 -1.687576,-0.71684 -0.569096,-1.81476 0.631877,-0.74969 2.456402,1.57642 1.750432,-1.47053 4.048842,-1.71874 z m 1.23196,1.45366 c 1.42953,0.0995 4.07186,2.04537 3.7309,2.84618 -1.4199,-0.5485 -2.68502,-2.35346 -3.7309,-2.84618 z m 5.99443,11.26944 c 0.82203,3.44014 -2.35086,4.48026 -2.55961,7.88481 -0.3729,2.04568 -2.55569,6.20314 -4.89133,3.71654 -1.14892,-1.26881 -0.003,-2.5245 0.75049,-0.7206 2.64725,1.64001 3.50573,-3.24943 3.92495,-5.20239 1.05226,-2.38962 2.57255,-2.98467 2.7755,-5.67836 z m -6.7489,6.82971 c 0.25026,0.80611 0.30422,1.14371 1.25472,1.17195 -2.03958,1.4191 -5.04087,1.07937 -6.872566,2.76801 0.07752,1.76687 -1.487913,1.34197 -1.713133,0.10004 -1.253934,0.33618 -3.893642,-1.05988 -5.506613,-1.59957 -1.336912,0.35436 -3.606286,3.16121 -4.305668,0.98506 2.509013,-1.38284 5.164673,-2.29016 7.840154,-0.57661 1.779757,0.61912 4.048574,0.53695 4.708195,-1.2854 1.386401,1.15085 4.243391,-0.0399 4.594911,-1.56348 z m -12.783202,3.24477 c -0.365622,1.93544 -2.402817,4.53044 -0.316773,6.46317 1.053156,1.82888 6.115263,3.91121 2.521475,5.94154 -1.351403,-0.69806 -0.289313,-4.22088 -2.690432,-4.36522 -1.148739,0.19438 -0.988866,1.91658 -0.958926,2.55767 0.0172,0.36836 -0.04407,0.35437 -0.330352,-0.44667 -0.07846,-0.87116 -0.102012,-2.67075 -0.245807,-0.69966 -0.733899,2.14441 0.547963,5.10771 -0.721094,6.75875 -1.414987,-1.92074 0.909756,-4.59546 -0.204938,-6.5963 -1.974622,0.4035 -1.728152,4.44705 -4.076493,4.08666 0.732592,-2.49012 2.474734,-4.53927 4.038671,-6.49874 0.446078,-1.35713 -1.326316,-4.24598 -0.124877,-4.6283 0.09623,1.70632 0.605428,4.77917 2.567367,4.17001 -1.776206,-1.90677 -2.32424,-5.4748 0.542179,-6.74291 z m 14.592392,2.91093 c -0.61487,2.0548 -1.79343,4.27158 -2.391,6.47519 -0.53661,2.21534 -1.44681,4.59493 -1.41252,6.76197 0.65884,0.60593 3.84592,2.85751 1.34713,2.11037 -1.63498,-0.41564 -3.18158,-1.1304 -2.07819,-3.02054 0.52427,-2.60977 1.1947,-5.09803 1.87203,-7.64157 0.28553,-1.79575 0.52771,-4.18602 2.66255,-4.68542 z m -4.49688,4.60489 c 1.63982,0.0703 0.73621,3.13364 -0.14931,1.29939 -2.013273,0.37022 -3.488564,2.33661 -2.528019,4.29717 0.459026,1.05391 2.442019,3.77607 0.121584,2.14986 -2.395568,-1.26754 -2.943725,-4.65443 -0.173088,-5.89692 0.895224,-0.63735 1.881933,-1.14467 2.728833,-1.8495 z m 2.57038,2.21485 c 1.51903,1.90735 3.16366,4.1452 2.71549,6.79086 0.21347,1.10622 -1.35896,3.16275 -0.90426,0.77722 1.09083,-2.52933 -1.26092,-4.27359 -2.00361,-6.4146 -0.0545,-0.39262 0.0229,-0.7973 0.19238,-1.15348 z m -12.698965,4.25555 c -0.148272,0.89576 -2.508244,2.79295 -1.085343,0.71288 0.26707,-0.34763 0.617356,-0.68603 1.085343,-0.71288 z m -6.418213,0.30955 c 0.752334,1.09329 2.278889,1.74838 3.06355,1.15309 -0.02548,1.54359 -4.217343,0.62639 -3.06355,-1.15309 z"
         sodipodi:nodetypes="ccccccccccccccccccccccccccccccccccccccsssccsccccccccccccscsccccccccccccccccccscsccccccccccssccccccccccccccccccccccscccccccccccccccccccccccccccccccccc" />
    </g>
  </g>
</svg>
