999
"DXF R12 Output" (www.mydxf.blogspot.com)
 0 
SECTION
 2 
HEADER
 9 
$ACADVER
 1 
AC1009
 9 
$EXTMIN
 10 
 0 
 20 
 0 
 9 
$EXTMAX
 10 
 8.5 
 20 
 11 
 0 
ENDSEC
 0 
SECTION
 2 
ENTITIES
0
LINE
8
negative_3 outline
10
27.831313
20
288.577380
11
27.063028
21
288.553302
0
LINE
8
negative_3 outline
10
27.063028
20
288.553302
11
26.366642
21
288.362621
0
LINE
8
negative_3 outline
10
26.366642
20
288.362621
11
25.134748
21
287.633630
0
LINE
8
negative_3 outline
10
25.134748
20
287.633630
11
24.025984
21
286.694774
0
LINE
8
negative_3 outline
10
24.025984
20
286.694774
11
22.930705
21
285.850420
0
LINE
8
negative_3 outline
10
22.930705
20
285.850420
11
21.139162
21
285.167775
0
LINE
8
negative_3 outline
10
21.139162
20
285.167775
11
19.360425
21
284.349524
0
LINE
8
negative_3 outline
10
19.360425
20
284.349524
11
17.812951
21
283.236183
0
LINE
8
negative_3 outline
10
17.812951
20
283.236183
11
17.194205
21
282.519016
0
LINE
8
negative_3 outline
10
17.194205
20
282.519016
11
16.715196
21
281.668270
0
LINE
8
negative_3 outline
10
16.715196
20
281.668270
11
15.436393
21
281.192224
0
LINE
8
negative_3 outline
10
15.436393
20
281.192224
11
14.437971
21
280.339465
0
LINE
8
negative_3 outline
10
14.437971
20
280.339465
11
13.737951
21
279.217548
0
LINE
8
negative_3 outline
10
13.737951
20
279.217548
11
13.354359
21
277.934024
0
LINE
8
negative_3 outline
10
13.354359
20
277.934024
11
13.305218
21
276.596447
0
LINE
8
negative_3 outline
10
13.305218
20
276.596447
11
13.608551
21
275.312370
0
LINE
8
negative_3 outline
10
13.608551
20
275.312370
11
14.282383
21
274.189347
0
LINE
8
negative_3 outline
10
14.282383
20
274.189347
11
15.344737
21
273.334930
0
LINE
8
negative_3 outline
10
15.344737
20
273.334930
11
16.760728
21
273.119063
0
LINE
8
negative_3 outline
10
16.760728
20
273.119063
11
18.475439
21
272.968354
0
LINE
8
negative_3 outline
10
18.475439
20
272.968354
11
19.960074
21
272.758017
0
LINE
8
negative_3 outline
10
19.960074
20
272.758017
11
20.450863
21
272.591494
0
LINE
8
negative_3 outline
10
20.450863
20
272.591494
11
20.685835
21
272.363270
0
LINE
8
negative_3 outline
10
20.685835
20
272.363270
11
19.227071
21
271.486177
0
LINE
8
negative_3 outline
10
19.227071
20
271.486177
11
17.912409
21
270.382123
0
LINE
8
negative_3 outline
10
17.912409
20
270.382123
11
16.770922
21
269.087401
0
LINE
8
negative_3 outline
10
16.770922
20
269.087401
11
15.831683
21
267.638305
0
LINE
8
negative_3 outline
10
15.831683
20
267.638305
11
15.123767
21
266.071127
0
LINE
8
negative_3 outline
10
15.123767
20
266.071127
11
14.676245
21
264.422159
0
LINE
8
negative_3 outline
10
14.676245
20
264.422159
11
14.518191
21
262.727696
0
LINE
8
negative_3 outline
10
14.518191
20
262.727696
11
14.678679
21
261.024030
0
LINE
8
negative_3 outline
10
14.678679
20
261.024030
11
16.282034
21
256.838964
0
LINE
8
negative_3 outline
10
16.282034
20
256.838964
11
16.923886
21
254.701498
0
LINE
8
negative_3 outline
10
16.923886
20
254.701498
11
17.232655
21
252.477730
0
LINE
8
negative_3 outline
10
17.232655
20
252.477730
11
17.404022
21
250.986529
0
LINE
8
negative_3 outline
10
17.404022
20
250.986529
11
17.855000
21
249.570545
0
LINE
8
negative_3 outline
10
17.855000
20
249.570545
11
18.905557
21
246.815400
0
LINE
8
negative_3 outline
10
18.905557
20
246.815400
11
19.558180
21
245.076983
0
LINE
8
negative_3 outline
10
19.558180
20
245.076983
11
19.979680
21
243.269011
0
LINE
8
negative_3 outline
10
19.979680
20
243.269011
11
20.029690
21
242.363039
0
LINE
8
negative_3 outline
10
20.029690
20
242.363039
11
19.933035
21
241.468594
0
LINE
8
negative_3 outline
10
19.933035
20
241.468594
11
19.660087
21
240.595315
0
LINE
8
negative_3 outline
10
19.660087
20
240.595315
11
19.181220
21
239.752840
0
LINE
8
negative_3 outline
10
19.181220
20
239.752840
11
18.139427
21
238.558492
0
LINE
8
negative_3 outline
10
18.139427
20
238.558492
11
17.197835
21
237.319007
0
LINE
8
negative_3 outline
10
17.197835
20
237.319007
11
16.492445
21
235.955192
0
LINE
8
negative_3 outline
10
16.492445
20
235.955192
11
16.159257
21
234.387850
0
LINE
8
negative_3 outline
10
16.159257
20
234.387850
11
16.363621
21
232.924649
0
LINE
8
negative_3 outline
10
16.363621
20
232.924649
11
17.004569
21
231.625690
0
LINE
8
negative_3 outline
10
17.004569
20
231.625690
11
17.481843
21
231.101434
0
LINE
8
negative_3 outline
10
17.481843
20
231.101434
11
18.059961
21
230.694599
0
LINE
8
negative_3 outline
10
18.059961
20
230.694599
11
18.736156
21
230.430636
0
LINE
8
negative_3 outline
10
18.736156
20
230.430636
11
19.507660
21
230.335000
0
LINE
8
negative_3 outline
10
19.507660
20
230.335000
11
21.144606
21
230.392891
0
LINE
8
negative_3 outline
10
21.144606
20
230.392891
11
22.810891
21
230.571256
0
LINE
8
negative_3 outline
10
22.810891
20
230.571256
11
24.340741
21
231.079405
0
LINE
8
negative_3 outline
10
24.340741
20
231.079405
11
25.002699
21
231.522559
0
LINE
8
negative_3 outline
10
25.002699
20
231.522559
11
25.568383
21
232.126650
0
LINE
8
negative_3 outline
10
25.568383
20
232.126650
11
26.251049
21
232.874992
0
LINE
8
negative_3 outline
10
26.251049
20
232.874992
11
26.996078
21
233.323796
0
LINE
8
negative_3 outline
10
26.996078
20
233.323796
11
27.780242
21
233.503519
0
LINE
8
negative_3 outline
10
27.780242
20
233.503519
11
28.580312
21
233.444620
0
LINE
8
negative_3 outline
10
28.580312
20
233.444620
11
29.373061
21
233.177559
0
LINE
8
negative_3 outline
10
29.373061
20
233.177559
11
30.135261
21
232.732794
0
LINE
8
negative_3 outline
10
30.135261
20
232.732794
11
31.475099
21
231.431990
0
LINE
8
negative_3 outline
10
31.475099
20
231.431990
11
32.913208
21
230.113268
0
LINE
8
negative_3 outline
10
32.913208
20
230.113268
11
34.486527
21
228.963246
0
LINE
8
negative_3 outline
10
34.486527
20
228.963246
11
36.213208
21
228.097401
0
LINE
8
negative_3 outline
10
36.213208
20
228.097401
11
38.111405
21
227.631210
0
LINE
8
negative_3 outline
10
38.111405
20
227.631210
11
39.043563
21
227.727070
0
LINE
8
negative_3 outline
10
39.043563
20
227.727070
11
39.919599
21
228.061765
0
LINE
8
negative_3 outline
10
39.919599
20
228.061765
11
40.700775
21
228.594812
0
LINE
8
negative_3 outline
10
40.700775
20
228.594812
11
41.348350
21
229.285734
0
LINE
8
negative_3 outline
10
41.348350
20
229.285734
11
41.823587
21
230.094048
0
LINE
8
negative_3 outline
10
41.823587
20
230.094048
11
42.087746
21
230.979276
0
LINE
8
negative_3 outline
10
42.087746
20
230.979276
11
42.102088
21
231.900937
0
LINE
8
negative_3 outline
10
42.102088
20
231.900937
11
41.827875
21
232.818550
0
LINE
8
negative_3 outline
10
41.827875
20
232.818550
11
41.754986
21
233.738787
0
LINE
8
negative_3 outline
10
41.754986
20
233.738787
11
41.500977
21
234.598247
0
LINE
8
negative_3 outline
10
41.500977
20
234.598247
11
40.670435
21
236.203900
0
LINE
8
negative_3 outline
10
40.670435
20
236.203900
11
39.777928
21
237.773643
0
LINE
8
negative_3 outline
10
39.777928
20
237.773643
11
39.446462
21
238.588216
0
LINE
8
negative_3 outline
10
39.446462
20
238.588216
11
39.265135
21
239.445610
0
LINE
8
negative_3 outline
10
39.265135
20
239.445610
11
39.328163
21
240.397215
0
LINE
8
negative_3 outline
10
39.328163
20
240.397215
11
39.572275
21
241.290583
0
LINE
8
negative_3 outline
10
39.572275
20
241.290583
11
40.401064
21
242.970376
0
LINE
8
negative_3 outline
10
40.401064
20
242.970376
11
41.346130
21
244.620524
0
LINE
8
negative_3 outline
10
41.346130
20
244.620524
11
42.002105
21
246.376560
0
LINE
8
negative_3 outline
10
42.002105
20
246.376560
11
42.875133
21
248.533772
0
LINE
8
negative_3 outline
10
42.875133
20
248.533772
11
43.572176
21
250.763420
0
LINE
8
negative_3 outline
10
43.572176
20
250.763420
11
44.307839
21
252.980040
0
LINE
8
negative_3 outline
10
44.307839
20
252.980040
11
45.296725
21
255.098170
0
LINE
8
negative_3 outline
10
45.296725
20
255.098170
11
46.207523
21
256.866529
0
LINE
8
negative_3 outline
10
46.207523
20
256.866529
11
46.661800
21
258.760244
0
LINE
8
negative_3 outline
10
46.661800
20
258.760244
11
46.655202
21
260.697434
0
LINE
8
negative_3 outline
10
46.655202
20
260.697434
11
46.183375
21
262.596220
0
LINE
8
negative_3 outline
10
46.183375
20
262.596220
11
45.897070
21
263.701738
0
LINE
8
negative_3 outline
10
45.897070
20
263.701738
11
45.460915
21
264.731825
0
LINE
8
negative_3 outline
10
45.460915
20
264.731825
11
44.249798
21
266.613226
0
LINE
8
negative_3 outline
10
44.249798
20
266.613226
11
42.771512
21
268.335457
0
LINE
8
negative_3 outline
10
42.771512
20
268.335457
11
41.247545
21
269.993550
0
LINE
8
negative_3 outline
10
41.247545
20
269.993550
11
40.387660
21
270.579761
0
LINE
8
negative_3 outline
10
40.387660
20
270.579761
11
39.612568
21
271.247100
0
LINE
8
negative_3 outline
10
39.612568
20
271.247100
11
39.389479
21
271.609308
0
LINE
8
negative_3 outline
10
39.389479
20
271.609308
11
39.346782
21
271.989536
0
LINE
8
negative_3 outline
10
39.346782
20
271.989536
11
39.537539
21
272.387032
0
LINE
8
negative_3 outline
10
39.537539
20
272.387032
11
40.014815
21
272.801040
0
LINE
8
negative_3 outline
10
40.014815
20
272.801040
11
40.551019
21
273.440007
0
LINE
8
negative_3 outline
10
40.551019
20
273.440007
11
40.931477
21
274.156935
0
LINE
8
negative_3 outline
10
40.931477
20
274.156935
11
41.300410
21
275.750854
0
LINE
8
negative_3 outline
10
41.300410
20
275.750854
11
41.272121
21
277.435153
0
LINE
8
negative_3 outline
10
41.272121
20
277.435153
11
40.997115
21
279.062190
0
LINE
8
negative_3 outline
10
40.997115
20
279.062190
11
40.389987
21
280.810982
0
LINE
8
negative_3 outline
10
40.389987
20
280.810982
11
39.495591
21
282.424339
0
LINE
8
negative_3 outline
10
39.495591
20
282.424339
11
37.319945
21
285.390060
0
LINE
8
negative_3 outline
10
37.319945
20
285.390060
11
36.862532
21
286.256021
0
LINE
8
negative_3 outline
10
36.862532
20
286.256021
11
36.238628
21
286.931207
0
LINE
8
negative_3 outline
10
36.238628
20
286.931207
11
35.481925
21
287.441135
0
LINE
8
negative_3 outline
10
35.481925
20
287.441135
11
34.626117
21
287.811324
0
LINE
8
negative_3 outline
10
34.626117
20
287.811324
11
32.751957
21
288.234554
0
LINE
8
negative_3 outline
10
32.751957
20
288.234554
11
30.885691
21
288.405040
0
LINE
8
negative_3 outline
10
30.885691
20
288.405040
11
27.831313
21
288.577380
0
LINE
8
negative_3 outline
10
27.831313
20
288.577380
11
27.831313
21
288.577380
0
LINE
8
negative_3 outline
10
28.999717
20
286.832270
11
31.018444
21
286.777533
0
LINE
8
negative_3 outline
10
31.018444
20
286.777533
11
33.086553
21
286.482122
0
LINE
8
negative_3 outline
10
33.086553
20
286.482122
11
34.044700
21
286.161572
0
LINE
8
negative_3 outline
10
34.044700
20
286.161572
11
34.901883
21
285.681741
0
LINE
8
negative_3 outline
10
34.901883
20
285.681741
11
35.620331
21
285.009593
0
LINE
8
negative_3 outline
10
35.620331
20
285.009593
11
36.162275
21
284.112090
0
LINE
8
negative_3 outline
10
36.162275
20
284.112090
11
36.110222
21
283.641857
0
LINE
8
negative_3 outline
10
36.110222
20
283.641857
11
35.836785
21
283.508140
0
LINE
8
negative_3 outline
10
35.836785
20
283.508140
11
34.839217
21
283.858546
0
LINE
8
negative_3 outline
10
34.839217
20
283.858546
11
33.596499
21
284.379895
0
LINE
8
negative_3 outline
10
33.596499
20
284.379895
11
33.016624
21
284.459855
0
LINE
8
negative_3 outline
10
33.016624
20
284.459855
11
32.535559
21
284.288770
0
LINE
8
negative_3 outline
10
32.535559
20
284.288770
11
31.524671
21
284.281098
0
LINE
8
negative_3 outline
10
31.524671
20
284.281098
11
30.386174
21
284.098403
0
LINE
8
negative_3 outline
10
30.386174
20
284.098403
11
27.990828
21
283.631993
0
LINE
8
negative_3 outline
10
27.990828
20
283.631993
11
26.866216
21
283.560303
0
LINE
8
negative_3 outline
10
26.866216
20
283.560303
11
25.878468
21
283.737641
0
LINE
8
negative_3 outline
10
25.878468
20
283.737641
11
25.093704
21
284.270019
0
LINE
8
negative_3 outline
10
25.093704
20
284.270019
11
24.578041
21
285.263450
0
LINE
8
negative_3 outline
10
24.578041
20
285.263450
11
24.950710
21
285.735074
0
LINE
8
negative_3 outline
10
24.950710
20
285.735074
11
25.419814
21
286.089309
0
LINE
8
negative_3 outline
10
25.419814
20
286.089309
11
26.557336
21
286.522947
0
LINE
8
negative_3 outline
10
26.557336
20
286.522947
11
28.999717
21
286.832270
0
LINE
8
negative_3 outline
10
28.999717
20
286.832270
11
28.999717
21
286.832270
0
LINE
8
negative_3 outline
10
23.262600
20
284.234500
11
23.839209
21
283.749121
0
LINE
8
negative_3 outline
10
23.839209
20
283.749121
11
23.920489
21
283.357875
0
LINE
8
negative_3 outline
10
23.920489
20
283.357875
11
23.626289
21
283.038783
0
LINE
8
negative_3 outline
10
23.626289
20
283.038783
11
23.076459
21
282.769869
0
LINE
8
negative_3 outline
10
23.076459
20
282.769869
11
21.689307
21
282.294661
0
LINE
8
negative_3 outline
10
21.689307
20
282.294661
11
21.091683
21
282.044412
0
LINE
8
negative_3 outline
10
21.091683
20
282.044412
11
20.717827
21
281.756430
0
LINE
8
negative_3 outline
10
20.717827
20
281.756430
11
21.032332
21
279.575626
0
LINE
8
negative_3 outline
10
21.032332
20
279.575626
11
20.916542
21
278.575955
0
LINE
8
negative_3 outline
10
20.916542
20
278.575955
11
20.673272
21
278.339888
0
LINE
8
negative_3 outline
10
20.673272
20
278.339888
11
20.261806
21
278.371510
0
LINE
8
negative_3 outline
10
20.261806
20
278.371510
11
20.523527
21
279.291213
0
LINE
8
negative_3 outline
10
20.523527
20
279.291213
11
20.388949
21
280.321503
0
LINE
8
negative_3 outline
10
20.388949
20
280.321503
11
20.178235
21
280.741424
0
LINE
8
negative_3 outline
10
20.178235
20
280.741424
11
19.874669
21
281.024960
0
LINE
8
negative_3 outline
10
19.874669
20
281.024960
11
19.480328
21
281.117435
0
LINE
8
negative_3 outline
10
19.480328
20
281.117435
11
18.997285
21
280.964170
0
LINE
8
negative_3 outline
10
18.997285
20
280.964170
11
19.331452
21
280.190616
0
LINE
8
negative_3 outline
10
19.331452
20
280.190616
11
19.542376
21
278.966644
0
LINE
8
negative_3 outline
10
19.542376
20
278.966644
11
19.452835
21
278.037014
0
LINE
8
negative_3 outline
10
19.452835
20
278.037014
11
19.240008
21
277.915316
0
LINE
8
negative_3 outline
10
19.240008
20
277.915316
11
18.885606
21
278.146490
0
LINE
8
negative_3 outline
10
18.885606
20
278.146490
11
19.142419
21
278.796263
0
LINE
8
negative_3 outline
10
19.142419
20
278.796263
11
19.040143
21
279.290732
0
LINE
8
negative_3 outline
10
19.040143
20
279.290732
11
18.711287
21
279.675088
0
LINE
8
negative_3 outline
10
18.711287
20
279.675088
11
18.288359
21
279.994524
0
LINE
8
negative_3 outline
10
18.288359
20
279.994524
11
17.903865
21
280.294230
0
LINE
8
negative_3 outline
10
17.903865
20
280.294230
11
17.690314
21
280.619399
0
LINE
8
negative_3 outline
10
17.690314
20
280.619399
11
17.780214
21
281.015222
0
LINE
8
negative_3 outline
10
17.780214
20
281.015222
11
18.306072
21
281.526890
0
LINE
8
negative_3 outline
10
18.306072
20
281.526890
11
19.401501
21
282.433239
0
LINE
8
negative_3 outline
10
19.401501
20
282.433239
11
20.621155
21
283.168166
0
LINE
8
negative_3 outline
10
20.621155
20
283.168166
11
23.262600
21
284.234500
0
LINE
8
negative_3 outline
10
23.262600
20
284.234500
11
23.262600
21
284.234500
0
LINE
8
negative_3 outline
10
36.748085
20
283.305360
11
36.849075
21
283.216560
0
LINE
8
negative_3 outline
10
36.849075
20
283.216560
11
38.091771
21
281.550354
0
LINE
8
negative_3 outline
10
38.091771
20
281.550354
11
39.057181
21
279.646365
0
LINE
8
negative_3 outline
10
39.057181
20
279.646365
11
39.621659
21
277.610376
0
LINE
8
negative_3 outline
10
39.621659
20
277.610376
11
39.714907
21
276.575938
0
LINE
8
negative_3 outline
10
39.714907
20
276.575938
11
39.661555
21
275.548170
0
LINE
8
negative_3 outline
10
39.661555
20
275.548170
11
39.441114
21
274.523757
0
LINE
8
negative_3 outline
10
39.441114
20
274.523757
11
39.036915
21
273.533800
0
LINE
8
negative_3 outline
10
39.036915
20
273.533800
11
38.796125
21
273.303850
0
LINE
8
negative_3 outline
10
38.796125
20
273.303850
11
39.123676
21
276.619144
0
LINE
8
negative_3 outline
10
39.123676
20
276.619144
11
38.954915
21
278.402962
0
LINE
8
negative_3 outline
10
38.954915
20
278.402962
11
38.646320
21
279.244922
0
LINE
8
negative_3 outline
10
38.646320
20
279.244922
11
38.134505
21
280.022540
0
LINE
8
negative_3 outline
10
38.134505
20
280.022540
11
37.361264
21
281.557495
0
LINE
8
negative_3 outline
10
37.361264
20
281.557495
11
36.775605
21
283.168290
0
LINE
8
negative_3 outline
10
36.775605
20
283.168290
11
36.748105
21
283.305370
0
LINE
8
negative_3 outline
10
36.748105
20
283.305370
11
36.748085
21
283.305360
0
LINE
8
negative_3 outline
10
23.765695
20
282.034390
11
23.743809
21
281.614678
0
LINE
8
negative_3 outline
10
23.743809
20
281.614678
11
23.807895
21
280.962120
0
LINE
8
negative_3 outline
10
23.807895
20
280.962120
11
24.856159
21
278.384079
0
LINE
8
negative_3 outline
10
24.856159
20
278.384079
11
25.270228
21
276.779141
0
LINE
8
negative_3 outline
10
25.270228
20
276.779141
11
25.331878
21
275.154160
0
LINE
8
negative_3 outline
10
25.331878
20
275.154160
11
25.324908
21
273.883558
0
LINE
8
negative_3 outline
10
25.324908
20
273.883558
11
24.945440
21
272.840805
0
LINE
8
negative_3 outline
10
24.945440
20
272.840805
11
24.273959
21
271.979656
0
LINE
8
negative_3 outline
10
24.273959
20
271.979656
11
23.390950
21
271.253865
0
LINE
8
negative_3 outline
10
23.390950
20
271.253865
11
21.312284
21
270.023370
0
LINE
8
negative_3 outline
10
21.312284
20
270.023370
11
19.353316
21
268.779350
0
LINE
8
negative_3 outline
10
19.353316
20
268.779350
11
18.829376
21
268.247307
0
LINE
8
negative_3 outline
10
18.829376
20
268.247307
11
18.946763
21
267.923247
0
LINE
8
negative_3 outline
10
18.946763
20
267.923247
11
19.490390
21
267.740914
0
LINE
8
negative_3 outline
10
19.490390
20
267.740914
11
20.245171
21
267.634047
0
LINE
8
negative_3 outline
10
20.245171
20
267.634047
11
21.527849
21
267.381684
0
LINE
8
negative_3 outline
10
21.527849
20
267.381684
11
21.644416
21
267.262231
0
LINE
8
negative_3 outline
10
21.644416
20
267.262231
11
21.625572
21
267.103670
0
LINE
8
negative_3 outline
10
21.625572
20
267.103670
11
21.074102
21
266.636090
0
LINE
8
negative_3 outline
10
21.074102
20
266.636090
11
19.870197
21
266.811752
0
LINE
8
negative_3 outline
10
19.870197
20
266.811752
11
18.789144
21
266.502308
0
LINE
8
negative_3 outline
10
18.789144
20
266.502308
11
17.875482
21
265.812259
0
LINE
8
negative_3 outline
10
17.875482
20
265.812259
11
17.173747
21
264.846109
0
LINE
8
negative_3 outline
10
17.173747
20
264.846109
11
16.728476
21
263.708358
0
LINE
8
negative_3 outline
10
16.728476
20
263.708358
11
16.584208
21
262.503508
0
LINE
8
negative_3 outline
10
16.584208
20
262.503508
11
16.785479
21
261.336061
0
LINE
8
negative_3 outline
10
16.785479
20
261.336061
11
17.376828
21
260.310520
0
LINE
8
negative_3 outline
10
17.376828
20
260.310520
11
18.340929
21
257.653229
0
LINE
8
negative_3 outline
10
18.340929
20
257.653229
11
18.973750
21
254.897987
0
LINE
8
negative_3 outline
10
18.973750
20
254.897987
11
19.542258
21
252.122140
0
LINE
8
negative_3 outline
10
19.542258
20
252.122140
11
20.313425
21
249.403030
0
LINE
8
negative_3 outline
10
20.313425
20
249.403030
11
19.646120
21
249.912856
0
LINE
8
negative_3 outline
10
19.646120
20
249.912856
11
19.190185
21
250.574088
0
LINE
8
negative_3 outline
10
19.190185
20
250.574088
11
18.898775
21
251.349849
0
LINE
8
negative_3 outline
10
18.898775
20
251.349849
11
18.725045
21
252.203262
0
LINE
8
negative_3 outline
10
18.725045
20
252.203262
11
18.543245
21
253.995536
0
LINE
8
negative_3 outline
10
18.543245
20
253.995536
11
18.270024
21
255.655890
0
LINE
8
negative_3 outline
10
18.270024
20
255.655890
11
18.046652
21
256.684948
0
LINE
8
negative_3 outline
10
18.046652
20
256.684948
11
17.669164
21
257.679943
0
LINE
8
negative_3 outline
10
17.669164
20
257.679943
11
16.728894
21
259.620309
0
LINE
8
negative_3 outline
10
16.728894
20
259.620309
11
16.003320
21
261.582107
0
LINE
8
negative_3 outline
10
16.003320
20
261.582107
11
15.894204
21
262.603894
0
LINE
8
negative_3 outline
10
15.894204
20
262.603894
11
16.046553
21
263.670460
0
LINE
8
negative_3 outline
10
16.046553
20
263.670460
11
16.811513
21
266.024462
0
LINE
8
negative_3 outline
10
16.811513
20
266.024462
11
18.053754
21
268.178959
0
LINE
8
negative_3 outline
10
18.053754
20
268.178959
11
18.850455
21
269.124263
0
LINE
8
negative_3 outline
10
18.850455
20
269.124263
11
19.762396
21
269.951134
0
LINE
8
negative_3 outline
10
19.762396
20
269.951134
11
20.788218
21
270.636720
0
LINE
8
negative_3 outline
10
20.788218
20
270.636720
11
21.926560
21
271.158170
0
LINE
8
negative_3 outline
10
21.926560
20
271.158170
11
22.685466
21
271.404537
0
LINE
8
negative_3 outline
10
22.685466
20
271.404537
11
23.247451
21
271.814962
0
LINE
8
negative_3 outline
10
23.247451
20
271.814962
11
23.612448
21
272.335147
0
LINE
8
negative_3 outline
10
23.612448
20
272.335147
11
23.780386
21
272.910794
0
LINE
8
negative_3 outline
10
23.780386
20
272.910794
11
23.751197
21
273.487604
0
LINE
8
negative_3 outline
10
23.751197
20
273.487604
11
23.524812
21
274.011281
0
LINE
8
negative_3 outline
10
23.524812
20
274.011281
11
23.101162
21
274.427526
0
LINE
8
negative_3 outline
10
23.101162
20
274.427526
11
22.480177
21
274.682040
0
LINE
8
negative_3 outline
10
22.480177
20
274.682040
11
22.395897
21
274.715840
0
LINE
8
negative_3 outline
10
22.395897
20
274.715840
11
22.445547
21
274.744740
0
LINE
8
negative_3 outline
10
22.445547
20
274.744740
11
23.379027
21
275.053965
0
LINE
8
negative_3 outline
10
23.379027
20
275.053965
11
23.801642
21
275.568298
0
LINE
8
negative_3 outline
10
23.801642
20
275.568298
11
23.852070
21
276.243734
0
LINE
8
negative_3 outline
10
23.852070
20
276.243734
11
23.668984
21
277.036271
0
LINE
8
negative_3 outline
10
23.668984
20
277.036271
11
23.156979
21
278.796634
0
LINE
8
negative_3 outline
10
23.156979
20
278.796634
11
23.105411
21
279.676453
0
LINE
8
negative_3 outline
10
23.105411
20
279.676453
11
23.375033
21
280.497360
0
LINE
8
negative_3 outline
10
23.375033
20
280.497360
11
23.513737
21
281.413273
0
LINE
8
negative_3 outline
10
23.513737
20
281.413273
11
23.765700
21
282.034480
0
LINE
8
negative_3 outline
10
23.765700
20
282.034480
11
23.765695
21
282.034390
0
LINE
8
negative_3 outline
10
34.238155
20
281.986590
11
35.181185
21
281.404241
0
LINE
8
negative_3 outline
10
35.181185
20
281.404241
11
36.022398
21
280.633629
0
LINE
8
negative_3 outline
10
36.022398
20
280.633629
11
36.748759
21
279.711717
0
LINE
8
negative_3 outline
10
36.748759
20
279.711717
11
37.347236
21
278.675465
0
LINE
8
negative_3 outline
10
37.347236
20
278.675465
11
37.804797
21
277.561836
0
LINE
8
negative_3 outline
10
37.804797
20
277.561836
11
38.108407
21
276.407791
0
LINE
8
negative_3 outline
10
38.108407
20
276.407791
11
38.245034
21
275.250292
0
LINE
8
negative_3 outline
10
38.245034
20
275.250292
11
38.201645
21
274.126300
0
LINE
8
negative_3 outline
10
38.201645
20
274.126300
11
38.253125
21
273.692357
0
LINE
8
negative_3 outline
10
38.253125
20
273.692357
11
38.154385
21
273.123925
0
LINE
8
negative_3 outline
10
38.154385
20
273.123925
11
37.632764
21
271.917809
0
LINE
8
negative_3 outline
10
37.632764
20
271.917809
11
37.273143
21
271.447235
0
LINE
8
negative_3 outline
10
37.273143
20
271.447235
11
36.889823
21
271.176391
0
LINE
8
negative_3 outline
10
36.889823
20
271.176391
11
36.514434
21
271.188831
0
LINE
8
negative_3 outline
10
36.514434
20
271.188831
11
36.178605
21
271.568110
0
LINE
8
negative_3 outline
10
36.178605
20
271.568110
11
36.521351
21
272.758120
0
LINE
8
negative_3 outline
10
36.521351
20
272.758120
11
36.510367
21
274.161414
0
LINE
8
negative_3 outline
10
36.510367
20
274.161414
11
36.284805
21
275.397831
0
LINE
8
negative_3 outline
10
36.284805
20
275.397831
11
35.983815
21
276.087210
0
LINE
8
negative_3 outline
10
35.983815
20
276.087210
11
35.552632
21
275.475718
0
LINE
8
negative_3 outline
10
35.552632
20
275.475718
11
35.343985
21
275.375210
0
LINE
8
negative_3 outline
10
35.343985
20
275.375210
11
35.351769
21
276.235820
0
LINE
8
negative_3 outline
10
35.351769
20
276.235820
11
35.522105
21
277.726377
0
LINE
8
negative_3 outline
10
35.522105
20
277.726377
11
35.516650
21
278.413304
0
LINE
8
negative_3 outline
10
35.516650
20
278.413304
11
35.369935
21
278.904220
0
LINE
8
negative_3 outline
10
35.369935
20
278.904220
11
35.063199
21
280.079353
0
LINE
8
negative_3 outline
10
35.063199
20
280.079353
11
34.474364
21
280.758843
0
LINE
8
negative_3 outline
10
34.474364
20
280.758843
11
33.681269
21
281.016471
0
LINE
8
negative_3 outline
10
33.681269
20
281.016471
11
32.761753
21
280.926016
0
LINE
8
negative_3 outline
10
32.761753
20
280.926016
11
31.793653
21
280.561261
0
LINE
8
negative_3 outline
10
31.793653
20
280.561261
11
30.854810
21
279.995986
0
LINE
8
negative_3 outline
10
30.854810
20
279.995986
11
30.023061
21
279.303972
0
LINE
8
negative_3 outline
10
30.023061
20
279.303972
11
29.376245
21
278.559000
0
LINE
8
negative_3 outline
10
29.376245
20
278.559000
11
27.606131
21
276.466972
0
LINE
8
negative_3 outline
10
27.606131
20
276.466972
11
26.632982
21
275.667789
0
LINE
8
negative_3 outline
10
26.632982
20
275.667789
11
26.252491
21
275.609763
0
LINE
8
negative_3 outline
10
26.252491
20
275.609763
11
25.991522
21
275.886060
0
LINE
8
negative_3 outline
10
25.991522
20
275.886060
11
28.482529
21
278.829291
0
LINE
8
negative_3 outline
10
28.482529
20
278.829291
11
29.906810
21
280.141239
0
LINE
8
negative_3 outline
10
29.906810
20
280.141239
11
31.488680
21
281.244170
0
LINE
8
negative_3 outline
10
31.488680
20
281.244170
11
32.820271
21
281.776855
0
LINE
8
negative_3 outline
10
32.820271
20
281.776855
11
34.238155
21
281.986590
0
LINE
8
negative_3 outline
10
34.238155
20
281.986590
11
34.238155
21
281.986590
0
LINE
8
negative_3 outline
10
27.752248
20
281.167520
11
28.043749
21
281.059470
0
LINE
8
negative_3 outline
10
28.043749
20
281.059470
11
28.670217
21
281.005687
0
LINE
8
negative_3 outline
10
28.670217
20
281.005687
11
29.023740
21
280.845424
0
LINE
8
negative_3 outline
10
29.023740
20
280.845424
11
28.496403
21
280.417930
0
LINE
8
negative_3 outline
10
28.496403
20
280.417930
11
28.185110
21
279.980244
0
LINE
8
negative_3 outline
10
28.185110
20
279.980244
11
27.834559
21
279.839453
0
LINE
8
negative_3 outline
10
27.834559
20
279.839453
11
27.495561
21
279.923023
0
LINE
8
negative_3 outline
10
27.495561
20
279.923023
11
27.218927
21
280.158416
0
LINE
8
negative_3 outline
10
27.218927
20
280.158416
11
27.055467
21
280.473098
0
LINE
8
negative_3 outline
10
27.055467
20
280.473098
11
27.055994
21
280.794534
0
LINE
8
negative_3 outline
10
27.055994
20
280.794534
11
27.271317
21
281.050186
0
LINE
8
negative_3 outline
10
27.271317
20
281.050186
11
27.752248
21
281.167520
0
LINE
8
negative_3 outline
10
27.752248
20
281.167520
11
27.752248
21
281.167520
0
LINE
8
negative_3 outline
10
17.240745
20
280.020820
11
17.332314
21
279.807595
0
LINE
8
negative_3 outline
10
17.332314
20
279.807595
11
17.100389
21
279.469162
0
LINE
8
negative_3 outline
10
17.100389
20
279.469162
11
16.136174
21
278.497422
0
LINE
8
negative_3 outline
10
16.136174
20
278.497422
11
15.638947
21
277.904494
0
LINE
8
negative_3 outline
10
15.638947
20
277.904494
11
15.288347
21
277.267110
0
LINE
8
negative_3 outline
10
15.288347
20
277.267110
11
15.201905
21
276.605459
0
LINE
8
negative_3 outline
10
15.201905
20
276.605459
11
15.497152
21
275.939730
0
LINE
8
negative_3 outline
10
15.497152
20
275.939730
11
16.007637
21
275.550328
0
LINE
8
negative_3 outline
10
16.007637
20
275.550328
11
16.610144
21
275.192104
0
LINE
8
negative_3 outline
10
16.610144
20
275.192104
11
16.811305
21
274.876778
0
LINE
8
negative_3 outline
10
16.811305
20
274.876778
11
16.117751
21
274.616070
0
LINE
8
negative_3 outline
10
16.117751
20
274.616070
11
15.428957
21
275.122239
0
LINE
8
negative_3 outline
10
15.428957
20
275.122239
11
14.997132
21
275.874770
0
LINE
8
negative_3 outline
10
14.997132
20
275.874770
11
14.812244
21
276.774687
0
LINE
8
negative_3 outline
10
14.812244
20
276.774687
11
14.864262
21
277.723010
0
LINE
8
negative_3 outline
10
14.864262
20
277.723010
11
15.143153
21
278.620763
0
LINE
8
negative_3 outline
10
15.143153
20
278.620763
11
15.638885
21
279.368967
0
LINE
8
negative_3 outline
10
15.638885
20
279.368967
11
16.341427
21
279.868646
0
LINE
8
negative_3 outline
10
16.341427
20
279.868646
11
17.240745
21
280.020820
0
LINE
8
negative_3 outline
10
17.240745
20
280.020820
11
17.240745
21
280.020820
0
LINE
8
negative_3 outline
10
18.344037
20
275.191140
11
20.415563
21
274.912816
0
LINE
8
negative_3 outline
10
20.415563
20
274.912816
11
20.826572
21
274.735266
0
LINE
8
negative_3 outline
10
20.826572
20
274.735266
11
19.834749
21
274.518940
0
LINE
8
negative_3 outline
10
19.834749
20
274.518940
11
19.068310
21
274.483415
0
LINE
8
negative_3 outline
10
19.068310
20
274.483415
11
18.065346
21
274.677594
0
LINE
8
negative_3 outline
10
18.065346
20
274.677594
11
17.574405
21
274.960495
0
LINE
8
negative_3 outline
10
17.574405
20
274.960495
11
17.754865
21
275.091161
0
LINE
8
negative_3 outline
10
17.754865
20
275.091161
11
18.344037
21
275.191140
0
LINE
8
negative_3 outline
10
18.344037
20
275.191140
11
18.344037
21
275.191140
0
LINE
8
negative_3 outline
10
37.013185
20
270.746970
11
37.311770
21
269.725994
0
LINE
8
negative_3 outline
10
37.311770
20
269.725994
11
37.359792
21
268.686116
0
LINE
8
negative_3 outline
10
37.359792
20
268.686116
11
37.238715
21
266.575770
0
LINE
8
negative_3 outline
10
37.238715
20
266.575770
11
37.708531
21
266.548553
0
LINE
8
negative_3 outline
10
37.708531
20
266.548553
11
38.102263
21
266.214321
0
LINE
8
negative_3 outline
10
38.102263
20
266.214321
11
38.823620
21
265.018076
0
LINE
8
negative_3 outline
10
38.823620
20
265.018076
11
39.232318
21
264.352698
0
LINE
8
negative_3 outline
10
39.232318
20
264.352698
11
39.727077
21
263.773571
0
LINE
8
negative_3 outline
10
39.727077
20
263.773571
11
40.348434
21
263.379013
0
LINE
8
negative_3 outline
10
40.348434
20
263.379013
11
41.136925
21
263.267340
0
LINE
8
negative_3 outline
10
41.136925
20
263.267340
11
41.830490
21
262.703783
0
LINE
8
negative_3 outline
10
41.830490
20
262.703783
11
42.641482
21
262.525858
0
LINE
8
negative_3 outline
10
42.641482
20
262.525858
11
42.987023
21
262.629619
0
LINE
8
negative_3 outline
10
42.987023
20
262.629619
11
43.237131
21
262.887523
0
LINE
8
negative_3 outline
10
43.237131
20
262.887523
11
43.350211
21
263.318815
0
LINE
8
negative_3 outline
10
43.350211
20
263.318815
11
43.284665
21
263.942740
0
LINE
8
negative_3 outline
10
43.284665
20
263.942740
11
42.736924
21
264.518051
0
LINE
8
negative_3 outline
10
42.736924
20
264.518051
11
42.503617
21
265.231290
0
LINE
8
negative_3 outline
10
42.503617
20
265.231290
11
42.530170
21
265.481206
0
LINE
8
negative_3 outline
10
42.530170
20
265.481206
11
42.665684
21
265.575492
0
LINE
8
negative_3 outline
10
42.665684
20
265.575492
11
43.304065
21
265.043690
0
LINE
8
negative_3 outline
10
43.304065
20
265.043690
11
44.460241
21
262.373834
0
LINE
8
negative_3 outline
10
44.460241
20
262.373834
11
44.887470
21
260.996225
0
LINE
8
negative_3 outline
10
44.887470
20
260.996225
11
45.091755
21
259.660830
0
LINE
8
negative_3 outline
10
45.091755
20
259.660830
11
44.561838
21
259.700424
0
LINE
8
negative_3 outline
10
44.561838
20
259.700424
11
44.089775
21
259.914543
0
LINE
8
negative_3 outline
10
44.089775
20
259.914543
11
43.286011
21
260.566271
0
LINE
8
negative_3 outline
10
43.286011
20
260.566271
11
42.614062
21
261.015846
0
LINE
8
negative_3 outline
10
42.614062
20
261.015846
11
42.306767
21
260.977274
0
LINE
8
negative_3 outline
10
42.306767
20
260.977274
11
42.007525
21
260.663100
0
LINE
8
negative_3 outline
10
42.007525
20
260.663100
11
41.880050
21
261.622503
0
LINE
8
negative_3 outline
10
41.880050
20
261.622503
11
41.478024
21
262.334712
0
LINE
8
negative_3 outline
10
41.478024
20
262.334712
11
40.868792
21
262.864428
0
LINE
8
negative_3 outline
10
40.868792
20
262.864428
11
40.119701
21
263.276351
0
LINE
8
negative_3 outline
10
40.119701
20
263.276351
11
38.471325
21
264.005623
0
LINE
8
negative_3 outline
10
38.471325
20
264.005623
11
37.706733
21
264.452372
0
LINE
8
negative_3 outline
10
37.706733
20
264.452372
11
37.071665
21
265.040130
0
LINE
8
negative_3 outline
10
37.071665
20
265.040130
11
36.240053
21
266.374753
0
LINE
8
negative_3 outline
10
36.240053
20
266.374753
11
35.067874
21
267.514470
0
LINE
8
negative_3 outline
10
35.067874
20
267.514470
11
34.450641
21
267.823494
0
LINE
8
negative_3 outline
10
34.450641
20
267.823494
11
33.864149
21
267.858497
0
LINE
8
negative_3 outline
10
33.864149
20
267.858497
11
33.347025
21
267.544382
0
LINE
8
negative_3 outline
10
33.347025
20
267.544382
11
32.937897
21
266.806050
0
LINE
8
negative_3 outline
10
32.937897
20
266.806050
11
32.374335
21
267.240335
0
LINE
8
negative_3 outline
10
32.374335
20
267.240335
11
32.220651
21
267.583856
0
LINE
8
negative_3 outline
10
32.220651
20
267.583856
11
32.332436
21
268.278540
0
LINE
8
negative_3 outline
10
32.332436
20
268.278540
11
31.825809
21
268.560249
0
LINE
8
negative_3 outline
10
31.825809
20
268.560249
11
31.550334
21
268.847871
0
LINE
8
negative_3 outline
10
31.550334
20
268.847871
11
31.474092
21
269.111593
0
LINE
8
negative_3 outline
10
31.474092
20
269.111593
11
31.565169
21
269.321601
0
LINE
8
negative_3 outline
10
31.565169
20
269.321601
11
32.121606
21
269.461223
0
LINE
8
negative_3 outline
10
32.121606
20
269.461223
11
32.964313
21
269.028230
0
LINE
8
negative_3 outline
10
32.964313
20
269.028230
11
33.749272
21
268.639297
0
LINE
8
negative_3 outline
10
33.749272
20
268.639297
11
34.310025
21
268.596826
0
LINE
8
negative_3 outline
10
34.310025
20
268.596826
11
34.718839
21
268.813841
0
LINE
8
negative_3 outline
10
34.718839
20
268.813841
11
35.047981
21
269.203364
0
LINE
8
negative_3 outline
10
35.047981
20
269.203364
11
35.756313
21
270.152019
0
LINE
8
negative_3 outline
10
35.756313
20
270.152019
11
36.280037
21
270.537197
0
LINE
8
negative_3 outline
10
36.280037
20
270.537197
11
37.013155
21
270.746970
0
LINE
8
negative_3 outline
10
37.013155
20
270.746970
11
37.013185
21
270.746970
0
LINE
8
negative_3 outline
10
38.245145
20
269.293310
11
39.479129
21
268.919232
0
LINE
8
negative_3 outline
10
39.479129
20
268.919232
11
40.774529
21
268.133211
0
LINE
8
negative_3 outline
10
40.774529
20
268.133211
11
41.737962
21
267.215695
0
LINE
8
negative_3 outline
10
41.737962
20
267.215695
11
41.972259
21
266.795266
0
LINE
8
negative_3 outline
10
41.972259
20
266.795266
11
41.976045
21
266.447130
0
LINE
8
negative_3 outline
10
41.976045
20
266.447130
11
40.941148
21
267.053955
0
LINE
8
negative_3 outline
10
40.941148
20
267.053955
11
39.970337
21
267.891138
0
LINE
8
negative_3 outline
10
39.970337
20
267.891138
11
39.069655
21
268.717861
0
LINE
8
negative_3 outline
10
39.069655
20
268.717861
11
38.245145
21
269.293310
0
LINE
8
negative_3 outline
10
38.245145
20
269.293310
11
38.245145
21
269.293310
0
LINE
8
negative_3 outline
10
44.239575
20
258.023870
11
44.374166
21
256.837013
0
LINE
8
negative_3 outline
10
44.374166
20
256.837013
11
44.215785
21
255.819324
0
LINE
8
negative_3 outline
10
44.215785
20
255.819324
11
43.845984
21
254.914971
0
LINE
8
negative_3 outline
10
43.845984
20
254.914971
11
43.346312
21
254.068119
0
LINE
8
negative_3 outline
10
43.346312
20
254.068119
11
42.283568
21
252.323586
0
LINE
8
negative_3 outline
10
42.283568
20
252.323586
11
41.883598
21
251.314239
0
LINE
8
negative_3 outline
10
41.883598
20
251.314239
11
41.679965
21
250.139060
0
LINE
8
negative_3 outline
10
41.679965
20
250.139060
11
41.086827
21
248.345651
0
LINE
8
negative_3 outline
10
41.086827
20
248.345651
11
40.584288
21
247.408497
0
LINE
8
negative_3 outline
10
40.584288
20
247.408497
11
39.970327
21
246.581185
0
LINE
8
negative_3 outline
10
39.970327
20
246.581185
11
39.264363
21
245.966324
0
LINE
8
negative_3 outline
10
39.264363
20
245.966324
11
38.485814
21
245.666521
0
LINE
8
negative_3 outline
10
38.485814
20
245.666521
11
37.654099
21
245.784384
0
LINE
8
negative_3 outline
10
37.654099
20
245.784384
11
36.788635
21
246.422520
0
LINE
8
negative_3 outline
10
36.788635
20
246.422520
11
36.460112
21
246.891759
0
LINE
8
negative_3 outline
10
36.460112
20
246.891759
11
36.315239
21
247.324066
0
LINE
8
negative_3 outline
10
36.315239
20
247.324066
11
36.450476
21
247.935086
0
LINE
8
negative_3 outline
10
36.450476
20
247.935086
11
36.667604
21
248.042397
0
LINE
8
negative_3 outline
10
36.667604
20
248.042397
11
36.942415
21
247.969973
0
LINE
8
negative_3 outline
10
36.942415
20
247.969973
11
37.243420
21
247.682114
0
LINE
8
negative_3 outline
10
37.243420
20
247.682114
11
37.539125
21
247.143120
0
LINE
8
negative_3 outline
10
37.539125
20
247.143120
11
38.450631
21
246.815696
0
LINE
8
negative_3 outline
10
38.450631
20
246.815696
11
39.210254
21
246.989479
0
LINE
8
negative_3 outline
10
39.210254
20
246.989479
11
39.833809
21
247.553541
0
LINE
8
negative_3 outline
10
39.833809
20
247.553541
11
40.337111
21
248.396951
0
LINE
8
negative_3 outline
10
40.337111
20
248.396951
11
41.046213
21
250.478105
0
LINE
8
negative_3 outline
10
41.046213
20
250.478105
11
41.464075
21
252.345510
0
LINE
8
negative_3 outline
10
41.464075
20
252.345510
11
42.313129
21
253.862075
0
LINE
8
negative_3 outline
10
42.313129
20
253.862075
11
43.170316
21
255.070664
0
LINE
8
negative_3 outline
10
43.170316
20
255.070664
11
43.868258
21
256.336266
0
LINE
8
negative_3 outline
10
43.868258
20
256.336266
11
44.239575
21
258.023870
0
LINE
8
negative_3 outline
10
44.239575
20
258.023870
11
44.239575
21
258.023870
0
LINE
8
negative_3 outline
10
37.490675
20
251.194160
11
37.855445
21
250.316484
0
LINE
8
negative_3 outline
10
37.855445
20
250.316484
11
38.183546
21
250.103882
0
LINE
8
negative_3 outline
10
38.183546
20
250.103882
11
38.745395
21
250.022210
0
LINE
8
negative_3 outline
10
38.745395
20
250.022210
11
37.939635
21
249.565096
0
LINE
8
negative_3 outline
10
37.939635
20
249.565096
11
37.068691
21
249.228491
0
LINE
8
negative_3 outline
10
37.068691
20
249.228491
11
35.231155
21
248.739282
0
LINE
8
negative_3 outline
10
35.231155
20
248.739282
11
33.432598
21
248.199536
0
LINE
8
negative_3 outline
10
33.432598
20
248.199536
11
32.610377
21
247.799757
0
LINE
8
negative_3 outline
10
32.610377
20
247.799757
11
31.872829
21
247.254200
0
LINE
8
negative_3 outline
10
31.872829
20
247.254200
11
31.830712
21
246.691678
0
LINE
8
negative_3 outline
10
31.830712
20
246.691678
11
31.669527
21
246.318524
0
LINE
8
negative_3 outline
10
31.669527
20
246.318524
11
31.424234
21
246.118628
0
LINE
8
negative_3 outline
10
31.424234
20
246.118628
11
31.129790
21
246.075880
0
LINE
8
negative_3 outline
10
31.129790
20
246.075880
11
30.533289
21
246.397386
0
LINE
8
negative_3 outline
10
30.533289
20
246.397386
11
30.159696
21
247.154160
0
LINE
8
negative_3 outline
10
30.159696
20
247.154160
11
28.997108
21
247.186373
0
LINE
8
negative_3 outline
10
28.997108
20
247.186373
11
27.541028
21
247.625494
0
LINE
8
negative_3 outline
10
27.541028
20
247.625494
11
24.653083
21
248.753730
0
LINE
8
negative_3 outline
10
24.653083
20
248.753730
11
23.514663
21
248.144298
0
LINE
8
negative_3 outline
10
23.514663
20
248.144298
11
22.261175
21
247.312259
0
LINE
8
negative_3 outline
10
22.261175
20
247.312259
11
21.664595
21
247.030598
0
LINE
8
negative_3 outline
10
21.664595
20
247.030598
11
21.127224
21
246.954690
0
LINE
8
negative_3 outline
10
21.127224
20
246.954690
11
20.678389
21
247.171669
0
LINE
8
negative_3 outline
10
20.678389
20
247.171669
11
20.347415
21
247.768670
0
LINE
8
negative_3 outline
10
20.347415
20
247.768670
11
22.254689
21
248.683119
0
LINE
8
negative_3 outline
10
22.254689
20
248.683119
11
24.205066
21
249.218121
0
LINE
8
negative_3 outline
10
24.205066
20
249.218121
11
25.192703
21
249.280478
0
LINE
8
negative_3 outline
10
25.192703
20
249.280478
11
26.186656
21
249.172550
0
LINE
8
negative_3 outline
10
26.186656
20
249.172550
11
27.185440
21
248.869198
0
LINE
8
negative_3 outline
10
27.185440
20
248.869198
11
28.187569
21
248.345280
0
LINE
8
negative_3 outline
10
28.187569
20
248.345280
11
29.581300
21
248.028665
0
LINE
8
negative_3 outline
10
29.581300
20
248.028665
11
30.961717
21
248.072429
0
LINE
8
negative_3 outline
10
30.961717
20
248.072429
11
31.585461
21
248.259889
0
LINE
8
negative_3 outline
10
31.585461
20
248.259889
11
32.132109
21
248.573969
0
LINE
8
negative_3 outline
10
32.132109
20
248.573969
11
32.577073
21
249.026841
0
LINE
8
negative_3 outline
10
32.577073
20
249.026841
11
32.895764
21
249.630680
0
LINE
8
negative_3 outline
10
32.895764
20
249.630680
11
33.476832
21
249.304950
0
LINE
8
negative_3 outline
10
33.476832
20
249.304950
11
34.149174
21
249.175205
0
LINE
8
negative_3 outline
10
34.149174
20
249.175205
11
34.866195
21
249.217905
0
LINE
8
negative_3 outline
10
34.866195
20
249.217905
11
35.581300
21
249.409509
0
LINE
8
negative_3 outline
10
35.581300
20
249.409509
11
36.819385
21
250.145268
0
LINE
8
negative_3 outline
10
36.819385
20
250.145268
11
37.249177
21
250.642342
0
LINE
8
negative_3 outline
10
37.249177
20
250.642342
11
37.490675
21
251.194160
0
LINE
8
negative_3 outline
10
37.490675
20
251.194160
11
37.490675
21
251.194160
0
LINE
8
negative_3 outline
10
24.707473
20
247.949390
11
24.210380
21
246.394796
0
LINE
8
negative_3 outline
10
24.210380
20
246.394796
11
23.629712
21
244.716789
0
LINE
8
negative_3 outline
10
23.629712
20
244.716789
11
23.477806
21
243.870231
0
LINE
8
negative_3 outline
10
23.477806
20
243.870231
11
23.508730
21
243.039290
0
LINE
8
negative_3 outline
10
23.508730
20
243.039290
11
23.790392
21
242.239456
0
LINE
8
negative_3 outline
10
23.790392
20
242.239456
11
24.390700
21
241.486220
0
LINE
8
negative_3 outline
10
24.390700
20
241.486220
11
24.948817
21
240.789106
0
LINE
8
negative_3 outline
10
24.948817
20
240.789106
11
25.734357
21
240.071811
0
LINE
8
negative_3 outline
10
25.734357
20
240.071811
11
27.394041
21
238.590994
0
LINE
8
negative_3 outline
10
27.394041
20
238.590994
11
27.971354
21
237.834631
0
LINE
8
negative_3 outline
10
27.971354
20
237.834631
11
28.182424
21
237.072405
0
LINE
8
negative_3 outline
10
28.182424
20
237.072405
11
27.878836
21
236.307895
0
LINE
8
negative_3 outline
10
27.878836
20
236.307895
11
26.912175
21
235.544680
0
LINE
8
negative_3 outline
10
26.912175
20
235.544680
11
26.507053
21
235.926747
0
LINE
8
negative_3 outline
10
26.507053
20
235.926747
11
26.259329
21
236.500942
0
LINE
8
negative_3 outline
10
26.259329
20
236.500942
11
25.960602
21
237.934935
0
LINE
8
negative_3 outline
10
25.960602
20
237.934935
11
25.771865
21
238.649345
0
LINE
8
negative_3 outline
10
25.771865
20
238.649345
11
25.465054
21
239.265106
0
LINE
8
negative_3 outline
10
25.465054
20
239.265106
11
24.971303
21
239.709522
0
LINE
8
negative_3 outline
10
24.971303
20
239.709522
11
24.221743
21
239.909900
0
LINE
8
negative_3 outline
10
24.221743
20
239.909900
11
23.849497
21
239.770487
0
LINE
8
negative_3 outline
10
23.849497
20
239.770487
11
23.583076
21
239.518413
0
LINE
8
negative_3 outline
10
23.583076
20
239.518413
11
23.300275
21
238.798581
0
LINE
8
negative_3 outline
10
23.300275
20
238.798581
11
23.262817
21
237.352230
0
LINE
8
negative_3 outline
10
23.262817
20
237.352230
11
23.211447
21
237.137040
0
LINE
8
negative_3 outline
10
23.211447
20
237.137040
11
22.932465
21
237.798900
0
LINE
8
negative_3 outline
10
22.932465
20
237.798900
11
22.834062
21
239.214574
0
LINE
8
negative_3 outline
10
22.834062
20
239.214574
11
22.774695
21
239.343299
0
LINE
8
negative_3 outline
10
22.774695
20
239.343299
11
22.686658
21
238.498560
0
LINE
8
negative_3 outline
10
22.686658
20
238.498560
11
22.497015
21
237.660183
0
LINE
8
negative_3 outline
10
22.497015
20
237.660183
11
22.442835
21
236.770010
0
LINE
8
negative_3 outline
10
22.442835
20
236.770010
11
22.526795
21
234.934171
0
LINE
8
negative_3 outline
10
22.526795
20
234.934171
11
22.510414
21
233.190840
0
LINE
8
negative_3 outline
10
22.510414
20
233.190840
11
22.330805
21
232.416300
0
LINE
8
negative_3 outline
10
22.330805
20
232.416300
11
21.965564
21
231.739810
0
LINE
8
negative_3 outline
10
21.965564
20
231.739810
11
21.596222
21
232.492642
0
LINE
8
negative_3 outline
10
21.596222
20
232.492642
11
21.493349
21
233.299426
0
LINE
8
negative_3 outline
10
21.493349
20
233.299426
11
21.750485
21
235.007923
0
LINE
8
negative_3 outline
10
21.750485
20
235.007923
11
22.063927
21
236.731438
0
LINE
8
negative_3 outline
10
22.063927
20
236.731438
11
22.031434
21
237.556996
0
LINE
8
negative_3 outline
10
22.031434
20
237.556996
11
21.760626
21
238.336110
0
LINE
8
negative_3 outline
10
21.760626
20
238.336110
11
21.114850
21
238.029881
0
LINE
8
negative_3 outline
10
21.114850
20
238.029881
11
20.620866
21
237.476663
0
LINE
8
negative_3 outline
10
20.620866
20
237.476663
11
19.862524
21
236.006321
0
LINE
8
negative_3 outline
10
19.862524
20
236.006321
11
19.485294
21
235.277729
0
LINE
8
negative_3 outline
10
19.485294
20
235.277729
11
19.034110
21
234.679209
0
LINE
8
negative_3 outline
10
19.034110
20
234.679209
11
18.452535
21
234.305028
0
LINE
8
negative_3 outline
10
18.452535
20
234.305028
11
17.684133
21
234.249450
0
LINE
8
negative_3 outline
10
17.684133
20
234.249450
11
18.404309
21
236.039847
0
LINE
8
negative_3 outline
10
18.404309
20
236.039847
11
19.391714
21
237.697814
0
LINE
8
negative_3 outline
10
19.391714
20
237.697814
11
21.722804
21
240.748190
0
LINE
8
negative_3 outline
10
21.722804
20
240.748190
11
21.796234
21
241.321026
0
LINE
8
negative_3 outline
10
21.796234
20
241.321026
11
21.722529
21
241.990137
0
LINE
8
negative_3 outline
10
21.722529
20
241.990137
11
21.377105
21
243.427894
0
LINE
8
negative_3 outline
10
21.377105
20
243.427894
11
21.173312
21
244.682873
0
LINE
8
negative_3 outline
10
21.173312
20
244.682873
11
21.276645
21
245.123514
0
LINE
8
negative_3 outline
10
21.276645
20
245.123514
11
21.597927
21
245.376490
0
LINE
8
negative_3 outline
10
21.597927
20
245.376490
11
21.763777
21
243.919409
0
LINE
8
negative_3 outline
10
21.763777
20
243.919409
11
22.181970
21
242.423180
0
LINE
8
negative_3 outline
10
22.181970
20
242.423180
11
22.516156
21
241.808291
0
LINE
8
negative_3 outline
10
22.516156
20
241.808291
11
22.949982
21
241.361103
0
LINE
8
negative_3 outline
10
22.949982
20
241.361103
11
23.495633
21
241.140779
0
LINE
8
negative_3 outline
10
23.495633
20
241.140779
11
24.165294
21
241.206480
0
LINE
8
negative_3 outline
10
24.165294
20
241.206480
11
23.561057
21
241.991654
0
LINE
8
negative_3 outline
10
23.561057
20
241.991654
11
23.097582
21
242.886150
0
LINE
8
negative_3 outline
10
23.097582
20
242.886150
11
22.800489
21
243.843550
0
LINE
8
negative_3 outline
10
22.800489
20
243.843550
11
22.695399
21
244.817432
0
LINE
8
negative_3 outline
10
22.695399
20
244.817432
11
22.807932
21
245.761378
0
LINE
8
negative_3 outline
10
22.807932
20
245.761378
11
23.163708
21
246.628966
0
LINE
8
negative_3 outline
10
23.163708
20
246.628966
11
23.788348
21
247.373777
0
LINE
8
negative_3 outline
10
23.788348
20
247.373777
11
24.707473
21
247.949390
0
LINE
8
negative_3 outline
10
24.707473
20
247.949390
11
24.707473
21
247.949390
0
LINE
8
negative_3 outline
10
39.299865
20
245.038460
11
38.097877
21
241.856669
0
LINE
8
negative_3 outline
10
38.097877
20
241.856669
11
36.908865
21
238.563270
0
LINE
8
negative_3 outline
10
36.908865
20
238.563270
11
35.988517
21
235.164173
0
LINE
8
negative_3 outline
10
35.988517
20
235.164173
11
35.627124
21
233.460546
0
LINE
8
negative_3 outline
10
35.627124
20
233.460546
11
35.496345
21
231.801300
0
LINE
8
negative_3 outline
10
35.496345
20
231.801300
11
37.354021
21
230.238714
0
LINE
8
negative_3 outline
10
37.354021
20
230.238714
11
37.689053
21
229.870565
0
LINE
8
negative_3 outline
10
37.689053
20
229.870565
11
37.779812
21
229.620267
0
LINE
8
negative_3 outline
10
37.779812
20
229.620267
11
37.530039
21
229.542246
0
LINE
8
negative_3 outline
10
37.530039
20
229.542246
11
36.843475
21
229.690930
0
LINE
8
negative_3 outline
10
36.843475
20
229.690930
11
35.673836
21
230.072437
0
LINE
8
negative_3 outline
10
35.673836
20
230.072437
11
34.777491
21
230.648263
0
LINE
8
negative_3 outline
10
34.777491
20
230.648263
11
34.506851
21
231.034717
0
LINE
8
negative_3 outline
10
34.506851
20
231.034717
11
34.394590
21
231.500557
0
LINE
8
negative_3 outline
10
34.394590
20
231.500557
11
34.470729
21
232.056052
0
LINE
8
negative_3 outline
10
34.470729
20
232.056052
11
34.765285
21
232.711470
0
LINE
8
negative_3 outline
10
34.765285
20
232.711470
11
35.643902
21
236.557091
0
LINE
8
negative_3 outline
10
35.643902
20
236.557091
11
36.637315
21
240.353040
0
LINE
8
negative_3 outline
10
36.637315
20
240.353040
11
36.873585
21
241.772491
0
LINE
8
negative_3 outline
10
36.873585
20
241.772491
11
37.275099
21
243.181881
0
LINE
8
negative_3 outline
10
37.275099
20
243.181881
11
37.594542
21
243.809990
0
LINE
8
negative_3 outline
10
37.594542
20
243.809990
11
38.023359
21
244.348206
0
LINE
8
negative_3 outline
10
38.023359
20
244.348206
11
38.584237
21
244.767405
0
LINE
8
negative_3 outline
10
38.584237
20
244.767405
11
39.299865
21
245.038460
0
LINE
8
negative_3 outline
10
39.299865
20
245.038460
11
39.299865
21
245.038460
0
LINE
8
negative_3 outline
10
34.802985
20
240.433570
11
35.303697
21
240.282320
0
LINE
8
negative_3 outline
10
35.303697
20
240.282320
11
35.595981
21
239.942941
0
LINE
8
negative_3 outline
10
35.595981
20
239.942941
11
35.709853
21
239.507901
0
LINE
8
negative_3 outline
10
35.709853
20
239.507901
11
35.675332
21
239.069669
0
LINE
8
negative_3 outline
10
35.675332
20
239.069669
11
35.522437
21
238.720712
0
LINE
8
negative_3 outline
10
35.522437
20
238.720712
11
35.281183
21
238.553500
0
LINE
8
negative_3 outline
10
35.281183
20
238.553500
11
34.981590
21
238.660499
0
LINE
8
negative_3 outline
10
34.981590
20
238.660499
11
34.653675
21
239.134180
0
LINE
8
negative_3 outline
10
34.653675
20
239.134180
11
33.927622
21
238.923656
0
LINE
8
negative_3 outline
10
33.927622
20
238.923656
11
33.274246
21
238.582264
0
LINE
8
negative_3 outline
10
33.274246
20
238.582264
11
32.274484
21
237.581972
0
LINE
8
negative_3 outline
10
32.274484
20
237.581972
11
31.972579
21
236.960619
0
LINE
8
negative_3 outline
10
31.972579
20
236.960619
11
31.832313
21
236.283492
0
LINE
8
negative_3 outline
10
31.832313
20
236.283492
11
31.875925
21
235.569364
0
LINE
8
negative_3 outline
10
31.875925
20
235.569364
11
32.125656
21
234.837010
0
LINE
8
negative_3 outline
10
32.125656
20
234.837010
11
33.228746
21
232.757035
0
LINE
8
negative_3 outline
10
33.228746
20
232.757035
11
33.349525
21
232.374850
0
LINE
8
negative_3 outline
10
33.349525
20
232.374850
11
33.271727
21
232.188802
0
LINE
8
negative_3 outline
10
33.271727
20
232.188802
11
32.927062
21
232.269400
0
LINE
8
negative_3 outline
10
32.927062
20
232.269400
11
32.247240
21
232.687150
0
LINE
8
negative_3 outline
10
32.247240
20
232.687150
11
31.438373
21
233.253494
0
LINE
8
negative_3 outline
10
31.438373
20
233.253494
11
30.819944
21
233.968562
0
LINE
8
negative_3 outline
10
30.819944
20
233.968562
11
30.409195
21
234.782387
0
LINE
8
negative_3 outline
10
30.409195
20
234.782387
11
30.223369
21
235.645004
0
LINE
8
negative_3 outline
10
30.223369
20
235.645004
11
30.279709
21
236.506446
0
LINE
8
negative_3 outline
10
30.279709
20
236.506446
11
30.595458
21
237.316749
0
LINE
8
negative_3 outline
10
30.595458
20
237.316749
11
31.187858
21
238.025945
0
LINE
8
negative_3 outline
10
31.187858
20
238.025945
11
32.074152
21
238.584070
0
LINE
8
negative_3 outline
10
32.074152
20
238.584070
11
33.456690
21
239.483515
0
LINE
8
negative_3 outline
10
33.456690
20
239.483515
11
34.802985
21
240.433570
0
LINE
8
negative_3 outline
10
34.802985
20
240.433570
11
34.802985
21
240.433570
0
LINE
8
negative_3 outline
10
37.373365
20
238.218720
11
38.501525
21
236.725031
0
LINE
8
negative_3 outline
10
38.501525
20
236.725031
11
39.468810
21
235.100156
0
LINE
8
negative_3 outline
10
39.468810
20
235.100156
11
40.067245
21
233.336849
0
LINE
8
negative_3 outline
10
40.067245
20
233.336849
11
40.163152
21
232.401017
0
LINE
8
negative_3 outline
10
40.163152
20
232.401017
11
40.088855
21
231.427860
0
LINE
8
negative_3 outline
10
40.088855
20
231.427860
11
39.973680
21
230.504268
0
LINE
8
negative_3 outline
10
39.973680
20
230.504268
11
39.546264
21
229.729844
0
LINE
8
negative_3 outline
10
39.546264
20
229.729844
11
39.327175
21
229.556550
0
LINE
8
negative_3 outline
10
39.327175
20
229.556550
11
39.164078
21
229.610123
0
LINE
8
negative_3 outline
10
39.164078
20
229.610123
11
39.101657
21
229.953756
0
LINE
8
negative_3 outline
10
39.101657
20
229.953756
11
39.184595
21
230.650640
0
LINE
8
negative_3 outline
10
39.184595
20
230.650640
11
39.442152
21
231.564647
0
LINE
8
negative_3 outline
10
39.442152
20
231.564647
11
39.436166
21
232.418903
0
LINE
8
negative_3 outline
10
39.436166
20
232.418903
11
39.225835
21
233.227257
0
LINE
8
negative_3 outline
10
39.225835
20
233.227257
11
38.870360
21
234.003560
0
LINE
8
negative_3 outline
10
38.870360
20
234.003560
11
37.960769
21
235.515407
0
LINE
8
negative_3 outline
10
37.960769
20
235.515407
11
37.180985
21
237.065240
0
LINE
8
negative_3 outline
10
37.180985
20
237.065240
11
37.193182
21
237.655645
0
LINE
8
negative_3 outline
10
37.193182
20
237.655645
11
37.373365
21
238.218720
0
LINE
8
negative_3 outline
10
37.373365
20
238.218720
11
37.373365
21
238.218720
0
LINE
8
negative_3 outline
10
24.674400
20
233.963170
11
24.242167
21
233.181374
0
LINE
8
negative_3 outline
10
24.242167
20
233.181374
11
23.542539
21
232.490794
0
LINE
8
negative_3 outline
10
23.542539
20
232.490794
11
23.268073
21
232.325570
0
LINE
8
negative_3 outline
10
23.268073
20
232.325570
11
23.137505
21
232.358182
0
LINE
8
negative_3 outline
10
23.137505
20
232.358182
11
23.589057
21
233.250290
0
LINE
8
negative_3 outline
10
23.589057
20
233.250290
11
24.056385
21
233.727022
0
LINE
8
negative_3 outline
10
24.056385
20
233.727022
11
24.674400
21
233.963170
0
LINE
8
negative_3 outline
10
24.674400
20
233.963170
11
24.674400
21
233.963170
0
LINE
8
negative_3 outline
10
18.256187
20
233.653620
11
18.941915
21
232.928505
0
LINE
8
negative_3 outline
10
18.941915
20
232.928505
11
19.775839
21
232.443857
0
LINE
8
negative_3 outline
10
19.775839
20
232.443857
11
20.615825
21
232.275818
0
LINE
8
negative_3 outline
10
20.615825
20
232.275818
11
21.319737
21
232.500530
0
LINE
8
negative_3 outline
10
21.319737
20
232.500530
11
21.133461
21
232.033911
0
LINE
8
negative_3 outline
10
21.133461
20
232.033911
11
20.668056
21
231.779259
0
LINE
8
negative_3 outline
10
20.668056
20
231.779259
11
20.034991
21
231.717841
0
LINE
8
negative_3 outline
10
20.034991
20
231.717841
11
19.345735
21
231.830924
0
LINE
8
negative_3 outline
10
19.345735
20
231.830924
11
18.711757
21
232.099776
0
LINE
8
negative_3 outline
10
18.711757
20
232.099776
11
18.244527
21
232.505664
0
LINE
8
negative_3 outline
10
18.244527
20
232.505664
11
18.055514
21
233.029856
0
LINE
8
negative_3 outline
10
18.055514
20
233.029856
11
18.256187
21
233.653620
0
LINE
8
negative_3 outline
10
18.256187
20
233.653620
11
18.256187
21
233.653620
 0 
ENDSEC
 0 
EOF