999
"DXF R12 Output" (www.mydxf.blogspot.com)
 0 
SECTION
 2 
HEADER
 9 
$ACADVER
 1 
AC1009
 9 
$EXTMIN
 10 
 0 
 20 
 0 
 9 
$EXTMAX
 10 
 8.5 
 20 
 11 
 0 
ENDSEC
 0 
SECTION
 2 
ENTITIES
0
LINE
8
negative_3 outline
10
91.815638
20
207.567990
11
91.047353
21
207.543912
0
LINE
8
negative_3 outline
10
91.047353
20
207.543912
11
90.350967
21
207.353231
0
LINE
8
negative_3 outline
10
90.350967
20
207.353231
11
89.119073
21
206.624240
0
LINE
8
negative_3 outline
10
89.119073
20
206.624240
11
88.010309
21
205.685384
0
LINE
8
negative_3 outline
10
88.010309
20
205.685384
11
86.915030
21
204.841030
0
LINE
8
negative_3 outline
10
86.915030
20
204.841030
11
85.123487
21
204.158385
0
LINE
8
negative_3 outline
10
85.123487
20
204.158385
11
83.344750
21
203.340134
0
LINE
8
negative_3 outline
10
83.344750
20
203.340134
11
81.797276
21
202.226793
0
LINE
8
negative_3 outline
10
81.797276
20
202.226793
11
81.178530
21
201.509626
0
LINE
8
negative_3 outline
10
81.178530
20
201.509626
11
80.699521
21
200.658880
0
LINE
8
negative_3 outline
10
80.699521
20
200.658880
11
79.420718
21
200.182834
0
LINE
8
negative_3 outline
10
79.420718
20
200.182834
11
78.422296
21
199.330075
0
LINE
8
negative_3 outline
10
78.422296
20
199.330075
11
77.722276
21
198.208158
0
LINE
8
negative_3 outline
10
77.722276
20
198.208158
11
77.338684
21
196.924634
0
LINE
8
negative_3 outline
10
77.338684
20
196.924634
11
77.289543
21
195.587057
0
LINE
8
negative_3 outline
10
77.289543
20
195.587057
11
77.592876
21
194.302980
0
LINE
8
negative_3 outline
10
77.592876
20
194.302980
11
78.266708
21
193.179957
0
LINE
8
negative_3 outline
10
78.266708
20
193.179957
11
79.329062
21
192.325540
0
LINE
8
negative_3 outline
10
79.329062
20
192.325540
11
80.745053
21
192.109673
0
LINE
8
negative_3 outline
10
80.745053
20
192.109673
11
82.459764
21
191.958964
0
LINE
8
negative_3 outline
10
82.459764
20
191.958964
11
83.944399
21
191.748627
0
LINE
8
negative_3 outline
10
83.944399
20
191.748627
11
84.435188
21
191.582104
0
LINE
8
negative_3 outline
10
84.435188
20
191.582104
11
84.670160
21
191.353880
0
LINE
8
negative_3 outline
10
84.670160
20
191.353880
11
83.211396
21
190.476787
0
LINE
8
negative_3 outline
10
83.211396
20
190.476787
11
81.896734
21
189.372733
0
LINE
8
negative_3 outline
10
81.896734
20
189.372733
11
80.755247
21
188.078011
0
LINE
8
negative_3 outline
10
80.755247
20
188.078011
11
79.816008
21
186.628915
0
LINE
8
negative_3 outline
10
79.816008
20
186.628915
11
79.108092
21
185.061737
0
LINE
8
negative_3 outline
10
79.108092
20
185.061737
11
78.660570
21
183.412769
0
LINE
8
negative_3 outline
10
78.660570
20
183.412769
11
78.502516
21
181.718306
0
LINE
8
negative_3 outline
10
78.502516
20
181.718306
11
78.663004
21
180.014640
0
LINE
8
negative_3 outline
10
78.663004
20
180.014640
11
80.266359
21
175.829574
0
LINE
8
negative_3 outline
10
80.266359
20
175.829574
11
80.908211
21
173.692108
0
LINE
8
negative_3 outline
10
80.908211
20
173.692108
11
81.216980
21
171.468340
0
LINE
8
negative_3 outline
10
81.216980
20
171.468340
11
81.388347
21
169.977139
0
LINE
8
negative_3 outline
10
81.388347
20
169.977139
11
81.839326
21
168.561155
0
LINE
8
negative_3 outline
10
81.839326
20
168.561155
11
82.889882
21
165.806010
0
LINE
8
negative_3 outline
10
82.889882
20
165.806010
11
83.542505
21
164.067593
0
LINE
8
negative_3 outline
10
83.542505
20
164.067593
11
83.964005
21
162.259621
0
LINE
8
negative_3 outline
10
83.964005
20
162.259621
11
84.014015
21
161.353649
0
LINE
8
negative_3 outline
10
84.014015
20
161.353649
11
83.917360
21
160.459204
0
LINE
8
negative_3 outline
10
83.917360
20
160.459204
11
83.644412
21
159.585925
0
LINE
8
negative_3 outline
10
83.644412
20
159.585925
11
83.165545
21
158.743450
0
LINE
8
negative_3 outline
10
83.165545
20
158.743450
11
82.123752
21
157.549102
0
LINE
8
negative_3 outline
10
82.123752
20
157.549102
11
81.182160
21
156.309618
0
LINE
8
negative_3 outline
10
81.182160
20
156.309618
11
80.476770
21
154.945802
0
LINE
8
negative_3 outline
10
80.476770
20
154.945802
11
80.143582
21
153.378460
0
LINE
8
negative_3 outline
10
80.143582
20
153.378460
11
80.347946
21
151.915259
0
LINE
8
negative_3 outline
10
80.347946
20
151.915259
11
80.988894
21
150.616300
0
LINE
8
negative_3 outline
10
80.988894
20
150.616300
11
81.466168
21
150.092044
0
LINE
8
negative_3 outline
10
81.466168
20
150.092044
11
82.044286
21
149.685209
0
LINE
8
negative_3 outline
10
82.044286
20
149.685209
11
82.720481
21
149.421246
0
LINE
8
negative_3 outline
10
82.720481
20
149.421246
11
83.491985
21
149.325610
0
LINE
8
negative_3 outline
10
83.491985
20
149.325610
11
85.128931
21
149.383501
0
LINE
8
negative_3 outline
10
85.128931
20
149.383501
11
86.795216
21
149.561866
0
LINE
8
negative_3 outline
10
86.795216
20
149.561866
11
88.325066
21
150.070015
0
LINE
8
negative_3 outline
10
88.325066
20
150.070015
11
88.987024
21
150.513169
0
LINE
8
negative_3 outline
10
88.987024
20
150.513169
11
89.552708
21
151.117260
0
LINE
8
negative_3 outline
10
89.552708
20
151.117260
11
90.235374
21
151.865602
0
LINE
8
negative_3 outline
10
90.235374
20
151.865602
11
90.980403
21
152.314406
0
LINE
8
negative_3 outline
10
90.980403
20
152.314406
11
91.764567
21
152.494129
0
LINE
8
negative_3 outline
10
91.764567
20
152.494129
11
92.564637
21
152.435230
0
LINE
8
negative_3 outline
10
92.564637
20
152.435230
11
93.357386
21
152.168169
0
LINE
8
negative_3 outline
10
93.357386
20
152.168169
11
94.119586
21
151.723404
0
LINE
8
negative_3 outline
10
94.119586
20
151.723404
11
95.459424
21
150.422600
0
LINE
8
negative_3 outline
10
95.459424
20
150.422600
11
96.897533
21
149.103878
0
LINE
8
negative_3 outline
10
96.897533
20
149.103878
11
98.470852
21
147.953856
0
LINE
8
negative_3 outline
10
98.470852
20
147.953856
11
100.197533
21
147.088011
0
LINE
8
negative_3 outline
10
100.197533
20
147.088011
11
102.095730
21
146.621820
0
LINE
8
negative_3 outline
10
102.095730
20
146.621820
11
103.027888
21
146.717680
0
LINE
8
negative_3 outline
10
103.027888
20
146.717680
11
103.903924
21
147.052375
0
LINE
8
negative_3 outline
10
103.903924
20
147.052375
11
104.685100
21
147.585422
0
LINE
8
negative_3 outline
10
104.685100
20
147.585422
11
105.332675
21
148.276344
0
LINE
8
negative_3 outline
10
105.332675
20
148.276344
11
105.807912
21
149.084658
0
LINE
8
negative_3 outline
10
105.807912
20
149.084658
11
106.072071
21
149.969886
0
LINE
8
negative_3 outline
10
106.072071
20
149.969886
11
106.086413
21
150.891547
0
LINE
8
negative_3 outline
10
106.086413
20
150.891547
11
105.812200
21
151.809160
0
LINE
8
negative_3 outline
10
105.812200
20
151.809160
11
105.739311
21
152.729397
0
LINE
8
negative_3 outline
10
105.739311
20
152.729397
11
105.485302
21
153.588857
0
LINE
8
negative_3 outline
10
105.485302
20
153.588857
11
104.654760
21
155.194510
0
LINE
8
negative_3 outline
10
104.654760
20
155.194510
11
103.762253
21
156.764253
0
LINE
8
negative_3 outline
10
103.762253
20
156.764253
11
103.430787
21
157.578826
0
LINE
8
negative_3 outline
10
103.430787
20
157.578826
11
103.249460
21
158.436220
0
LINE
8
negative_3 outline
10
103.249460
20
158.436220
11
103.312488
21
159.387825
0
LINE
8
negative_3 outline
10
103.312488
20
159.387825
11
103.556600
21
160.281193
0
LINE
8
negative_3 outline
10
103.556600
20
160.281193
11
104.385389
21
161.960986
0
LINE
8
negative_3 outline
10
104.385389
20
161.960986
11
105.330455
21
163.611134
0
LINE
8
negative_3 outline
10
105.330455
20
163.611134
11
105.986430
21
165.367170
0
LINE
8
negative_3 outline
10
105.986430
20
165.367170
11
106.859458
21
167.524383
0
LINE
8
negative_3 outline
10
106.859458
20
167.524383
11
107.556501
21
169.754030
0
LINE
8
negative_3 outline
10
107.556501
20
169.754030
11
108.292164
21
171.970650
0
LINE
8
negative_3 outline
10
108.292164
20
171.970650
11
109.281050
21
174.088780
0
LINE
8
negative_3 outline
10
109.281050
20
174.088780
11
110.191848
21
175.857139
0
LINE
8
negative_3 outline
10
110.191848
20
175.857139
11
110.646125
21
177.750854
0
LINE
8
negative_3 outline
10
110.646125
20
177.750854
11
110.639527
21
179.688044
0
LINE
8
negative_3 outline
10
110.639527
20
179.688044
11
110.167700
21
181.586830
0
LINE
8
negative_3 outline
10
110.167700
20
181.586830
11
109.881395
21
182.692348
0
LINE
8
negative_3 outline
10
109.881395
20
182.692348
11
109.445240
21
183.722435
0
LINE
8
negative_3 outline
10
109.445240
20
183.722435
11
108.234123
21
185.603836
0
LINE
8
negative_3 outline
10
108.234123
20
185.603836
11
106.755837
21
187.326067
0
LINE
8
negative_3 outline
10
106.755837
20
187.326067
11
105.231870
21
188.984160
0
LINE
8
negative_3 outline
10
105.231870
20
188.984160
11
104.371985
21
189.570371
0
LINE
8
negative_3 outline
10
104.371985
20
189.570371
11
103.596893
21
190.237710
0
LINE
8
negative_3 outline
10
103.596893
20
190.237710
11
103.373804
21
190.599918
0
LINE
8
negative_3 outline
10
103.373804
20
190.599918
11
103.331107
21
190.980146
0
LINE
8
negative_3 outline
10
103.331107
20
190.980146
11
103.521864
21
191.377642
0
LINE
8
negative_3 outline
10
103.521864
20
191.377642
11
103.999140
21
191.791650
0
LINE
8
negative_3 outline
10
103.999140
20
191.791650
11
104.535344
21
192.430617
0
LINE
8
negative_3 outline
10
104.535344
20
192.430617
11
104.915802
21
193.147545
0
LINE
8
negative_3 outline
10
104.915802
20
193.147545
11
105.284735
21
194.741464
0
LINE
8
negative_3 outline
10
105.284735
20
194.741464
11
105.256446
21
196.425763
0
LINE
8
negative_3 outline
10
105.256446
20
196.425763
11
104.981440
21
198.052800
0
LINE
8
negative_3 outline
10
104.981440
20
198.052800
11
104.374312
21
199.801592
0
LINE
8
negative_3 outline
10
104.374312
20
199.801592
11
103.479916
21
201.414949
0
LINE
8
negative_3 outline
10
103.479916
20
201.414949
11
101.304270
21
204.380670
0
LINE
8
negative_3 outline
10
101.304270
20
204.380670
11
100.846857
21
205.246631
0
LINE
8
negative_3 outline
10
100.846857
20
205.246631
11
100.222953
21
205.921817
0
LINE
8
negative_3 outline
10
100.222953
20
205.921817
11
99.466250
21
206.431745
0
LINE
8
negative_3 outline
10
99.466250
20
206.431745
11
98.610442
21
206.801934
0
LINE
8
negative_3 outline
10
98.610442
20
206.801934
11
96.736282
21
207.225164
0
LINE
8
negative_3 outline
10
96.736282
20
207.225164
11
94.870016
21
207.395650
0
LINE
8
negative_3 outline
10
94.870016
20
207.395650
11
91.815638
21
207.567990
0
LINE
8
negative_3 outline
10
91.815638
20
207.567990
11
91.815638
21
207.567990
0
LINE
8
negative_3 outline
10
92.984042
20
205.822880
11
95.002769
21
205.768143
0
LINE
8
negative_3 outline
10
95.002769
20
205.768143
11
97.070878
21
205.472732
0
LINE
8
negative_3 outline
10
97.070878
20
205.472732
11
98.029025
21
205.152182
0
LINE
8
negative_3 outline
10
98.029025
20
205.152182
11
98.886208
21
204.672351
0
LINE
8
negative_3 outline
10
98.886208
20
204.672351
11
99.604656
21
204.000203
0
LINE
8
negative_3 outline
10
99.604656
20
204.000203
11
100.146600
21
203.102700
0
LINE
8
negative_3 outline
10
100.146600
20
203.102700
11
100.094547
21
202.632467
0
LINE
8
negative_3 outline
10
100.094547
20
202.632467
11
99.821110
21
202.498750
0
LINE
8
negative_3 outline
10
99.821110
20
202.498750
11
98.823542
21
202.849156
0
LINE
8
negative_3 outline
10
98.823542
20
202.849156
11
97.580824
21
203.370505
0
LINE
8
negative_3 outline
10
97.580824
20
203.370505
11
97.000949
21
203.450465
0
LINE
8
negative_3 outline
10
97.000949
20
203.450465
11
96.519884
21
203.279380
0
LINE
8
negative_3 outline
10
96.519884
20
203.279380
11
95.508996
21
203.271708
0
LINE
8
negative_3 outline
10
95.508996
20
203.271708
11
94.370499
21
203.089013
0
LINE
8
negative_3 outline
10
94.370499
20
203.089013
11
91.975153
21
202.622602
0
LINE
8
negative_3 outline
10
91.975153
20
202.622602
11
90.850541
21
202.550913
0
LINE
8
negative_3 outline
10
90.850541
20
202.550913
11
89.862793
21
202.728251
0
LINE
8
negative_3 outline
10
89.862793
20
202.728251
11
89.078029
21
203.260629
0
LINE
8
negative_3 outline
10
89.078029
20
203.260629
11
88.562366
21
204.254060
0
LINE
8
negative_3 outline
10
88.562366
20
204.254060
11
88.935035
21
204.725684
0
LINE
8
negative_3 outline
10
88.935035
20
204.725684
11
89.404139
21
205.079919
0
LINE
8
negative_3 outline
10
89.404139
20
205.079919
11
90.541661
21
205.513557
0
LINE
8
negative_3 outline
10
90.541661
20
205.513557
11
92.984042
21
205.822880
0
LINE
8
negative_3 outline
10
92.984042
20
205.822880
11
92.984042
21
205.822880
0
LINE
8
negative_3 outline
10
87.246925
20
203.225110
11
87.823534
21
202.739731
0
LINE
8
negative_3 outline
10
87.823534
20
202.739731
11
87.904814
21
202.348485
0
LINE
8
negative_3 outline
10
87.904814
20
202.348485
11
87.610614
21
202.029393
0
LINE
8
negative_3 outline
10
87.610614
20
202.029393
11
87.060784
21
201.760479
0
LINE
8
negative_3 outline
10
87.060784
20
201.760479
11
85.673632
21
201.285271
0
LINE
8
negative_3 outline
10
85.673632
20
201.285271
11
85.076008
21
201.035022
0
LINE
8
negative_3 outline
10
85.076008
20
201.035022
11
84.702152
21
200.747040
0
LINE
8
negative_3 outline
10
84.702152
20
200.747040
11
85.016657
21
198.566236
0
LINE
8
negative_3 outline
10
85.016657
20
198.566236
11
84.900867
21
197.566565
0
LINE
8
negative_3 outline
10
84.900867
20
197.566565
11
84.657597
21
197.330498
0
LINE
8
negative_3 outline
10
84.657597
20
197.330498
11
84.246131
21
197.362120
0
LINE
8
negative_3 outline
10
84.246131
20
197.362120
11
84.507852
21
198.281823
0
LINE
8
negative_3 outline
10
84.507852
20
198.281823
11
84.373274
21
199.312112
0
LINE
8
negative_3 outline
10
84.373274
20
199.312112
11
84.162560
21
199.732034
0
LINE
8
negative_3 outline
10
84.162560
20
199.732034
11
83.858994
21
200.015570
0
LINE
8
negative_3 outline
10
83.858994
20
200.015570
11
83.464653
21
200.108045
0
LINE
8
negative_3 outline
10
83.464653
20
200.108045
11
82.981610
21
199.954780
0
LINE
8
negative_3 outline
10
82.981610
20
199.954780
11
83.315777
21
199.181226
0
LINE
8
negative_3 outline
10
83.315777
20
199.181226
11
83.526701
21
197.957254
0
LINE
8
negative_3 outline
10
83.526701
20
197.957254
11
83.437160
21
197.027624
0
LINE
8
negative_3 outline
10
83.437160
20
197.027624
11
83.224333
21
196.905926
0
LINE
8
negative_3 outline
10
83.224333
20
196.905926
11
82.869931
21
197.137100
0
LINE
8
negative_3 outline
10
82.869931
20
197.137100
11
83.126744
21
197.786873
0
LINE
8
negative_3 outline
10
83.126744
20
197.786873
11
83.024468
21
198.281342
0
LINE
8
negative_3 outline
10
83.024468
20
198.281342
11
82.695612
21
198.665698
0
LINE
8
negative_3 outline
10
82.695612
20
198.665698
11
82.272684
21
198.985134
0
LINE
8
negative_3 outline
10
82.272684
20
198.985134
11
81.888190
21
199.284840
0
LINE
8
negative_3 outline
10
81.888190
20
199.284840
11
81.674639
21
199.610009
0
LINE
8
negative_3 outline
10
81.674639
20
199.610009
11
81.764539
21
200.005832
0
LINE
8
negative_3 outline
10
81.764539
20
200.005832
11
82.290397
21
200.517500
0
LINE
8
negative_3 outline
10
82.290397
20
200.517500
11
83.385826
21
201.423849
0
LINE
8
negative_3 outline
10
83.385826
20
201.423849
11
84.605480
21
202.158776
0
LINE
8
negative_3 outline
10
84.605480
20
202.158776
11
87.246925
21
203.225110
0
LINE
8
negative_3 outline
10
87.246925
20
203.225110
11
87.246925
21
203.225110
0
LINE
8
negative_3 outline
10
100.732410
20
202.295970
11
100.833400
21
202.207170
0
LINE
8
negative_3 outline
10
100.833400
20
202.207170
11
102.076096
21
200.540964
0
LINE
8
negative_3 outline
10
102.076096
20
200.540964
11
103.041506
21
198.636975
0
LINE
8
negative_3 outline
10
103.041506
20
198.636975
11
103.605984
21
196.600986
0
LINE
8
negative_3 outline
10
103.605984
20
196.600986
11
103.699232
21
195.566548
0
LINE
8
negative_3 outline
10
103.699232
20
195.566548
11
103.645880
21
194.538780
0
LINE
8
negative_3 outline
10
103.645880
20
194.538780
11
103.425439
21
193.514367
0
LINE
8
negative_3 outline
10
103.425439
20
193.514367
11
103.021240
21
192.524410
0
LINE
8
negative_3 outline
10
103.021240
20
192.524410
11
102.780450
21
192.294460
0
LINE
8
negative_3 outline
10
102.780450
20
192.294460
11
103.108001
21
195.609754
0
LINE
8
negative_3 outline
10
103.108001
20
195.609754
11
102.939240
21
197.393572
0
LINE
8
negative_3 outline
10
102.939240
20
197.393572
11
102.630645
21
198.235532
0
LINE
8
negative_3 outline
10
102.630645
20
198.235532
11
102.118830
21
199.013150
0
LINE
8
negative_3 outline
10
102.118830
20
199.013150
11
101.345589
21
200.548105
0
LINE
8
negative_3 outline
10
101.345589
20
200.548105
11
100.759930
21
202.158900
0
LINE
8
negative_3 outline
10
100.759930
20
202.158900
11
100.732430
21
202.295980
0
LINE
8
negative_3 outline
10
100.732430
20
202.295980
11
100.732410
21
202.295970
0
LINE
8
negative_3 outline
10
87.750020
20
201.025000
11
87.728134
21
200.605287
0
LINE
8
negative_3 outline
10
87.728134
20
200.605287
11
87.792220
21
199.952730
0
LINE
8
negative_3 outline
10
87.792220
20
199.952730
11
88.840484
21
197.374689
0
LINE
8
negative_3 outline
10
88.840484
20
197.374689
11
89.254553
21
195.769751
0
LINE
8
negative_3 outline
10
89.254553
20
195.769751
11
89.316203
21
194.144770
0
LINE
8
negative_3 outline
10
89.316203
20
194.144770
11
89.309233
21
192.874168
0
LINE
8
negative_3 outline
10
89.309233
20
192.874168
11
88.929765
21
191.831415
0
LINE
8
negative_3 outline
10
88.929765
20
191.831415
11
88.258284
21
190.970266
0
LINE
8
negative_3 outline
10
88.258284
20
190.970266
11
87.375275
21
190.244475
0
LINE
8
negative_3 outline
10
87.375275
20
190.244475
11
85.296609
21
189.013980
0
LINE
8
negative_3 outline
10
85.296609
20
189.013980
11
83.337641
21
187.769960
0
LINE
8
negative_3 outline
10
83.337641
20
187.769960
11
82.813701
21
187.237917
0
LINE
8
negative_3 outline
10
82.813701
20
187.237917
11
82.931088
21
186.913857
0
LINE
8
negative_3 outline
10
82.931088
20
186.913857
11
83.474715
21
186.731524
0
LINE
8
negative_3 outline
10
83.474715
20
186.731524
11
84.229496
21
186.624657
0
LINE
8
negative_3 outline
10
84.229496
20
186.624657
11
85.512174
21
186.372294
0
LINE
8
negative_3 outline
10
85.512174
20
186.372294
11
85.628741
21
186.252841
0
LINE
8
negative_3 outline
10
85.628741
20
186.252841
11
85.609897
21
186.094280
0
LINE
8
negative_3 outline
10
85.609897
20
186.094280
11
85.058427
21
185.626700
0
LINE
8
negative_3 outline
10
85.058427
20
185.626700
11
83.854522
21
185.802362
0
LINE
8
negative_3 outline
10
83.854522
20
185.802362
11
82.773469
21
185.492918
0
LINE
8
negative_3 outline
10
82.773469
20
185.492918
11
81.859807
21
184.802869
0
LINE
8
negative_3 outline
10
81.859807
20
184.802869
11
81.158072
21
183.836719
0
LINE
8
negative_3 outline
10
81.158072
20
183.836719
11
80.712801
21
182.698968
0
LINE
8
negative_3 outline
10
80.712801
20
182.698968
11
80.568533
21
181.494118
0
LINE
8
negative_3 outline
10
80.568533
20
181.494118
11
80.769804
21
180.326671
0
LINE
8
negative_3 outline
10
80.769804
20
180.326671
11
81.361153
21
179.301130
0
LINE
8
negative_3 outline
10
81.361153
20
179.301130
11
82.325254
21
176.643839
0
LINE
8
negative_3 outline
10
82.325254
20
176.643839
11
82.958075
21
173.888598
0
LINE
8
negative_3 outline
10
82.958075
20
173.888598
11
83.526583
21
171.112750
0
LINE
8
negative_3 outline
10
83.526583
20
171.112750
11
84.297750
21
168.393640
0
LINE
8
negative_3 outline
10
84.297750
20
168.393640
11
83.630445
21
168.903466
0
LINE
8
negative_3 outline
10
83.630445
20
168.903466
11
83.174510
21
169.564698
0
LINE
8
negative_3 outline
10
83.174510
20
169.564698
11
82.883100
21
170.340459
0
LINE
8
negative_3 outline
10
82.883100
20
170.340459
11
82.709370
21
171.193872
0
LINE
8
negative_3 outline
10
82.709370
20
171.193872
11
82.527570
21
172.986146
0
LINE
8
negative_3 outline
10
82.527570
20
172.986146
11
82.254349
21
174.646500
0
LINE
8
negative_3 outline
10
82.254349
20
174.646500
11
82.030977
21
175.675558
0
LINE
8
negative_3 outline
10
82.030977
20
175.675558
11
81.653489
21
176.670553
0
LINE
8
negative_3 outline
10
81.653489
20
176.670553
11
80.713219
21
178.610919
0
LINE
8
negative_3 outline
10
80.713219
20
178.610919
11
79.987645
21
180.572717
0
LINE
8
negative_3 outline
10
79.987645
20
180.572717
11
79.878529
21
181.594504
0
LINE
8
negative_3 outline
10
79.878529
20
181.594504
11
80.030878
21
182.661070
0
LINE
8
negative_3 outline
10
80.030878
20
182.661070
11
80.795838
21
185.015072
0
LINE
8
negative_3 outline
10
80.795838
20
185.015072
11
82.038079
21
187.169569
0
LINE
8
negative_3 outline
10
82.038079
20
187.169569
11
82.834780
21
188.114873
0
LINE
8
negative_3 outline
10
82.834780
20
188.114873
11
83.746721
21
188.941744
0
LINE
8
negative_3 outline
10
83.746721
20
188.941744
11
84.772543
21
189.627330
0
LINE
8
negative_3 outline
10
84.772543
20
189.627330
11
85.910885
21
190.148780
0
LINE
8
negative_3 outline
10
85.910885
20
190.148780
11
86.669791
21
190.395147
0
LINE
8
negative_3 outline
10
86.669791
20
190.395147
11
87.231776
21
190.805572
0
LINE
8
negative_3 outline
10
87.231776
20
190.805572
11
87.596773
21
191.325757
0
LINE
8
negative_3 outline
10
87.596773
20
191.325757
11
87.764711
21
191.901404
0
LINE
8
negative_3 outline
10
87.764711
20
191.901404
11
87.735522
21
192.478214
0
LINE
8
negative_3 outline
10
87.735522
20
192.478214
11
87.509137
21
193.001891
0
LINE
8
negative_3 outline
10
87.509137
20
193.001891
11
87.085487
21
193.418136
0
LINE
8
negative_3 outline
10
87.085487
20
193.418136
11
86.464502
21
193.672650
0
LINE
8
negative_3 outline
10
86.464502
20
193.672650
11
86.380222
21
193.706450
0
LINE
8
negative_3 outline
10
86.380222
20
193.706450
11
86.429872
21
193.735350
0
LINE
8
negative_3 outline
10
86.429872
20
193.735350
11
87.363352
21
194.044575
0
LINE
8
negative_3 outline
10
87.363352
20
194.044575
11
87.785967
21
194.558908
0
LINE
8
negative_3 outline
10
87.785967
20
194.558908
11
87.836395
21
195.234344
0
LINE
8
negative_3 outline
10
87.836395
20
195.234344
11
87.653309
21
196.026881
0
LINE
8
negative_3 outline
10
87.653309
20
196.026881
11
87.141304
21
197.787244
0
LINE
8
negative_3 outline
10
87.141304
20
197.787244
11
87.089736
21
198.667063
0
LINE
8
negative_3 outline
10
87.089736
20
198.667063
11
87.359358
21
199.487970
0
LINE
8
negative_3 outline
10
87.359358
20
199.487970
11
87.498062
21
200.403882
0
LINE
8
negative_3 outline
10
87.498062
20
200.403882
11
87.750025
21
201.025090
0
LINE
8
negative_3 outline
10
87.750025
20
201.025090
11
87.750020
21
201.025000
0
LINE
8
negative_3 outline
10
98.222480
20
200.977200
11
99.165510
21
200.394851
0
LINE
8
negative_3 outline
10
99.165510
20
200.394851
11
100.006723
21
199.624239
0
LINE
8
negative_3 outline
10
100.006723
20
199.624239
11
100.733084
21
198.702327
0
LINE
8
negative_3 outline
10
100.733084
20
198.702327
11
101.331561
21
197.666075
0
LINE
8
negative_3 outline
10
101.331561
20
197.666075
11
101.789122
21
196.552446
0
LINE
8
negative_3 outline
10
101.789122
20
196.552446
11
102.092732
21
195.398401
0
LINE
8
negative_3 outline
10
102.092732
20
195.398401
11
102.229359
21
194.240902
0
LINE
8
negative_3 outline
10
102.229359
20
194.240902
11
102.185970
21
193.116910
0
LINE
8
negative_3 outline
10
102.185970
20
193.116910
11
102.237450
21
192.682967
0
LINE
8
negative_3 outline
10
102.237450
20
192.682967
11
102.138710
21
192.114535
0
LINE
8
negative_3 outline
10
102.138710
20
192.114535
11
101.617089
21
190.908419
0
LINE
8
negative_3 outline
10
101.617089
20
190.908419
11
101.257468
21
190.437845
0
LINE
8
negative_3 outline
10
101.257468
20
190.437845
11
100.874148
21
190.167001
0
LINE
8
negative_3 outline
10
100.874148
20
190.167001
11
100.498759
21
190.179441
0
LINE
8
negative_3 outline
10
100.498759
20
190.179441
11
100.162930
21
190.558720
0
LINE
8
negative_3 outline
10
100.162930
20
190.558720
11
100.505676
21
191.748730
0
LINE
8
negative_3 outline
10
100.505676
20
191.748730
11
100.494693
21
193.152024
0
LINE
8
negative_3 outline
10
100.494693
20
193.152024
11
100.269130
21
194.388441
0
LINE
8
negative_3 outline
10
100.269130
20
194.388441
11
99.968140
21
195.077820
0
LINE
8
negative_3 outline
10
99.968140
20
195.077820
11
99.536957
21
194.466328
0
LINE
8
negative_3 outline
10
99.536957
20
194.466328
11
99.328310
21
194.365820
0
LINE
8
negative_3 outline
10
99.328310
20
194.365820
11
99.336094
21
195.226430
0
LINE
8
negative_3 outline
10
99.336094
20
195.226430
11
99.506430
21
196.716987
0
LINE
8
negative_3 outline
10
99.506430
20
196.716987
11
99.500975
21
197.403914
0
LINE
8
negative_3 outline
10
99.500975
20
197.403914
11
99.354260
21
197.894830
0
LINE
8
negative_3 outline
10
99.354260
20
197.894830
11
99.047524
21
199.069963
0
LINE
8
negative_3 outline
10
99.047524
20
199.069963
11
98.458689
21
199.749453
0
LINE
8
negative_3 outline
10
98.458689
20
199.749453
11
97.665594
21
200.007081
0
LINE
8
negative_3 outline
10
97.665594
20
200.007081
11
96.746078
21
199.916626
0
LINE
8
negative_3 outline
10
96.746078
20
199.916626
11
95.777978
21
199.551871
0
LINE
8
negative_3 outline
10
95.777978
20
199.551871
11
94.839135
21
198.986596
0
LINE
8
negative_3 outline
10
94.839135
20
198.986596
11
94.007386
21
198.294582
0
LINE
8
negative_3 outline
10
94.007386
20
198.294582
11
93.360570
21
197.549610
0
LINE
8
negative_3 outline
10
93.360570
20
197.549610
11
91.590456
21
195.457583
0
LINE
8
negative_3 outline
10
91.590456
20
195.457583
11
90.617307
21
194.658399
0
LINE
8
negative_3 outline
10
90.617307
20
194.658399
11
90.236816
21
194.600373
0
LINE
8
negative_3 outline
10
90.236816
20
194.600373
11
89.975847
21
194.876670
0
LINE
8
negative_3 outline
10
89.975847
20
194.876670
11
92.466854
21
197.819901
0
LINE
8
negative_3 outline
10
92.466854
20
197.819901
11
93.891135
21
199.131849
0
LINE
8
negative_3 outline
10
93.891135
20
199.131849
11
95.473005
21
200.234780
0
LINE
8
negative_3 outline
10
95.473005
20
200.234780
11
96.804596
21
200.767465
0
LINE
8
negative_3 outline
10
96.804596
20
200.767465
11
98.222480
21
200.977200
0
LINE
8
negative_3 outline
10
98.222480
20
200.977200
11
98.222480
21
200.977200
0
LINE
8
negative_3 outline
10
91.736573
20
200.158130
11
92.028074
21
200.050080
0
LINE
8
negative_3 outline
10
92.028074
20
200.050080
11
92.654543
21
199.996297
0
LINE
8
negative_3 outline
10
92.654543
20
199.996297
11
93.008065
21
199.836034
0
LINE
8
negative_3 outline
10
93.008065
20
199.836034
11
92.480728
21
199.408540
0
LINE
8
negative_3 outline
10
92.480728
20
199.408540
11
92.169435
21
198.970854
0
LINE
8
negative_3 outline
10
92.169435
20
198.970854
11
91.818884
21
198.830063
0
LINE
8
negative_3 outline
10
91.818884
20
198.830063
11
91.479886
21
198.913633
0
LINE
8
negative_3 outline
10
91.479886
20
198.913633
11
91.203252
21
199.149026
0
LINE
8
negative_3 outline
10
91.203252
20
199.149026
11
91.039792
21
199.463708
0
LINE
8
negative_3 outline
10
91.039792
20
199.463708
11
91.040319
21
199.785144
0
LINE
8
negative_3 outline
10
91.040319
20
199.785144
11
91.255642
21
200.040796
0
LINE
8
negative_3 outline
10
91.255642
20
200.040796
11
91.736573
21
200.158130
0
LINE
8
negative_3 outline
10
91.736573
20
200.158130
11
91.736573
21
200.158130
0
LINE
8
negative_3 outline
10
81.225070
20
199.011430
11
81.316639
21
198.798205
0
LINE
8
negative_3 outline
10
81.316639
20
198.798205
11
81.084714
21
198.459772
0
LINE
8
negative_3 outline
10
81.084714
20
198.459772
11
80.120499
21
197.488032
0
LINE
8
negative_3 outline
10
80.120499
20
197.488032
11
79.623272
21
196.895104
0
LINE
8
negative_3 outline
10
79.623272
20
196.895104
11
79.272672
21
196.257720
0
LINE
8
negative_3 outline
10
79.272672
20
196.257720
11
79.186230
21
195.596069
0
LINE
8
negative_3 outline
10
79.186230
20
195.596069
11
79.481477
21
194.930340
0
LINE
8
negative_3 outline
10
79.481477
20
194.930340
11
79.991962
21
194.540938
0
LINE
8
negative_3 outline
10
79.991962
20
194.540938
11
80.594469
21
194.182714
0
LINE
8
negative_3 outline
10
80.594469
20
194.182714
11
80.795630
21
193.867388
0
LINE
8
negative_3 outline
10
80.795630
20
193.867388
11
80.102076
21
193.606680
0
LINE
8
negative_3 outline
10
80.102076
20
193.606680
11
79.413282
21
194.112849
0
LINE
8
negative_3 outline
10
79.413282
20
194.112849
11
78.981457
21
194.865380
0
LINE
8
negative_3 outline
10
78.981457
20
194.865380
11
78.796569
21
195.765297
0
LINE
8
negative_3 outline
10
78.796569
20
195.765297
11
78.848587
21
196.713620
0
LINE
8
negative_3 outline
10
78.848587
20
196.713620
11
79.127478
21
197.611373
0
LINE
8
negative_3 outline
10
79.127478
20
197.611373
11
79.623210
21
198.359577
0
LINE
8
negative_3 outline
10
79.623210
20
198.359577
11
80.325752
21
198.859256
0
LINE
8
negative_3 outline
10
80.325752
20
198.859256
11
81.225070
21
199.011430
0
LINE
8
negative_3 outline
10
81.225070
20
199.011430
11
81.225070
21
199.011430
0
LINE
8
negative_3 outline
10
82.328362
20
194.181750
11
84.399888
21
193.903426
0
LINE
8
negative_3 outline
10
84.399888
20
193.903426
11
84.810897
21
193.725876
0
LINE
8
negative_3 outline
10
84.810897
20
193.725876
11
83.819074
21
193.509550
0
LINE
8
negative_3 outline
10
83.819074
20
193.509550
11
83.052635
21
193.474025
0
LINE
8
negative_3 outline
10
83.052635
20
193.474025
11
82.049671
21
193.668204
0
LINE
8
negative_3 outline
10
82.049671
20
193.668204
11
81.558730
21
193.951105
0
LINE
8
negative_3 outline
10
81.558730
20
193.951105
11
81.739190
21
194.081771
0
LINE
8
negative_3 outline
10
81.739190
20
194.081771
11
82.328362
21
194.181750
0
LINE
8
negative_3 outline
10
82.328362
20
194.181750
11
82.328362
21
194.181750
0
LINE
8
negative_3 outline
10
100.997510
20
189.737580
11
101.296095
21
188.716604
0
LINE
8
negative_3 outline
10
101.296095
20
188.716604
11
101.344117
21
187.676726
0
LINE
8
negative_3 outline
10
101.344117
20
187.676726
11
101.223040
21
185.566380
0
LINE
8
negative_3 outline
10
101.223040
20
185.566380
11
101.692856
21
185.539163
0
LINE
8
negative_3 outline
10
101.692856
20
185.539163
11
102.086588
21
185.204931
0
LINE
8
negative_3 outline
10
102.086588
20
185.204931
11
102.807945
21
184.008686
0
LINE
8
negative_3 outline
10
102.807945
20
184.008686
11
103.216643
21
183.343308
0
LINE
8
negative_3 outline
10
103.216643
20
183.343308
11
103.711402
21
182.764181
0
LINE
8
negative_3 outline
10
103.711402
20
182.764181
11
104.332759
21
182.369623
0
LINE
8
negative_3 outline
10
104.332759
20
182.369623
11
105.121250
21
182.257950
0
LINE
8
negative_3 outline
10
105.121250
20
182.257950
11
105.814815
21
181.694393
0
LINE
8
negative_3 outline
10
105.814815
20
181.694393
11
106.625808
21
181.516468
0
LINE
8
negative_3 outline
10
106.625808
20
181.516468
11
106.971348
21
181.620229
0
LINE
8
negative_3 outline
10
106.971348
20
181.620229
11
107.221456
21
181.878133
0
LINE
8
negative_3 outline
10
107.221456
20
181.878133
11
107.334536
21
182.309425
0
LINE
8
negative_3 outline
10
107.334536
20
182.309425
11
107.268990
21
182.933350
0
LINE
8
negative_3 outline
10
107.268990
20
182.933350
11
106.721249
21
183.508661
0
LINE
8
negative_3 outline
10
106.721249
20
183.508661
11
106.487943
21
184.221900
0
LINE
8
negative_3 outline
10
106.487943
20
184.221900
11
106.514495
21
184.471816
0
LINE
8
negative_3 outline
10
106.514495
20
184.471816
11
106.650009
21
184.566102
0
LINE
8
negative_3 outline
10
106.650009
20
184.566102
11
107.288390
21
184.034300
0
LINE
8
negative_3 outline
10
107.288390
20
184.034300
11
108.444566
21
181.364444
0
LINE
8
negative_3 outline
10
108.444566
20
181.364444
11
108.871795
21
179.986835
0
LINE
8
negative_3 outline
10
108.871795
20
179.986835
11
109.076080
21
178.651440
0
LINE
8
negative_3 outline
10
109.076080
20
178.651440
11
108.546163
21
178.691034
0
LINE
8
negative_3 outline
10
108.546163
20
178.691034
11
108.074100
21
178.905153
0
LINE
8
negative_3 outline
10
108.074100
20
178.905153
11
107.270336
21
179.556881
0
LINE
8
negative_3 outline
10
107.270336
20
179.556881
11
106.598387
21
180.006456
0
LINE
8
negative_3 outline
10
106.598387
20
180.006456
11
106.291092
21
179.967884
0
LINE
8
negative_3 outline
10
106.291092
20
179.967884
11
105.991850
21
179.653710
0
LINE
8
negative_3 outline
10
105.991850
20
179.653710
11
105.864375
21
180.613113
0
LINE
8
negative_3 outline
10
105.864375
20
180.613113
11
105.462349
21
181.325322
0
LINE
8
negative_3 outline
10
105.462349
20
181.325322
11
104.853117
21
181.855038
0
LINE
8
negative_3 outline
10
104.853117
20
181.855038
11
104.104026
21
182.266961
0
LINE
8
negative_3 outline
10
104.104026
20
182.266961
11
102.455650
21
182.996233
0
LINE
8
negative_3 outline
10
102.455650
20
182.996233
11
101.691058
21
183.442982
0
LINE
8
negative_3 outline
10
101.691058
20
183.442982
11
101.055990
21
184.030740
0
LINE
8
negative_3 outline
10
101.055990
20
184.030740
11
100.224378
21
185.365363
0
LINE
8
negative_3 outline
10
100.224378
20
185.365363
11
99.052199
21
186.505080
0
LINE
8
negative_3 outline
10
99.052199
20
186.505080
11
98.434966
21
186.814104
0
LINE
8
negative_3 outline
10
98.434966
20
186.814104
11
97.848474
21
186.849107
0
LINE
8
negative_3 outline
10
97.848474
20
186.849107
11
97.331350
21
186.534992
0
LINE
8
negative_3 outline
10
97.331350
20
186.534992
11
96.922222
21
185.796660
0
LINE
8
negative_3 outline
10
96.922222
20
185.796660
11
96.358660
21
186.230945
0
LINE
8
negative_3 outline
10
96.358660
20
186.230945
11
96.204976
21
186.574466
0
LINE
8
negative_3 outline
10
96.204976
20
186.574466
11
96.316761
21
187.269150
0
LINE
8
negative_3 outline
10
96.316761
20
187.269150
11
95.810134
21
187.550859
0
LINE
8
negative_3 outline
10
95.810134
20
187.550859
11
95.534659
21
187.838481
0
LINE
8
negative_3 outline
10
95.534659
20
187.838481
11
95.458417
21
188.102203
0
LINE
8
negative_3 outline
10
95.458417
20
188.102203
11
95.549494
21
188.312211
0
LINE
8
negative_3 outline
10
95.549494
20
188.312211
11
96.105931
21
188.451833
0
LINE
8
negative_3 outline
10
96.105931
20
188.451833
11
96.948638
21
188.018840
0
LINE
8
negative_3 outline
10
96.948638
20
188.018840
11
97.733597
21
187.629907
0
LINE
8
negative_3 outline
10
97.733597
20
187.629907
11
98.294350
21
187.587436
0
LINE
8
negative_3 outline
10
98.294350
20
187.587436
11
98.703164
21
187.804451
0
LINE
8
negative_3 outline
10
98.703164
20
187.804451
11
99.032306
21
188.193974
0
LINE
8
negative_3 outline
10
99.032306
20
188.193974
11
99.740638
21
189.142629
0
LINE
8
negative_3 outline
10
99.740638
20
189.142629
11
100.264362
21
189.527807
0
LINE
8
negative_3 outline
10
100.264362
20
189.527807
11
100.997480
21
189.737580
0
LINE
8
negative_3 outline
10
100.997480
20
189.737580
11
100.997510
21
189.737580
0
LINE
8
negative_3 outline
10
102.229470
20
188.283920
11
103.463454
21
187.909842
0
LINE
8
negative_3 outline
10
103.463454
20
187.909842
11
104.758854
21
187.123821
0
LINE
8
negative_3 outline
10
104.758854
20
187.123821
11
105.722287
21
186.206305
0
LINE
8
negative_3 outline
10
105.722287
20
186.206305
11
105.956584
21
185.785876
0
LINE
8
negative_3 outline
10
105.956584
20
185.785876
11
105.960370
21
185.437740
0
LINE
8
negative_3 outline
10
105.960370
20
185.437740
11
104.925473
21
186.044565
0
LINE
8
negative_3 outline
10
104.925473
20
186.044565
11
103.954662
21
186.881747
0
LINE
8
negative_3 outline
10
103.954662
20
186.881747
11
103.053980
21
187.708471
0
LINE
8
negative_3 outline
10
103.053980
20
187.708471
11
102.229470
21
188.283920
0
LINE
8
negative_3 outline
10
102.229470
20
188.283920
11
102.229470
21
188.283920
0
LINE
8
negative_3 outline
10
108.223900
20
177.014480
11
108.358491
21
175.827623
0
LINE
8
negative_3 outline
10
108.358491
20
175.827623
11
108.200110
21
174.809934
0
LINE
8
negative_3 outline
10
108.200110
20
174.809934
11
107.830309
21
173.905581
0
LINE
8
negative_3 outline
10
107.830309
20
173.905581
11
107.330637
21
173.058729
0
LINE
8
negative_3 outline
10
107.330637
20
173.058729
11
106.267893
21
171.314196
0
LINE
8
negative_3 outline
10
106.267893
20
171.314196
11
105.867923
21
170.304849
0
LINE
8
negative_3 outline
10
105.867923
20
170.304849
11
105.664290
21
169.129670
0
LINE
8
negative_3 outline
10
105.664290
20
169.129670
11
105.071152
21
167.336261
0
LINE
8
negative_3 outline
10
105.071152
20
167.336261
11
104.568613
21
166.399107
0
LINE
8
negative_3 outline
10
104.568613
20
166.399107
11
103.954652
21
165.571795
0
LINE
8
negative_3 outline
10
103.954652
20
165.571795
11
103.248688
21
164.956934
0
LINE
8
negative_3 outline
10
103.248688
20
164.956934
11
102.470139
21
164.657131
0
LINE
8
negative_3 outline
10
102.470139
20
164.657131
11
101.638424
21
164.774994
0
LINE
8
negative_3 outline
10
101.638424
20
164.774994
11
100.772960
21
165.413130
0
LINE
8
negative_3 outline
10
100.772960
20
165.413130
11
100.444437
21
165.882369
0
LINE
8
negative_3 outline
10
100.444437
20
165.882369
11
100.299564
21
166.314676
0
LINE
8
negative_3 outline
10
100.299564
20
166.314676
11
100.434801
21
166.925696
0
LINE
8
negative_3 outline
10
100.434801
20
166.925696
11
100.651929
21
167.033007
0
LINE
8
negative_3 outline
10
100.651929
20
167.033007
11
100.926740
21
166.960583
0
LINE
8
negative_3 outline
10
100.926740
20
166.960583
11
101.227745
21
166.672724
0
LINE
8
negative_3 outline
10
101.227745
20
166.672724
11
101.523450
21
166.133730
0
LINE
8
negative_3 outline
10
101.523450
20
166.133730
11
102.434956
21
165.806306
0
LINE
8
negative_3 outline
10
102.434956
20
165.806306
11
103.194579
21
165.980089
0
LINE
8
negative_3 outline
10
103.194579
20
165.980089
11
103.818134
21
166.544151
0
LINE
8
negative_3 outline
10
103.818134
20
166.544151
11
104.321436
21
167.387561
0
LINE
8
negative_3 outline
10
104.321436
20
167.387561
11
105.030538
21
169.468715
0
LINE
8
negative_3 outline
10
105.030538
20
169.468715
11
105.448400
21
171.336120
0
LINE
8
negative_3 outline
10
105.448400
20
171.336120
11
106.297454
21
172.852685
0
LINE
8
negative_3 outline
10
106.297454
20
172.852685
11
107.154641
21
174.061274
0
LINE
8
negative_3 outline
10
107.154641
20
174.061274
11
107.852583
21
175.326876
0
LINE
8
negative_3 outline
10
107.852583
20
175.326876
11
108.223900
21
177.014480
0
LINE
8
negative_3 outline
10
108.223900
20
177.014480
11
108.223900
21
177.014480
0
LINE
8
negative_3 outline
10
101.475000
20
170.184770
11
101.839770
21
169.307094
0
LINE
8
negative_3 outline
10
101.839770
20
169.307094
11
102.167871
21
169.094492
0
LINE
8
negative_3 outline
10
102.167871
20
169.094492
11
102.729720
21
169.012820
0
LINE
8
negative_3 outline
10
102.729720
20
169.012820
11
101.923960
21
168.555706
0
LINE
8
negative_3 outline
10
101.923960
20
168.555706
11
101.053016
21
168.219101
0
LINE
8
negative_3 outline
10
101.053016
20
168.219101
11
99.215480
21
167.729892
0
LINE
8
negative_3 outline
10
99.215480
20
167.729892
11
97.416923
21
167.190146
0
LINE
8
negative_3 outline
10
97.416923
20
167.190146
11
96.594702
21
166.790367
0
LINE
8
negative_3 outline
10
96.594702
20
166.790367
11
95.857154
21
166.244810
0
LINE
8
negative_3 outline
10
95.857154
20
166.244810
11
95.815037
21
165.682288
0
LINE
8
negative_3 outline
10
95.815037
20
165.682288
11
95.653852
21
165.309134
0
LINE
8
negative_3 outline
10
95.653852
20
165.309134
11
95.408559
21
165.109238
0
LINE
8
negative_3 outline
10
95.408559
20
165.109238
11
95.114115
21
165.066490
0
LINE
8
negative_3 outline
10
95.114115
20
165.066490
11
94.517614
21
165.387996
0
LINE
8
negative_3 outline
10
94.517614
20
165.387996
11
94.144021
21
166.144770
0
LINE
8
negative_3 outline
10
94.144021
20
166.144770
11
92.981433
21
166.176983
0
LINE
8
negative_3 outline
10
92.981433
20
166.176983
11
91.525353
21
166.616104
0
LINE
8
negative_3 outline
10
91.525353
20
166.616104
11
88.637408
21
167.744340
0
LINE
8
negative_3 outline
10
88.637408
20
167.744340
11
87.498988
21
167.134908
0
LINE
8
negative_3 outline
10
87.498988
20
167.134908
11
86.245500
21
166.302869
0
LINE
8
negative_3 outline
10
86.245500
20
166.302869
11
85.648920
21
166.021208
0
LINE
8
negative_3 outline
10
85.648920
20
166.021208
11
85.111549
21
165.945300
0
LINE
8
negative_3 outline
10
85.111549
20
165.945300
11
84.662714
21
166.162279
0
LINE
8
negative_3 outline
10
84.662714
20
166.162279
11
84.331740
21
166.759280
0
LINE
8
negative_3 outline
10
84.331740
20
166.759280
11
86.239014
21
167.673729
0
LINE
8
negative_3 outline
10
86.239014
20
167.673729
11
88.189391
21
168.208731
0
LINE
8
negative_3 outline
10
88.189391
20
168.208731
11
89.177028
21
168.271088
0
LINE
8
negative_3 outline
10
89.177028
20
168.271088
11
90.170981
21
168.163160
0
LINE
8
negative_3 outline
10
90.170981
20
168.163160
11
91.169765
21
167.859808
0
LINE
8
negative_3 outline
10
91.169765
20
167.859808
11
92.171894
21
167.335890
0
LINE
8
negative_3 outline
10
92.171894
20
167.335890
11
93.565625
21
167.019275
0
LINE
8
negative_3 outline
10
93.565625
20
167.019275
11
94.946042
21
167.063039
0
LINE
8
negative_3 outline
10
94.946042
20
167.063039
11
95.569786
21
167.250499
0
LINE
8
negative_3 outline
10
95.569786
20
167.250499
11
96.116434
21
167.564579
0
LINE
8
negative_3 outline
10
96.116434
20
167.564579
11
96.561398
21
168.017451
0
LINE
8
negative_3 outline
10
96.561398
20
168.017451
11
96.880089
21
168.621290
0
LINE
8
negative_3 outline
10
96.880089
20
168.621290
11
97.461157
21
168.295560
0
LINE
8
negative_3 outline
10
97.461157
20
168.295560
11
98.133499
21
168.165815
0
LINE
8
negative_3 outline
10
98.133499
20
168.165815
11
98.850520
21
168.208515
0
LINE
8
negative_3 outline
10
98.850520
20
168.208515
11
99.565625
21
168.400119
0
LINE
8
negative_3 outline
10
99.565625
20
168.400119
11
100.803710
21
169.135878
0
LINE
8
negative_3 outline
10
100.803710
20
169.135878
11
101.233502
21
169.632952
0
LINE
8
negative_3 outline
10
101.233502
20
169.632952
11
101.475000
21
170.184770
0
LINE
8
negative_3 outline
10
101.475000
20
170.184770
11
101.475000
21
170.184770
0
LINE
8
negative_3 outline
10
88.691798
20
166.940000
11
88.194705
21
165.385406
0
LINE
8
negative_3 outline
10
88.194705
20
165.385406
11
87.614037
21
163.707399
0
LINE
8
negative_3 outline
10
87.614037
20
163.707399
11
87.462131
21
162.860841
0
LINE
8
negative_3 outline
10
87.462131
20
162.860841
11
87.493055
21
162.029900
0
LINE
8
negative_3 outline
10
87.493055
20
162.029900
11
87.774717
21
161.230066
0
LINE
8
negative_3 outline
10
87.774717
20
161.230066
11
88.375025
21
160.476830
0
LINE
8
negative_3 outline
10
88.375025
20
160.476830
11
88.933142
21
159.779716
0
LINE
8
negative_3 outline
10
88.933142
20
159.779716
11
89.718682
21
159.062421
0
LINE
8
negative_3 outline
10
89.718682
20
159.062421
11
91.378366
21
157.581604
0
LINE
8
negative_3 outline
10
91.378366
20
157.581604
11
91.955679
21
156.825241
0
LINE
8
negative_3 outline
10
91.955679
20
156.825241
11
92.166749
21
156.063015
0
LINE
8
negative_3 outline
10
92.166749
20
156.063015
11
91.863161
21
155.298505
0
LINE
8
negative_3 outline
10
91.863161
20
155.298505
11
90.896500
21
154.535290
0
LINE
8
negative_3 outline
10
90.896500
20
154.535290
11
90.491378
21
154.917357
0
LINE
8
negative_3 outline
10
90.491378
20
154.917357
11
90.243654
21
155.491552
0
LINE
8
negative_3 outline
10
90.243654
20
155.491552
11
89.944928
21
156.925545
0
LINE
8
negative_3 outline
10
89.944928
20
156.925545
11
89.756190
21
157.639955
0
LINE
8
negative_3 outline
10
89.756190
20
157.639955
11
89.449379
21
158.255716
0
LINE
8
negative_3 outline
10
89.449379
20
158.255716
11
88.955628
21
158.700132
0
LINE
8
negative_3 outline
10
88.955628
20
158.700132
11
88.206068
21
158.900510
0
LINE
8
negative_3 outline
10
88.206068
20
158.900510
11
87.833822
21
158.761097
0
LINE
8
negative_3 outline
10
87.833822
20
158.761097
11
87.567401
21
158.509023
0
LINE
8
negative_3 outline
10
87.567401
20
158.509023
11
87.284600
21
157.789191
0
LINE
8
negative_3 outline
10
87.284600
20
157.789191
11
87.247142
21
156.342840
0
LINE
8
negative_3 outline
10
87.247142
20
156.342840
11
87.195772
21
156.127650
0
LINE
8
negative_3 outline
10
87.195772
20
156.127650
11
86.916790
21
156.789510
0
LINE
8
negative_3 outline
10
86.916790
20
156.789510
11
86.818387
21
158.205184
0
LINE
8
negative_3 outline
10
86.818387
20
158.205184
11
86.759020
21
158.333909
0
LINE
8
negative_3 outline
10
86.759020
20
158.333909
11
86.670983
21
157.489170
0
LINE
8
negative_3 outline
10
86.670983
20
157.489170
11
86.481340
21
156.650793
0
LINE
8
negative_3 outline
10
86.481340
20
156.650793
11
86.427160
21
155.760620
0
LINE
8
negative_3 outline
10
86.427160
20
155.760620
11
86.511120
21
153.924781
0
LINE
8
negative_3 outline
10
86.511120
20
153.924781
11
86.494739
21
152.181450
0
LINE
8
negative_3 outline
10
86.494739
20
152.181450
11
86.315130
21
151.406910
0
LINE
8
negative_3 outline
10
86.315130
20
151.406910
11
85.949889
21
150.730420
0
LINE
8
negative_3 outline
10
85.949889
20
150.730420
11
85.580547
21
151.483252
0
LINE
8
negative_3 outline
10
85.580547
20
151.483252
11
85.477674
21
152.290036
0
LINE
8
negative_3 outline
10
85.477674
20
152.290036
11
85.734810
21
153.998533
0
LINE
8
negative_3 outline
10
85.734810
20
153.998533
11
86.048252
21
155.722048
0
LINE
8
negative_3 outline
10
86.048252
20
155.722048
11
86.015759
21
156.547606
0
LINE
8
negative_3 outline
10
86.015759
20
156.547606
11
85.744951
21
157.326720
0
LINE
8
negative_3 outline
10
85.744951
20
157.326720
11
85.099175
21
157.020491
0
LINE
8
negative_3 outline
10
85.099175
20
157.020491
11
84.605191
21
156.467273
0
LINE
8
negative_3 outline
10
84.605191
20
156.467273
11
83.846849
21
154.996931
0
LINE
8
negative_3 outline
10
83.846849
20
154.996931
11
83.469619
21
154.268339
0
LINE
8
negative_3 outline
10
83.469619
20
154.268339
11
83.018435
21
153.669819
0
LINE
8
negative_3 outline
10
83.018435
20
153.669819
11
82.436860
21
153.295638
0
LINE
8
negative_3 outline
10
82.436860
20
153.295638
11
81.668458
21
153.240060
0
LINE
8
negative_3 outline
10
81.668458
20
153.240060
11
82.388634
21
155.030457
0
LINE
8
negative_3 outline
10
82.388634
20
155.030457
11
83.376039
21
156.688424
0
LINE
8
negative_3 outline
10
83.376039
20
156.688424
11
85.707129
21
159.738800
0
LINE
8
negative_3 outline
10
85.707129
20
159.738800
11
85.780559
21
160.311636
0
LINE
8
negative_3 outline
10
85.780559
20
160.311636
11
85.706854
21
160.980747
0
LINE
8
negative_3 outline
10
85.706854
20
160.980747
11
85.361430
21
162.418504
0
LINE
8
negative_3 outline
10
85.361430
20
162.418504
11
85.157637
21
163.673483
0
LINE
8
negative_3 outline
10
85.157637
20
163.673483
11
85.260970
21
164.114124
0
LINE
8
negative_3 outline
10
85.260970
20
164.114124
11
85.582252
21
164.367100
0
LINE
8
negative_3 outline
10
85.582252
20
164.367100
11
85.748102
21
162.910019
0
LINE
8
negative_3 outline
10
85.748102
20
162.910019
11
86.166295
21
161.413790
0
LINE
8
negative_3 outline
10
86.166295
20
161.413790
11
86.500481
21
160.798901
0
LINE
8
negative_3 outline
10
86.500481
20
160.798901
11
86.934307
21
160.351713
0
LINE
8
negative_3 outline
10
86.934307
20
160.351713
11
87.479958
21
160.131389
0
LINE
8
negative_3 outline
10
87.479958
20
160.131389
11
88.149619
21
160.197090
0
LINE
8
negative_3 outline
10
88.149619
20
160.197090
11
87.545382
21
160.982264
0
LINE
8
negative_3 outline
10
87.545382
20
160.982264
11
87.081907
21
161.876760
0
LINE
8
negative_3 outline
10
87.081907
20
161.876760
11
86.784814
21
162.834160
0
LINE
8
negative_3 outline
10
86.784814
20
162.834160
11
86.679724
21
163.808042
0
LINE
8
negative_3 outline
10
86.679724
20
163.808042
11
86.792257
21
164.751988
0
LINE
8
negative_3 outline
10
86.792257
20
164.751988
11
87.148033
21
165.619576
0
LINE
8
negative_3 outline
10
87.148033
20
165.619576
11
87.772673
21
166.364387
0
LINE
8
negative_3 outline
10
87.772673
20
166.364387
11
88.691798
21
166.940000
0
LINE
8
negative_3 outline
10
88.691798
20
166.940000
11
88.691798
21
166.940000
0
LINE
8
negative_3 outline
10
103.284190
20
164.029070
11
102.082203
21
160.847279
0
LINE
8
negative_3 outline
10
102.082203
20
160.847279
11
100.893190
21
157.553880
0
LINE
8
negative_3 outline
10
100.893190
20
157.553880
11
99.972842
21
154.154782
0
LINE
8
negative_3 outline
10
99.972842
20
154.154782
11
99.611449
21
152.451156
0
LINE
8
negative_3 outline
10
99.611449
20
152.451156
11
99.480670
21
150.791910
0
LINE
8
negative_3 outline
10
99.480670
20
150.791910
11
101.338346
21
149.229324
0
LINE
8
negative_3 outline
10
101.338346
20
149.229324
11
101.673378
21
148.861175
0
LINE
8
negative_3 outline
10
101.673378
20
148.861175
11
101.764137
21
148.610877
0
LINE
8
negative_3 outline
10
101.764137
20
148.610877
11
101.514364
21
148.532856
0
LINE
8
negative_3 outline
10
101.514364
20
148.532856
11
100.827800
21
148.681540
0
LINE
8
negative_3 outline
10
100.827800
20
148.681540
11
99.658161
21
149.063047
0
LINE
8
negative_3 outline
10
99.658161
20
149.063047
11
98.761816
21
149.638872
0
LINE
8
negative_3 outline
10
98.761816
20
149.638872
11
98.491176
21
150.025327
0
LINE
8
negative_3 outline
10
98.491176
20
150.025327
11
98.378915
21
150.491167
0
LINE
8
negative_3 outline
10
98.378915
20
150.491167
11
98.455054
21
151.046662
0
LINE
8
negative_3 outline
10
98.455054
20
151.046662
11
98.749610
21
151.702080
0
LINE
8
negative_3 outline
10
98.749610
20
151.702080
11
99.628227
21
155.547701
0
LINE
8
negative_3 outline
10
99.628227
20
155.547701
11
100.621640
21
159.343650
0
LINE
8
negative_3 outline
10
100.621640
20
159.343650
11
100.857910
21
160.763101
0
LINE
8
negative_3 outline
10
100.857910
20
160.763101
11
101.259424
21
162.172491
0
LINE
8
negative_3 outline
10
101.259424
20
162.172491
11
101.578867
21
162.800600
0
LINE
8
negative_3 outline
10
101.578867
20
162.800600
11
102.007684
21
163.338816
0
LINE
8
negative_3 outline
10
102.007684
20
163.338816
11
102.568562
21
163.758015
0
LINE
8
negative_3 outline
10
102.568562
20
163.758015
11
103.284190
21
164.029070
0
LINE
8
negative_3 outline
10
103.284190
20
164.029070
11
103.284190
21
164.029070
0
LINE
8
negative_3 outline
10
98.787310
20
159.424180
11
99.288022
21
159.272930
0
LINE
8
negative_3 outline
10
99.288022
20
159.272930
11
99.580306
21
158.933551
0
LINE
8
negative_3 outline
10
99.580306
20
158.933551
11
99.694178
21
158.498511
0
LINE
8
negative_3 outline
10
99.694178
20
158.498511
11
99.659658
21
158.060279
0
LINE
8
negative_3 outline
10
99.659658
20
158.060279
11
99.506762
21
157.711322
0
LINE
8
negative_3 outline
10
99.506762
20
157.711322
11
99.265508
21
157.544110
0
LINE
8
negative_3 outline
10
99.265508
20
157.544110
11
98.965915
21
157.651109
0
LINE
8
negative_3 outline
10
98.965915
20
157.651109
11
98.638000
21
158.124790
0
LINE
8
negative_3 outline
10
98.638000
20
158.124790
11
97.911947
21
157.914266
0
LINE
8
negative_3 outline
10
97.911947
20
157.914266
11
97.258571
21
157.572874
0
LINE
8
negative_3 outline
10
97.258571
20
157.572874
11
96.258809
21
156.572582
0
LINE
8
negative_3 outline
10
96.258809
20
156.572582
11
95.956904
21
155.951229
0
LINE
8
negative_3 outline
10
95.956904
20
155.951229
11
95.816638
21
155.274102
0
LINE
8
negative_3 outline
10
95.816638
20
155.274102
11
95.860250
21
154.559974
0
LINE
8
negative_3 outline
10
95.860250
20
154.559974
11
96.109981
21
153.827620
0
LINE
8
negative_3 outline
10
96.109981
20
153.827620
11
97.213071
21
151.747645
0
LINE
8
negative_3 outline
10
97.213071
20
151.747645
11
97.333850
21
151.365460
0
LINE
8
negative_3 outline
10
97.333850
20
151.365460
11
97.256052
21
151.179412
0
LINE
8
negative_3 outline
10
97.256052
20
151.179412
11
96.911387
21
151.260010
0
LINE
8
negative_3 outline
10
96.911387
20
151.260010
11
96.231565
21
151.677760
0
LINE
8
negative_3 outline
10
96.231565
20
151.677760
11
95.422698
21
152.244104
0
LINE
8
negative_3 outline
10
95.422698
20
152.244104
11
94.804269
21
152.959172
0
LINE
8
negative_3 outline
10
94.804269
20
152.959172
11
94.393520
21
153.772997
0
LINE
8
negative_3 outline
10
94.393520
20
153.772997
11
94.207694
21
154.635614
0
LINE
8
negative_3 outline
10
94.207694
20
154.635614
11
94.264034
21
155.497056
0
LINE
8
negative_3 outline
10
94.264034
20
155.497056
11
94.579783
21
156.307359
0
LINE
8
negative_3 outline
10
94.579783
20
156.307359
11
95.172183
21
157.016555
0
LINE
8
negative_3 outline
10
95.172183
20
157.016555
11
96.058477
21
157.574680
0
LINE
8
negative_3 outline
10
96.058477
20
157.574680
11
97.441015
21
158.474125
0
LINE
8
negative_3 outline
10
97.441015
20
158.474125
11
98.787310
21
159.424180
0
LINE
8
negative_3 outline
10
98.787310
20
159.424180
11
98.787310
21
159.424180
0
LINE
8
negative_3 outline
10
101.357690
20
157.209330
11
102.485850
21
155.715641
0
LINE
8
negative_3 outline
10
102.485850
20
155.715641
11
103.453135
21
154.090766
0
LINE
8
negative_3 outline
10
103.453135
20
154.090766
11
104.051570
21
152.327459
0
LINE
8
negative_3 outline
10
104.051570
20
152.327459
11
104.147477
21
151.391627
0
LINE
8
negative_3 outline
10
104.147477
20
151.391627
11
104.073180
21
150.418470
0
LINE
8
negative_3 outline
10
104.073180
20
150.418470
11
103.958005
21
149.494878
0
LINE
8
negative_3 outline
10
103.958005
20
149.494878
11
103.530589
21
148.720454
0
LINE
8
negative_3 outline
10
103.530589
20
148.720454
11
103.311500
21
148.547160
0
LINE
8
negative_3 outline
10
103.311500
20
148.547160
11
103.148403
21
148.600733
0
LINE
8
negative_3 outline
10
103.148403
20
148.600733
11
103.085982
21
148.944366
0
LINE
8
negative_3 outline
10
103.085982
20
148.944366
11
103.168920
21
149.641250
0
LINE
8
negative_3 outline
10
103.168920
20
149.641250
11
103.426477
21
150.555257
0
LINE
8
negative_3 outline
10
103.426477
20
150.555257
11
103.420491
21
151.409513
0
LINE
8
negative_3 outline
10
103.420491
20
151.409513
11
103.210160
21
152.217867
0
LINE
8
negative_3 outline
10
103.210160
20
152.217867
11
102.854685
21
152.994170
0
LINE
8
negative_3 outline
10
102.854685
20
152.994170
11
101.945094
21
154.506017
0
LINE
8
negative_3 outline
10
101.945094
20
154.506017
11
101.165310
21
156.055850
0
LINE
8
negative_3 outline
10
101.165310
20
156.055850
11
101.177508
21
156.646255
0
LINE
8
negative_3 outline
10
101.177508
20
156.646255
11
101.357690
21
157.209330
0
LINE
8
negative_3 outline
10
101.357690
20
157.209330
11
101.357690
21
157.209330
0
LINE
8
negative_3 outline
10
88.658725
20
152.953780
11
88.226492
21
152.171984
0
LINE
8
negative_3 outline
10
88.226492
20
152.171984
11
87.526864
21
151.481404
0
LINE
8
negative_3 outline
10
87.526864
20
151.481404
11
87.252398
21
151.316180
0
LINE
8
negative_3 outline
10
87.252398
20
151.316180
11
87.121830
21
151.348792
0
LINE
8
negative_3 outline
10
87.121830
20
151.348792
11
87.573382
21
152.240900
0
LINE
8
negative_3 outline
10
87.573382
20
152.240900
11
88.040710
21
152.717632
0
LINE
8
negative_3 outline
10
88.040710
20
152.717632
11
88.658725
21
152.953780
0
LINE
8
negative_3 outline
10
88.658725
20
152.953780
11
88.658725
21
152.953780
0
LINE
8
negative_3 outline
10
82.240512
20
152.644230
11
82.926240
21
151.919115
0
LINE
8
negative_3 outline
10
82.926240
20
151.919115
11
83.760164
21
151.434467
0
LINE
8
negative_3 outline
10
83.760164
20
151.434467
11
84.600150
21
151.266428
0
LINE
8
negative_3 outline
10
84.600150
20
151.266428
11
85.304062
21
151.491140
0
LINE
8
negative_3 outline
10
85.304062
20
151.491140
11
85.117786
21
151.024521
0
LINE
8
negative_3 outline
10
85.117786
20
151.024521
11
84.652381
21
150.769869
0
LINE
8
negative_3 outline
10
84.652381
20
150.769869
11
84.019316
21
150.708451
0
LINE
8
negative_3 outline
10
84.019316
20
150.708451
11
83.330060
21
150.821534
0
LINE
8
negative_3 outline
10
83.330060
20
150.821534
11
82.696082
21
151.090386
0
LINE
8
negative_3 outline
10
82.696082
20
151.090386
11
82.228852
21
151.496274
0
LINE
8
negative_3 outline
10
82.228852
20
151.496274
11
82.039839
21
152.020466
0
LINE
8
negative_3 outline
10
82.039839
20
152.020466
11
82.240512
21
152.644230
0
LINE
8
negative_3 outline
10
82.240512
20
152.644230
11
82.240512
21
152.644230
 0 
ENDSEC
 0 
EOF