<?xml version="1.0" encoding="UTF-8" standalone="no"?>
<!-- Created with Inkscape (http://www.inkscape.org/) -->

<svg
   width="450mm"
   height="300mm"
   viewBox="0 0 450 300"
   version="1.1"
   id="svg1"
   inkscape:version="1.3.2 (091e20e, 2023-11-25, custom)"
   sodipodi:docname="logo_tag.svg"
   xmlns:inkscape="http://www.inkscape.org/namespaces/inkscape"
   xmlns:sodipodi="http://sodipodi.sourceforge.net/DTD/sodipodi-0.dtd"
   xmlns="http://www.w3.org/2000/svg"
   xmlns:svg="http://www.w3.org/2000/svg">
  <sodipodi:namedview
     id="namedview1"
     pagecolor="#ffffff"
     bordercolor="#000000"
     borderopacity="0.25"
     inkscape:showpageshadow="2"
     inkscape:pageopacity="0.0"
     inkscape:pagecheckerboard="false"
     inkscape:deskcolor="#d1d1d1"
     inkscape:document-units="mm"
     inkscape:zoom="0.19264696"
     inkscape:cx="674.80951"
     inkscape:cy="410.07655"
     inkscape:window-width="1443"
     inkscape:window-height="492"
     inkscape:window-x="3646"
     inkscape:window-y="940"
     inkscape:window-maximized="0"
     inkscape:current-layer="layer1"
     labelstyle="default"
     inkscape:clip-to-page="false"
     showguides="true"
     showgrid="true">
    <sodipodi:guide
       position="37.500001,262.5"
       orientation="0,1"
       id="guide1"
       inkscape:locked="false"
       inkscape:label=""
       inkscape:color="rgb(0,134,229)" />
    <sodipodi:guide
       position="412.5,37.5"
       orientation="-1,0"
       id="guide2"
       inkscape:locked="false"
       inkscape:label=""
       inkscape:color="rgb(0,134,229)" />
    <sodipodi:guide
       position="37.5,37.5"
       orientation="0,1"
       id="guide3"
       inkscape:locked="false"
       inkscape:label=""
       inkscape:color="rgb(0,134,229)" />
    <sodipodi:guide
       position="37.500001,187.5"
       orientation="-1,0"
       id="guide4"
       inkscape:locked="false"
       inkscape:label=""
       inkscape:color="rgb(0,134,229)" />
    <sodipodi:guide
       position="300,150"
       orientation="-1,0"
       id="guide5"
       inkscape:label=""
       inkscape:locked="false"
       inkscape:color="rgb(0,134,229)" />
    <sodipodi:guide
       position="0,150"
       orientation="0,1"
       id="guide6"
       inkscape:label=""
       inkscape:locked="false"
       inkscape:color="rgb(0,134,229)" />
  </sodipodi:namedview>
  <defs
     id="defs1" />
  <g
     inkscape:label="Layer 1"
     inkscape:groupmode="layer"
     id="layer1">
    <path
       style="fill:none;fill-opacity:1;fill-rule:nonzero;stroke:#000000;stroke-width:3.612;stroke-dasharray:none;stroke-opacity:1"
       d="m 349.82589,74.418308 c -0.34843,0.836566 7.66031,-0.232665 2.4734,2.491482 -2.43501,5.409475 -8.06332,-2.278792 -2.4734,-2.491482 z"
       id="path23" />
    <path
       style="fill:none;fill-opacity:1;fill-rule:nonzero;stroke:#000000;stroke-width:3.612;stroke-dasharray:none;stroke-opacity:1"
       d="m 350.08867,49.789463 c -7.16879,-0.637338 -11.30253,5.980933 -16.28862,9.063852 -7.64526,2.960403 -17.11335,5.70918 -20.65904,13.900604 -12.52392,2.23216 -15.74633,21.633376 -4.55512,27.698301 4.83219,1.28539 16.99904,0.88723 17.75271,3.22961 -13.48244,6.66101 -22.88661,22.65537 -19.96656,37.68929 3.27208,9.32806 8.10956,18.29734 8.48891,28.40613 -0.11498,6.83023 3.77768,12.66399 5.56037,18.82042 3.05423,7.43615 6.16078,16.17225 0.91624,23.47449 -4.63806,5.30999 -9.59344,10.31812 -10.04438,17.8321 -0.0944,6.54764 3.87701,13.44435 11.12939,13.47084 6.9446,-0.2988 15.61857,0.18979 20.14458,-5.95508 5.70579,-8.05035 14.44611,-4.40103 19.63272,2.30891 6.10049,6.04744 13.23854,11.62314 22.05769,12.63301 8.39644,0.3284 16.17654,-9.24596 12.35282,-17.24164 0.31975,-8.47683 -7.73932,-14.18671 -8.51805,-22.02698 -0.39354,-8.74263 7.42944,-14.81992 9.09715,-23.03703 4.57597,-9.27343 5.69001,-19.94636 10.9506,-28.98884 5.04161,-7.43815 6.07537,-16.71313 2.94709,-24.92197 -1.79176,-10.16808 -9.87785,-17.24071 -16.40568,-24.5872 -3.3716,-2.40925 -9.75421,-5.59101 -4.09735,-9.33151 5.49843,-5.263435 4.80807,-13.945185 3.26497,-20.81078 -1.87868,-8.10394 -7.35596,-14.685451 -12.22216,-21.032534 -3.21687,-8.596261 -13.53103,-9.524098 -21.38615,-10.021171 -3.38509,-0.149571 -6.78852,-0.144252 -10.15213,-0.572822 z"
       id="path430" />
    <path
       id="text6-9"
       style="font-size:119.239px;line-height:0.9;font-family:Retosta;-inkscape-font-specification:'Retosta, Normal';letter-spacing:-6.92679px;word-spacing:0px;fill:#fa9d3b;stroke:#000000;stroke-width:3.61152;stroke-linecap:round;stroke-linejoin:round;stroke-miterlimit:2;fill-opacity:1"
       d="M 162.05988 57.409416 C 147.63197 57.409416 140.12006 66.829187 138.21224 82.211003 C 138.093 83.164914 137.61585 83.642057 136.66194 83.761296 C 135.50318 83.86354 134.4885 84.190883 133.60528 84.674418 C 132.65602 84.087218 131.48298 83.761296 130.12901 83.761296 L 121.06651 83.761296 C 117.37012 83.761296 114.98575 86.146173 114.98575 89.842578 L 114.98575 90.915898 C 114.98575 94.135347 115.58175 98.427976 116.6549 102.00514 C 118.08576 106.65546 118.68216 112.02117 118.68216 114.88291 C 118.56293 123.58735 112.83914 128.95285 106.8772 128.95285 C 102.22688 128.95285 99.723112 125.61443 99.723112 119.0563 L 99.723112 89.842578 C 99.723112 86.146173 97.338101 83.761296 93.522457 83.761296 L 84.460478 83.761296 C 82.783288 83.761296 81.395798 84.27332 80.358919 85.155009 C 79.151859 84.268221 77.611667 83.761296 75.780904 83.761296 L 72.323234 83.761296 C 70.057695 83.761296 68.507446 82.211047 68.507446 79.945508 L 68.507446 74.579944 C 68.507446 69.333433 65.168435 65.994938 59.921924 65.994938 C 54.675413 65.994938 50.979317 69.333433 50.979317 74.579944 L 50.979317 79.945508 C 50.979317 82.091808 49.66768 83.522818 47.282902 83.761296 C 43.348019 84.119012 40.844019 86.980765 40.844019 91.154126 L 40.844019 91.392871 C 40.844019 95.566232 43.348019 98.427985 47.282902 98.785701 C 49.66768 99.024179 50.979317 100.45506 50.979317 102.48212 L 50.979317 113.09439 C 50.979317 133.365 58.37201 146.36161 75.303931 146.36161 C 80.441174 146.36161 84.982594 145.09345 87.85717 143.13803 C 90.838856 146.01569 94.899268 147.67367 99.841968 147.67367 C 106.16163 147.67367 111.88546 144.81152 116.29729 139.92273 C 117.8474 138.37262 118.56268 138.61113 118.92039 140.87667 C 119.51659 144.81156 121.30511 146.36161 124.40533 146.36161 L 133.82542 146.36161 C 134.73496 146.36161 135.55689 146.21811 136.29091 145.96163 C 136.7142 146.20529 137.18783 146.36161 137.73526 146.36161 L 155.26339 146.36161 C 157.76741 146.36161 159.07866 143.50018 159.07866 140.63844 L 159.07866 139.56512 C 159.07866 136.34568 158.36356 132.05307 157.52889 128.95285 C 156.09802 124.54102 155.26339 118.69827 155.26339 114.16719 L 155.26339 100.33548 C 155.26339 99.38157 155.85925 98.785701 156.81317 98.785701 L 165.04109 98.785701 C 165.06369 98.785701 165.08317 98.780676 165.10568 98.780534 C 165.11596 98.781504 165.12484 98.784765 165.13514 98.785701 C 167.51992 99.024179 168.83156 100.45506 168.83156 102.48212 L 168.83156 113.09439 C 168.83156 119.2404 169.52297 124.70417 170.94202 129.35334 C 163.73263 133.11397 159.67573 140.92325 158.34692 151.63674 C 158.22768 152.59065 157.75106 153.06728 156.79715 153.18652 C 154.15694 153.41948 152.19117 154.72769 151.12928 156.75529 C 150.28452 154.52714 148.25093 153.18652 145.48001 153.18652 L 136.41803 153.18652 C 132.72162 153.18652 130.33675 155.57139 130.33675 159.2678 L 130.33675 160.34112 C 130.33675 163.56057 130.93326 167.8532 132.00641 171.43036 C 133.43728 176.08068 134.03316 181.4464 134.03316 184.30813 C 133.91392 193.01257 128.19066 198.37859 122.22872 198.37859 C 117.5784 198.37859 115.07411 195.03965 115.07411 188.48152 L 115.07411 159.2678 C 115.07411 155.57139 112.68962 153.18652 108.87397 153.18652 L 99.811479 153.18652 C 96.115073 153.18652 93.730196 155.57139 93.730196 159.2678 L 93.730196 160.34112 C 93.730196 161.71788 93.858933 163.2981 94.058341 164.89019 C 90.107799 156.78711 83.529912 151.87497 75.736462 151.87497 C 71.086146 151.87497 67.270071 153.66398 64.289099 156.40647 C 62.738994 157.83733 62.023684 157.71768 60.712056 155.57138 C 59.877384 154.02128 58.327616 153.18652 55.942839 153.18652 L 46.522742 153.18652 C 42.826336 153.18652 40.441459 155.57139 40.441459 159.2678 L 40.441459 160.34112 C 40.441459 163.56057 41.037841 167.85318 41.991752 170.95339 C 43.30338 175.36524 44.257247 181.20797 44.257247 185.73905 L 44.257247 208.27514 C 44.257247 212.80622 43.303513 218.64882 42.111125 222.94143 C 41.037975 226.16088 40.441459 230.45362 40.441459 233.67308 L 40.441459 234.74639 C 40.441459 238.4428 42.826336 240.82768 46.522742 240.82768 L 59.400509 240.82768 C 63.096914 240.82768 65.481791 238.4428 65.481791 234.74639 L 65.481791 233.67308 C 65.481791 230.45362 64.885409 226.16101 63.931498 223.0608 C 62.858348 219.60287 62.143226 215.19124 61.904749 211.25636 C 65.004959 214.95276 69.29726 217.09889 74.54377 217.09889 C 85.996824 217.09889 95.355832 206.82273 97.545984 191.03899 L 97.545984 197.30527 C 97.545984 208.99068 104.22351 217.09889 115.19349 217.09889 C 121.51315 217.09889 127.23646 214.23726 131.6483 209.34846 C 133.1984 207.79835 133.91419 208.03687 134.27191 210.30241 C 134.86811 214.23729 136.65664 215.78735 139.75684 215.78735 L 149.17642 215.78735 C 151.7623 215.78735 153.66711 214.67303 154.64172 212.81647 C 155.18498 214.49154 156.21424 215.78735 157.86995 215.78735 L 175.39808 215.78735 C 177.9021 215.78735 179.21387 212.9254 179.21387 210.06366 L 179.21387 208.99086 C 179.21387 205.77141 178.49825 201.47881 177.66357 198.37859 C 176.23272 193.96675 175.39808 188.124 175.39808 183.59293 L 175.39808 169.76121 C 175.39808 168.80731 175.99446 168.21092 176.94837 168.21092 L 185.17578 168.21092 C 186.54317 168.21092 187.73518 167.92167 188.76574 167.43319 C 189.44488 167.75152 190.18754 167.98575 191.00746 168.09155 C 192.08061 168.21079 192.55776 168.80731 192.55776 169.76121 L 192.55776 183.59293 C 192.55776 188.124 191.72326 193.96635 190.41163 198.02047 C 189.45772 201.4784 188.86134 205.77141 188.86134 208.99086 L 188.86134 210.06366 C 188.86134 212.9254 190.05374 215.78735 192.55776 215.78735 L 210.08588 215.78735 C 212.5899 215.78735 213.90167 212.9254 213.90167 210.06366 L 213.90167 208.99086 C 213.90167 205.77141 213.18605 201.47881 212.35138 198.37859 C 210.92051 193.96675 210.08588 188.124 210.08588 183.59293 L 210.08588 169.76121 C 210.08588 168.80731 210.68226 168.21092 211.63618 168.21092 L 219.02901 168.21092 C 219.26749 169.28407 219.50573 170.35708 219.74421 171.31099 C 220.9366 175.36512 221.89033 181.2078 221.89033 184.66573 C 221.89033 187.40823 221.29445 192.77433 219.86358 197.42464 C 218.79043 201.12105 218.07506 205.41329 218.07506 208.63274 L 218.07506 209.70606 C 218.07506 213.40247 220.45955 215.78735 224.2752 215.78735 L 237.03411 215.78735 C 237.3844 215.78735 237.71082 215.74607 238.03663 215.70415 C 238.36245 215.74607 238.68887 215.78735 239.03916 215.78735 L 251.91692 215.78735 C 255.61333 215.78735 257.99821 213.40247 257.99821 209.70606 L 257.99821 208.63274 C 257.99821 205.41329 257.40207 201.12066 256.20968 197.5435 C 254.89806 192.89318 254.30179 187.52746 254.30179 184.66573 C 254.42103 175.96129 260.14419 170.59579 266.46384 170.59579 C 272.42578 170.59579 275.76456 175.00736 275.76456 180.49234 L 275.76456 183.23481 C 275.76456 187.76589 274.93007 193.60874 273.61844 197.66287 C 272.66453 201.1208 272.06815 205.41329 272.06815 208.63274 L 272.06815 209.70606 C 272.06815 213.40247 274.45303 215.78735 278.14943 215.78735 L 290.90782 215.78735 C 294.72347 215.78735 297.10848 213.40247 297.10848 209.70606 L 297.10848 208.63274 C 297.10848 205.41329 296.39286 201.12068 295.55819 198.02047 C 294.12732 193.60863 293.29269 187.76589 293.29269 183.23481 L 293.29269 171.66859 C 293.29269 159.98318 286.49628 151.87497 274.57239 151.87497 C 267.41805 151.87497 261.2176 154.73674 256.56729 159.74477 C 255.13642 161.29487 254.42114 161.05636 253.94419 158.79082 C 253.34799 154.7367 251.79743 153.18652 248.45874 153.18652 L 239.03916 153.18652 C 238.01161 153.18652 237.09847 153.38773 236.29669 153.73325 C 235.54827 153.35789 234.64773 153.18652 233.57592 153.18652 L 211.87441 153.18652 C 210.9205 153.18652 210.32425 152.59065 210.44349 151.63674 C 210.74171 149.01235 211.309 146.89527 212.2935 145.43453 C 215.45454 146.88297 218.95519 147.67367 222.70269 147.67367 C 231.44115 147.67367 239.54906 143.41266 244.23729 136.35498 C 248.39228 143.48244 254.54857 147.67367 261.19181 147.67367 C 265.36516 147.67367 269.1806 145.88505 272.51928 143.02331 C 274.18863 141.59245 274.78495 141.83057 275.8581 144.09611 C 276.4543 145.64621 277.88519 146.36161 280.03149 146.36161 L 290.40553 146.36161 C 294.10194 146.36161 296.4863 143.97725 296.4863 140.28084 L 296.4863 139.20752 C 296.4863 135.98807 295.89044 131.69546 294.93652 128.59525 C 293.6249 124.18341 292.78988 118.34067 292.78988 113.80959 L 292.78988 65.875566 C 292.78988 61.463728 291.23995 58.720964 286.94734 58.720964 L 277.52776 58.720964 C 273.83136 58.720964 271.44648 61.105842 271.44648 64.802246 L 271.44648 65.875566 C 271.44648 69.095015 272.04235 73.387627 272.99626 76.487838 C 273.59245 78.514899 274.06946 80.661182 274.42718 82.926721 C 274.78489 84.953782 273.83101 85.66902 271.68471 84.59587 C 268.94221 83.284242 265.96115 82.449748 262.38398 82.449748 C 255.13912 82.449748 249.10228 86.010058 244.95507 92.049162 C 241.5986 86.074599 234.62753 82.449748 225.80275 82.449748 C 208.99007 82.449748 195.9932 95.56625 195.9932 115.83686 C 195.9932 120.79114 196.80577 125.33674 198.25767 129.36678 C 196.80957 129.5212 195.46534 129.71966 194.23414 129.87063 C 192.67464 128.8589 190.71219 128.07413 188.45 127.55759 C 186.75096 124.82922 186.35968 119.9946 186.35968 113.80959 L 186.35968 102.48212 C 186.35968 100.33582 187.90993 98.785701 190.17547 98.785701 L 193.63314 98.785701 C 198.16422 98.785701 201.02597 95.923949 201.02597 91.392871 C 201.02597 86.742555 198.16422 83.761296 193.63314 83.761296 L 190.17547 83.761296 C 187.90993 83.761296 186.35968 82.211047 186.35968 79.945508 L 186.35968 74.579944 C 186.35968 69.333433 183.02119 65.994938 177.77468 65.994938 C 177.71231 65.994938 177.65677 66.008466 177.59484 66.009408 C 177.62757 64.279799 176.9523 62.468124 174.81827 60.867603 C 171.95653 58.721303 167.30639 57.409416 162.05988 57.409416 z M 161.82165 73.745369 C 163.74688 73.745369 166.26532 74.52706 168.83827 74.50708 C 168.8381 74.532475 168.83156 74.554458 168.83156 74.579944 L 168.83156 79.945508 C 168.83156 82.091808 167.51992 83.522818 165.13514 83.761296 C 165.12449 83.762264 165.11528 83.765459 165.10465 83.766463 C 165.0825 83.76632 165.06333 83.761296 165.04109 83.761296 L 157.05191 83.761296 C 156.098 83.761296 155.50175 83.164914 155.62099 82.211003 C 156.21718 76.964492 157.88677 73.745369 161.82165 73.745369 z M 79.12747 98.128894 C 79.356011 99.332504 79.614151 100.50332 79.929488 101.52817 C 81.241116 105.94002 82.194983 111.78276 82.194983 116.31383 L 82.194983 127.87953 C 82.194983 128.35143 82.223487 128.80763 82.245109 129.26756 C 79.615688 129.21051 77.031548 130.02617 75.065702 130.02617 C 69.461475 130.02617 68.507446 123.58718 68.507446 113.80959 L 68.507446 102.48212 C 68.507446 100.33582 70.057695 98.785701 72.323234 98.785701 L 75.780904 98.785701 C 77.039125 98.785701 78.152227 98.544698 79.12747 98.128894 z M 136.21029 98.67253 C 137.26296 98.799265 137.73526 99.390238 137.73526 100.33548 L 137.73526 114.16719 C 137.73526 116.6967 137.45431 119.61638 136.99629 122.42405 C 136.51125 119.64877 136.21029 116.87369 136.21029 114.88291 L 136.21029 98.67253 z M 225.92213 98.785701 C 228.90309 98.785701 231.40706 100.57422 231.40706 103.79366 C 231.40706 108.20551 226.75688 111.0673 217.69472 115.83686 C 215.66766 116.91001 213.99845 116.07513 214.11768 113.80959 C 214.59464 104.74744 220.43713 98.785701 225.92213 98.785701 z M 267.15372 98.785701 C 272.16175 98.785701 275.26175 103.07793 275.26175 109.51683 L 275.26175 119.65213 C 275.26175 126.56798 272.40022 131.33772 267.15372 131.33772 C 261.07254 131.33772 257.01842 124.54113 257.01842 114.76354 C 257.01842 104.86671 261.19178 98.785701 267.15372 98.785701 z M 238.9911 117.36751 C 239.10549 119.48518 239.34931 121.51133 239.69493 123.45551 C 238.90668 124.10227 238.06479 124.90838 237.13075 125.97216 C 235.89486 127.41403 234.64297 128.5519 233.32064 129.44688 C 231.04123 128.18441 227.59434 127.35301 222.15853 127.02274 C 222.31467 126.95505 222.40089 126.86434 222.58331 126.80673 C 227.8129 125.10408 234.08826 121.90492 238.9911 117.36751 z M 180.95433 143.27911 C 184.28482 145.26788 188.3181 146.36161 193.15617 146.36161 C 193.44283 146.36161 193.70473 146.31767 193.98764 146.30993 C 193.58819 147.99616 193.26646 149.7684 193.03473 151.63674 C 192.91549 152.59065 192.43835 153.06728 191.48444 153.18652 C 190.43845 153.27881 189.50112 153.54407 188.67789 153.94926 C 187.6667 153.47014 186.50379 153.18652 185.17578 153.18652 L 177.1866 153.18652 C 176.23269 153.18652 175.63644 152.59065 175.75568 151.63674 C 176.29742 146.86935 177.74575 143.80439 180.95433 143.27911 z M 151.56129 165.31549 C 152.62045 166.83067 154.25443 167.825 156.32017 168.09155 C 157.39332 168.21079 157.86995 168.80731 157.86995 169.76121 L 157.86995 183.59293 C 157.86995 188.124 157.03546 193.96635 155.72383 198.02047 C 155.33487 199.43045 155.02476 200.98346 154.77091 202.54164 C 154.4844 200.86304 154.12625 199.18114 153.70741 197.66287 C 152.39579 193.60874 151.56129 187.76606 151.56129 184.30813 L 151.56129 165.31549 z M 69.774552 168.21092 C 75.736496 168.21092 79.909851 174.29194 79.909851 184.18876 C 79.909851 193.96635 75.855735 200.76294 69.774552 200.76294 C 64.528042 200.76294 61.785376 195.99372 61.785376 189.07786 L 61.785376 178.94257 C 61.785376 172.50366 64.766519 168.21092 69.774552 168.21092 z " />
  </g>
</svg>
